<?xml version="1.0" standalone="no"?>
<!DOCTYPE svg PUBLIC "-//W3C//DTD SVG 1.1//EN" "http://www.w3.org/Graphics/SVG/1.1/DTD/svg11.dtd" >
<svg>
<metadata>
Created by FontForge 20090914 at Mon Nov 15 11:53:52 2021
 By www-data
Masterfont&#194;&#174; Studio Rosenberg Version 5.0
</metadata>
<defs>
<font id="AdamaMFBold" horiz-adv-x="0" >
  <font-face 
    font-family="AdamaMF"
    font-weight="700"
    font-stretch="normal"
    units-per-em="1000"
    panose-1="0 0 0 0 0 0 0 0 0 0"
    ascent="800"
    descent="-200"
    x-height="376"
    cap-height="645"
    bbox="-277.997 -353.002 1096 800"
    underline-thickness="20"
    underline-position="-123"
    unicode-range="U+0020-U+FB4F"
  />
<missing-glyph horiz-adv-x="500" 
d="M63 0v800h375v-800h-375zM125 63h250v675h-250v-675z" />
    <glyph glyph-name=".notdef" horiz-adv-x="500" 
d="M63 0v800h375v-800h-375zM125 63h250v675h-250v-675z" />
    <glyph glyph-name="space" unicode=" " horiz-adv-x="300" 
 />
    <glyph glyph-name="exclam" unicode="!" horiz-adv-x="337" 
d="M322 487c0 -22 -30.3311 -97.001 -90.998 -225.001c-2.66699 -1.33301 -7.33398 -10.166 -14.001 -26.499s-12.334 -26.833 -17.001 -31.5c0 -2.66699 -4 -13.334 -12 -32.001c-4 -4.66699 -9.66699 -13.334 -17 -26.001c0 -9.33301 -3 -17.833 -9 -25.5
s-13.333 -11.5 -22 -11.5c-12 0 -18 12 -18 36c0 35.333 12.333 88.333 37 159c20.667 60.667 42 112.334 64 155.001c11.333 22 17 39 17 51c0 4.66699 -1.33301 8.33398 -4 11.001l7 22h17c13.333 0 24 -2 32 -6l5 -7l-1 4c17.333 -17.333 26 -33 26 -47zM176.002 24.999
c0 -8 -3.66699 -13.333 -11 -16c-4.66699 -1.33301 -9.33398 -2.33301 -14.001 -3c-8 -9.33301 -15 -14 -21 -14c-7.33301 0 -16 5.16699 -26 15.5s-15 19.5 -15 27.5c0 2.66699 0.833008 6.66699 2.5 12s2.5 9 2.5 11c0 6 -1 12 -3 18c8.66699 4.66699 16.667 7 24 7h7
c10.667 0 22.334 -7 35.001 -21s19 -26.333 19 -37z" />
    <glyph glyph-name="quotedbl" unicode="&#x22;" horiz-adv-x="292" 
d="M332 394c0 -8 -3.00098 -15.333 -9.00098 -22c-7.33301 -8.66699 -11.666 -15 -12.999 -19c-6.66699 -3.33301 -10.334 -7.33301 -11.001 -12c-12 -2.66699 -20 -8.33398 -24 -17.001c-2 -1.33301 -8.33301 -5 -19 -11c-7.33301 -4.66699 -13.666 -8 -18.999 -10
c-7.33301 -2.66699 -14.333 -4 -21 -4c-3.33301 0 -9 0.333008 -17 1h-18l42 53c16.667 23.333 25 43 25 59c0 5.33301 -2.5 13.5 -7.5 24.5s-7.5 19.833 -7.5 26.5c0 -2 1.33301 2.33301 4 13c20 -1.33301 40.833 -10.666 62.5 -27.999s32.5 -35.333 32.5 -54zM193.999 394
c0 -8 -3.00098 -15.333 -9.00098 -22c-7.33301 -8.66699 -11.666 -15 -12.999 -19c-6.66699 -3.33301 -10.334 -7.33301 -11.001 -12c-12 -2.66699 -20 -8.33398 -24 -17.001c-2 -1.33301 -8.33301 -5 -19 -11c-7.33301 -4.66699 -13.666 -8 -18.999 -10
c-7.33301 -2.66699 -14.333 -4 -21 -4c-3.33301 0 -9 0.333008 -17 1h-18l42 53c16.667 23.333 25 43 25 59c0 5.33301 -2.5 13.5 -7.5 24.5s-7.5 19.833 -7.5 26.5c0 -2 1.33301 2.33301 4 13c20 -1.33301 40.833 -10.666 62.5 -27.999s32.5 -35.333 32.5 -54z" />
    <glyph glyph-name="numbersign" unicode="#" horiz-adv-x="545" 
d="M508 260c0 -6 -3.32812 -12.335 -9.99512 -19.002c-0.666992 -0.666992 -30.667 -4 -90 -10c-6.66699 -12 -16.334 -30.333 -29.001 -55l9 1c10.667 0 24.334 -4.66699 41.001 -14s25 -18.666 25 -27.999c0 -6.66699 -3.33301 -12.667 -10 -18
c-1.33301 -1.33301 -39 -5.33301 -113 -12c-6 -12 -17 -28.333 -33 -49c-4.66699 -13.333 -13 -27.333 -25 -42l-33 -36l-25 2c0.666992 20.667 12.667 61.334 36 122.001c-12.667 0 -31.834 -0.5 -57.501 -1.5s-44.834 -1.83301 -57.501 -2.5c-4.66699 -10 -14 -24 -28 -42
c-4.66699 -13.333 -13 -27.333 -25 -42l-33 -36l-25 2c0.666992 19.333 12.667 60.333 36 123c-35.333 8.66699 -53 27 -53 55c0 0.666992 1 10 3 28c21.333 -12.667 35.333 -19 42 -19c4 0 10 0.333008 18 1h17l27 58c-36.667 8.66699 -55 27.667 -55 57
c0 0.666992 1 10 3 28c21.333 -12.667 35.333 -19 42 -19c18.667 0 33 0.333008 43 1l36 64c16.667 31.333 25 52.666 25 63.999v4c-6.66699 4 -10 8.33301 -10 13c0 8 4 12 12 12c6 0 15.167 -2.16699 27.5 -6.5s20.166 -8.16602 23.499 -11.499
s7.66602 -6.33301 12.999 -9c0.666992 -2 5.33398 -7 14.001 -15c4.66699 -5.33301 7 -12.666 7 -21.999c0 -13.333 -13.667 -43.333 -41 -90l86 3l34 61c16 29.333 24 49.666 24 60.999v4c-6.66699 4 -10 8.33301 -10 13c0 8 4 12 12 12c6 0 15.167 -2.16699 27.5 -6.5
s20.166 -8.16602 23.499 -11.499s7.66602 -6.33301 12.999 -9c0.666992 -2 5.33398 -7 14.001 -15c4.66699 -5.33301 7 -12.666 7 -21.999c0 -12.667 -13 -41.334 -39 -86.001c11.333 -2 23.666 -6.66699 36.999 -14c16 -8.66699 24 -17.334 24 -26.001zM305.005 226.998
l-90 -3c-2.66699 -6 -7.5 -14.833 -14.5 -26.5s-11.833 -20.5 -14.5 -26.5l95 3l12 26.5z" />
    <glyph glyph-name="dollar" unicode="$" horiz-adv-x="479" 
d="M444 344c0 -10 -5.66602 -15 -16.999 -15c-4.66699 0 -14.167 3.83301 -28.5 11.5s-27.5 11.5 -39.5 11.5c-2 0 -6.16699 1.16699 -12.5 3.5s-11.166 2.83301 -14.499 1.5c-1.33301 0.666992 -2.83301 -0.333008 -4.5 -3s-2.83398 -4 -3.50098 -4
c-8 0 -14.333 -0.333008 -19 -1c-8.66699 0 -21.334 -3.33301 -38.001 -10c-3.33301 0 -22 -6 -56 -18c70 -7.33301 108.333 -11.666 115 -12.999c30 -8 56.333 -27.667 79 -59c4.66699 -6.66699 7 -12 7 -16c0 -8 -7.66699 -17 -23 -27l-33 -21
c-4.66699 -4 -37.334 -24.333 -98.001 -61l-14 -11c-12.667 -10 -25.667 -18.333 -39 -25c-2.66699 -15.333 -7.33398 -32.333 -14.001 -51l-8 -10c-0.666992 -4.66699 -5.66699 -17 -15 -37c-4 -10.667 -13.667 -27.667 -29 -51
c-9.33301 -11.333 -23.666 -18.333 -42.999 -21v3c0 20 10 59.333 30 118c-30 -22.667 -56.667 -37 -80 -43c-7.33301 10.667 -14.333 18 -21 22l3 29c4 4.66699 6 7.33398 6 8.00098c40.667 38 92.667 75.667 156 113l69 39c26.667 16 48.334 31.333 65.001 46
c-41.333 0.666992 -103 3.33398 -185 8.00098c-12.667 1.33301 -23.667 11.333 -33 30c-8 16 -12 31 -12 45c0 8 2 14.667 6 20c8.66699 11.333 56 33.333 142 66c8.66699 53.333 20.667 94.666 36 123.999c12 -4 25 -11 39 -21c18 -12.667 27 -23.334 27 -32.001
c0 -6.66699 -4.33301 -21.667 -13 -45h15c20 0 36.667 -5.33301 50 -16c8.66699 -6.66699 19.667 -20.334 33 -41.001c10 -15.333 15 -31 15 -47z" />
    <glyph glyph-name="percent" unicode="%" horiz-adv-x="414" 
d="M160 354v-4.99805c-0.666992 -2.66699 -1 -4.66699 -1 -6c-4.66699 -2 -13 -9.33301 -25 -22c-9.33301 -10.667 -18.666 -16 -27.999 -16c-8.66699 0 -17.5 4.5 -26.5 13.5s-13.5 17.833 -13.5 26.5c0 5.33301 1.66699 13.333 5 24s4.66602 19.667 3.99902 27
c8 4 16.667 6 26 6c6 0 13.667 -1.66699 23 -5c13.333 -5.33301 21 -8.33301 23 -9c0.666992 -2.66699 3 -7.83398 7 -15.501s6 -13.834 6 -18.501zM341 386.002c0 -14 -10.9961 -39.333 -32.9961 -76c-9.33301 -19.333 -23.666 -43 -42.999 -71
c-2 -10 -7.33301 -22.333 -16 -37c-10.667 -16.667 -17.334 -28.667 -20.001 -36c-2.66699 -2 -8.33398 -10 -17.001 -24c-4.66699 -2 -9.33398 -10.667 -14.001 -26c-8 -4.66699 -16 -14 -24 -28c-8.66699 -16.667 -15.667 -27.334 -21 -32.001
c-4.66699 -13.333 -13 -27.333 -25 -42l-33 -36l-25 2c1.33301 33.333 23.333 97.666 66 192.999c35.333 80 66.666 142.667 93.999 188c16 26.667 24 46.667 24 60v4c-6.66699 2.66699 -10 7 -10 13c0 8 4 12 12 12c6 0 15.167 -2.16699 27.5 -6.5
s20.166 -8.16602 23.499 -11.499s7.66602 -6.33301 12.999 -9c0.666992 -2 5.33398 -7 14.001 -15c4.66699 -5.33301 7 -12.666 7 -21.999zM341.004 63.002c0 -6 -2.33301 -11.333 -7 -16c-2.66699 -11.333 -8.66699 -22.5 -18 -33.5s-19.333 -16.833 -30 -17.5l-6 -4
c-6.66699 -0.666992 -14.167 1.33301 -22.5 6l-23.5 13v9c0 29.333 11.333 58.333 34 87h18c10 0 17.667 -1.33301 23 -4c8 -4.66699 14.333 -7.66699 19 -9c8.66699 -12.667 13 -23 13 -31z" />
    <glyph glyph-name="ampersand" unicode="&#x26;" horiz-adv-x="662" 
d="M504 505c0 -2.66699 -10.833 -24.5 -32.5 -65.5s-34.167 -62.833 -37.5 -65.5c-18 -28.667 -29.667 -43 -35 -43c-6 0 -12.333 4 -19 12l28 64l36 96c1.33301 2.66699 3.33301 9 6 19c2 8 9 14.667 21 20c22 -16 33 -28.333 33 -37zM392 517
c0 -8 -2.83398 -28.167 -8.50098 -60.5s-9.83398 -50.5 -12.501 -54.5c-3.33301 -20 -10.666 -30 -21.999 -30c-4.66699 0 -10.334 2 -17.001 6v3c0.666992 8 0.333984 12.5 -0.999023 13.5s-2.66602 4.83301 -3.99902 11.5l-1 22c0 24.667 3.33301 44.667 10 60
c-1.33301 2 -2 9 -2 21v5c-0.666992 2.66699 -1 4.66699 -1 6c0 13.333 2.66699 22.333 8 27c34 -9.33301 51 -19.333 51 -30zM641.999 314c0 -10.667 -2.33105 -18.665 -6.99805 -23.998c0 -1.33301 -0.333008 -3.16602 -1 -5.49902s-1.33398 -4.16602 -2.00098 -5.49902
c-1.33301 -9.33301 -7 -23.333 -17 -42c-0.666992 -3.33301 -0.666992 -7 0 -11c-8 -6 -12 -12 -12 -18c-5.33301 -6.66699 -8.33301 -12 -9 -16c-8.66699 -12.667 -17.334 -21.667 -26.001 -27c-16.667 -20 -47 -47 -91 -81c-16.667 -12.667 -25 -29.334 -25 -50.001
c0 -27.333 3.33301 -48 10 -62c14.667 -31.333 35 -55.666 61 -72.999l-17 -4c-19.333 6.66699 -33.666 12 -42.999 16c-17.333 8.66699 -32.333 19.334 -45 32.001c-8 4.66699 -15.167 14.667 -21.5 30s-10.833 23.666 -13.5 24.999l-3 42c-2.66699 6.66699 -4 12 -4 16
c0 6 1.33301 14.333 4 25s4 18.667 4 24v9c8.66699 42 19.334 70.667 32.001 86c10 16 20 38.333 30 67c4.66699 4 14.667 19 30 45c4 3.33301 8.33301 9.16602 13 17.499s8.66699 14.166 12 17.499l12 12c0.666992 2.66699 6.66699 11.667 18 27c8 11.333 18.333 17 31 17
c7.33301 0 13.166 -0.333008 17.499 -1s15.166 -4.33398 32.499 -11.001s26.333 -11 27 -13c1.33301 -4.66699 2 -19.334 2 -44.001c0 -2.66699 0.333008 -6 1 -10v-10zM351.001 208.002c0 -12 -0.665039 -18.998 -1.99805 -20.998c-4 -28.667 -11 -71.667 -21 -129
c-5.33301 -24.667 -17.333 -45.334 -36 -62.001c-5.33301 28 -8 54.667 -8 80c0 12 0.333008 29.833 1 53.5s1 41.5 1 53.5c0 68.667 -6.33301 110 -19 124c-7.33301 8 -18.333 14.667 -33 20c-12.667 -16 -27 -38.667 -43 -68c-18 -32.667 -29 -57.334 -33 -74.001
c-2.66699 -11.333 -7 -20 -13 -26c-1.33301 -7.33301 -6.33301 -19 -15 -35l-12 -12c-2.66699 -14 -8 -23.667 -16 -29c-3.33301 -5.33301 -7.33301 -14 -12 -26l-14 -17c-4.66699 -7.33301 -10.667 -19.333 -18 -36l-5 -4c-2.66699 -6.66699 -8.33398 -10 -17.001 -10
c-6.66699 0 -11.667 0.333008 -15 1c-4 18.667 -6 32.334 -6 41.001c0 34.667 9 71 27 109c4 5.33301 9 13.666 15 24.999c2 6.66699 5.33301 16 10 28c6.66699 14.667 17 33 31 55l35 60c14.667 24.667 28.667 42.667 42 54c4.66699 4 8.66699 8.66699 12 14h6
c4 0 9.5 0.5 16.5 1.5s12.167 1.5 15.5 1.5c17.333 -8.66699 39.666 -23 66.999 -43c35.333 -18 54.333 -58.667 57 -122c1.33301 -2.66699 2 -5 2 -7zM590.003 351.004c-4 -0.666992 -10.833 -5.66797 -20.5 -15.001s-15 -16 -16 -20s-2.5 -9 -4.5 -15
c-4.66699 -8.66699 -12 -19.334 -22 -32.001c-8 -4 -13.167 -9.16699 -15.5 -15.5l-10.5 -29.5l-20 -52c48.667 40.667 80.667 83.334 96 128.001c4 8.66699 8 20.334 12 35.001z" />
    <glyph glyph-name="quotesingle" unicode="'" horiz-adv-x="221" 
d="M189 394c0 -8 -3 -15.332 -9 -21.999c-7.33301 -8.66699 -11.666 -15 -12.999 -19c-6.66699 -3.33301 -10.334 -7.33301 -11.001 -12c-11.333 -2.66699 -19.333 -8.33398 -24 -17.001c-31.333 -16.667 -51 -25 -59 -25c-3.33301 0 -9 0.333008 -17 1h-18l42 53
c16.667 23.333 25 43 25 59c0 5.33301 -2.5 13.5 -7.5 24.5s-7.5 19.833 -7.5 26.5c0 3.33301 1.33301 7.66602 4 12.999c19.333 -1.33301 40 -10.666 62 -27.999s33 -35.333 33 -54z" />
    <glyph glyph-name="parenleft" unicode="(" horiz-adv-x="330" 
d="M287 376c-6.66699 -3.33301 -10.335 -5.66699 -11.002 -7c-15.333 -22 -39.333 -54.333 -72 -97c0 -4 -3.66699 -10 -11 -18c-29.333 -51.333 -41.666 -123 -36.999 -215c0.666992 -9.33301 9.66699 -28 27 -56l9 -4c6.66699 -9.33301 10 -16.666 10 -21.999
c0 -10.667 -6.66699 -16 -20 -16c-6 0 -13.667 3.16699 -23 9.5s-15.666 10.166 -18.999 11.499c-12.667 16 -30 41 -52 75c-9.33301 18.667 -14 42.334 -14 71.001c0 48 12 102 36 162c22.667 56.667 47 98 73 124l4 4l24 30c14.667 18 25 26 31 24
c41.333 -12.667 62 -29.334 62 -50.001c0 -10 -5.66699 -18.667 -17 -26z" />
    <glyph glyph-name="parenright" unicode=")" horiz-adv-x="326" 
d="M276 317c-3.33301 -5.33301 -5.33008 -10.667 -5.99707 -16c-2 -12.667 -3.66699 -25 -5 -37c-2.66699 -14 -7.33398 -25.667 -14.001 -35v-7c-6 -6.66699 -13.667 -19.167 -23 -37.5s-18.333 -30.833 -27 -37.5l-31 -36l-42 -48
c-18.667 -21.333 -33.334 -35.333 -44.001 -42l-2 -8c-12 -4.66699 -23.667 -9.66699 -35 -15c-4 -0.666992 -19 -0.333984 -45 0.999023c4 6.66699 10.333 16.667 19 30l14 23h2l91 135c41.333 62.667 63.666 108 66.999 136c2 5.33301 3 13.333 3 24
c0 30 -5 53.667 -15 71c-6 10 -10 20 -12 30c12 1.33301 25.5 -2 40.5 -10s24.833 -16 29.5 -24c11.333 -10 19.333 -25 24 -45c4 -17.333 7.66699 -34.666 11 -51.999z" />
    <glyph glyph-name="asterisk" unicode="*" horiz-adv-x="292" 
d="M277 416c0 -4.66699 -3.00293 -9.33301 -9.00293 -14c-2 -1.33301 -20 -4 -54 -8c17.333 -24.667 26 -41.667 26 -51c0 -8.66699 -6.33301 -12.667 -19 -12c-6 0.666992 -19.333 10.667 -40 30c-5.33301 -33.333 -16 -49.666 -32 -48.999
c-9.33301 0.666992 -14.333 7.66699 -15 21c0 -2 1 8 3 30c-11.333 -10.667 -24 -21.334 -38 -32.001c-14.667 -1.33301 -22 4 -22 16c0 5.33301 1.83301 11.166 5.5 17.499s8.83398 12.833 15.501 19.5l9 9c-10.667 2 -22 4.5 -34 7.5s-19.333 8.83301 -22 17.5
c-2.66699 10 4 16.667 20 20c10.667 2 22.667 2.66699 36 2c-14.667 14.667 -22 27.667 -22 39c0 13.333 5.33301 20 16 20c4.66699 0 10 -3.33301 16 -10c6.66699 -9.33301 10.667 -14.333 12 -15l9 -6c2.66699 36 10.334 54 23.001 54c4.66699 0 9.66699 -2.66699 15 -8
c0.666992 -0.666992 3.66699 -16.334 9 -47.001c2.66699 4.66699 7 11.334 13 20.001c10.667 13.333 20.334 16.333 29.001 9c4.66699 -3.33301 7 -8.66602 7 -15.999c0 -12 -5.66699 -25.333 -17 -40c40 -4.66699 60 -12.667 60 -24z" />
    <glyph glyph-name="plus" unicode="+" horiz-adv-x="384" 
d="M312 214c0 -4 -0.99707 -7.66699 -2.99707 -11c-8.66699 -16.667 -30 -26.334 -64 -29.001l-57 -4l-28 -42c-0.666992 -3.33301 -2.66699 -8.33301 -6 -15c-2.66699 -2 -7.33398 -9 -14.001 -21s-12.667 -18 -18 -18c-9.33301 0 -17.333 4.16699 -24 12.5
s-10 17.166 -10 26.499c0 8.66699 2 19.334 6 32.001l10 31c-28.667 8.66699 -44.667 24.667 -48 48c12 6 36.333 9 73 9c2.66699 4 21.667 28.333 57 73c32.667 -3.33301 49 -14 49 -32l-3 -15c-6 -3.33301 -12 -12.666 -18 -27.999c11.333 -2 22.666 -3 33.999 -3
c5.33301 0 13.166 1.16699 23.499 3.5s17.833 3.5 22.5 3.5c4 0 8 -2.5 12 -7.5s6 -9.5 6 -13.5z" />
    <glyph glyph-name="comma" unicode="," horiz-adv-x="291" 
d="M178 2c0 -8 -3 -15.332 -9 -21.999c-7.33301 -8.66699 -11.666 -15 -12.999 -19c-6.66699 -3.33301 -10.334 -7.33301 -11.001 -12c-11.333 -2.66699 -19.333 -8.33398 -24 -17.001c-31.333 -16.667 -51 -25 -59 -25h-17c-8 0.666992 -14 1 -18 1l42 53
c16.667 23.333 25 43 25 59c0 5.33301 -2.5 13.5 -7.5 24.5s-7.5 19.833 -7.5 26.5c0 3.33301 1.33301 7.66602 4 12.999c19.333 -1.33301 40 -10.666 62 -27.999s33 -35.333 33 -54z" />
    <glyph glyph-name="hyphenminus" unicode="-" horiz-adv-x="347" 
d="M302 203c0 -5.33301 -2.83301 -10 -8.5 -14s-26.834 -7.66699 -63.501 -11c-32.667 -3.33301 -54.667 -5 -66 -5c-60.667 0 -91 16 -91 48c0 4.66699 1 12 3 22c20.667 -10 34.667 -15 42 -15c11.333 0 30.5 1.33301 57.5 4s45.833 4 56.5 4s24.334 -3.33301 41.001 -10
c19.333 -8 29 -15.667 29 -23z" />
    <glyph glyph-name="hyphenminus" unicode="&#x2010;" horiz-adv-x="347" 
d="M302 203c0 -5.33301 -2.83301 -10 -8.5 -14s-26.834 -7.66699 -63.501 -11c-32.667 -3.33301 -54.667 -5 -66 -5c-60.667 0 -91 16 -91 48c0 4.66699 1 12 3 22c20.667 -10 34.667 -15 42 -15c11.333 0 30.5 1.33301 57.5 4s45.833 4 56.5 4s24.334 -3.33301 41.001 -10
c19.333 -8 29 -15.667 29 -23z" />
    <glyph glyph-name="period" unicode="." horiz-adv-x="239" 
d="M138 20c-4.66699 -1.33301 -11.333 -5.83301 -20 -13.5s-17.667 -11.5 -27 -11.5c-6 0 -16.667 2.33301 -32 7c-5.33301 8 -12 23.333 -20 46l15 4c6 4.66699 14.333 12 25 22c24 -4 38 -7 42 -9c11.333 -6 17 -18.333 17 -37v-8z" />
    <glyph glyph-name="slash" unicode="/" horiz-adv-x="355" 
d="M315 411c0 -4 -5.66602 -14.6641 -16.999 -31.9971c0 -12.667 -12.333 -38.334 -37 -77.001c-6 -12 -16.333 -30.333 -31 -55c-5.33301 -13.333 -14.333 -33 -27 -59c-6.66699 -8.66699 -15.667 -22.334 -27 -41.001c-2.66699 -7.33301 -8.33398 -18 -17.001 -32
c-5.33301 -6.66699 -11.333 -18 -18 -34c-9.33301 -22 -23 -46.333 -41 -73c-7.33301 -11.333 -17 -17 -29 -17c2.66699 0 -6 3.33301 -26 10c0.666992 18 10.334 51 29.001 99c19.333 50.667 44.666 109.667 75.999 177c40 85.333 69.667 138.666 89 159.999
c9.33301 10 20.333 15 33 15c8.66699 0 18 -4.83301 28 -14.5s15 -18.5 15 -26.5z" />
    <glyph glyph-name="zero" unicode="0" horiz-adv-x="423" 
d="M408 350c0 -20 -5.00195 -34.3369 -15.002 -43.0039c1.33301 -9.33301 -7.66699 -27.666 -27 -54.999s-29.333 -46.666 -30 -57.999c-26.667 -29.333 -41.667 -51.666 -45 -66.999c-12 -10 -17.667 -17.667 -17 -23l-53 -50c-3.33301 -8 -14.333 -17.667 -33 -29
c-16 -10 -29.333 -16.667 -40 -20l-4 1c-13.333 -8.66699 -24.333 -13 -33 -13c-29.333 0 -57.666 20 -84.999 60c-7.33301 10.667 -11 28.334 -11 53.001c0 7.33301 1.33301 13.333 4 18c0 38.667 13 84.667 39 138c3.33301 7.33301 22.833 37.5 58.5 90.5
s72.5 77.5 110.5 73.5l5 4c4 1.33301 15.667 7 35 17c12.667 6.66699 25.667 10 39 10c18 0 34 -6 48 -18c22.667 -20 35.334 -30.667 38.001 -32l14 -19c0 -4 0.333008 -10.167 1 -18.5s1 -14.833 1 -19.5zM330.998 359.996c0 0.666992 -3.00098 8.33105 -9.00098 22.998
c-2.66699 2 -5 5 -7 9c-21.333 -10 -53 -32.333 -95 -67c-46.667 -40 -70 -67.667 -70 -83c0 -6 -2.33301 -12.5 -7 -19.5s-7 -11.167 -7 -12.5c0 -5.33301 -2.33301 -10.666 -7 -15.999s-9.66699 -8 -15 -8c-4.66699 -4 -9.16699 -10.833 -13.5 -20.5
s-6.16602 -17.167 -5.49902 -22.5c-4.66699 -20 -7 -37.333 -7 -52c0 -2.66699 0.333008 -7.16699 1 -13.5s1 -11.166 1 -14.499l1 -1c7.33301 0 17 3.83301 29 11.5s18.333 15.167 19 22.5c8 5.33301 20.167 17.5 36.5 36.5s25.833 32.833 28.5 41.5
c4.66699 0.666992 8.66699 3.5 12 8.5s6.33301 9.83301 9 14.5c13.333 18.667 34.333 46 63 82l5 18c6 4 13.833 14 23.5 30s14.5 27 14.5 33z" />
    <glyph glyph-name="one" unicode="1" horiz-adv-x="423" 
d="M407 435c-4.66699 -5.33301 -6.66504 -10.999 -5.99805 -16.999c-4.66699 -4 -10.5 -11.333 -17.5 -22s-12.5 -18.667 -16.5 -24s-8 -11.333 -12 -18s-5.33301 -13 -4 -19c-12 -16.667 -26.667 -48 -44 -94c-6 -16 -12 -28 -18 -36l-15 -30
c-2 -4.66699 -5.66699 -12.334 -11 -23.001c-2.66699 -3.33301 -6 -8.33301 -10 -15c-1.33301 -3.33301 -3.66602 -8.33301 -6.99902 -15c-7.33301 -16 -21.333 -38.667 -42 -68l-9 -9c-23.333 -38.667 -43 -63 -59 -73l-44 -27c-3.33301 12 -5 23.667 -5 35c0 8 1 16 3 24
c6.66699 4 11.5 9.5 14.5 16.5s6.16699 13.833 9.5 20.5l20.5 34.5c7 11.667 11.833 23.834 14.5 36.501c8.66699 4 21.667 21.333 39 52c15.333 26 25.666 46.333 30.999 61c-37.333 -32 -65 -56.333 -83 -73c-8.66699 -2 -21.167 -7.83301 -37.5 -17.5
s-31.166 -14.5 -44.499 -14.5c-6.66699 0 -19.334 2.33301 -38.001 7c6 16.667 11.667 27.667 17 33l28 22c35.333 28 75 64 119 108c51.333 51.333 85.666 91.333 102.999 120c7.33301 14 21.666 34.667 42.999 62c15.333 -1.33301 31 -3 47 -5
c10 -2.66699 21.333 -13.334 34 -32.001z" />
    <glyph glyph-name="two" unicode="2" horiz-adv-x="423" 
d="M444 377c0 -6 -2.00098 -13.6689 -6.00098 -23.002c-2 -3.33301 -11.5 -12.833 -28.5 -28.5s-27.167 -24.167 -30.5 -25.5c-2.66699 -5.33301 -8.83398 -10.5 -18.501 -15.5s-15 -9 -16 -12s-5.5 -8.16699 -13.5 -15.5c-14.667 -16 -34.334 -36 -59.001 -60
c-2.66699 0 -6.66699 -1.33301 -12 -4c-0.666992 -0.666992 -5.16699 -4 -13.5 -10s-11.833 -9.33301 -10.5 -10c-11.333 -11.333 -31.666 -27.666 -60.999 -48.999c10.667 1.33301 31.334 2 62.001 2c47.333 0 74.666 -5 81.999 -15c2.66699 -4 4 -8 4 -12
c0 -20.667 -20.333 -34 -61 -40c-18.667 -0.666992 -44 -2.66699 -76 -6c-6.66699 -2 -16.667 -4.33301 -30 -7l-60 -8c-23.333 -4 -42 -10.333 -56 -19c-7.33301 -3.33301 -18.333 -9.33301 -33 -18c-12 -12 -24 -18 -36 -18c-5.33301 0 -14 12.667 -26 38
c-9.33301 18 -16 33.333 -20 46c19.333 3.33301 35 10 47 20c8 6.66699 16 12.334 24 17.001c17.333 14.667 44.333 35.667 81 63c10 6.66699 21 15 33 25c8.66699 4 19.334 9.66699 32.001 17c4.66699 2 10.334 6.66699 17.001 14c26 8.66699 53 25.667 81 51l70 67
c8 10 20.667 24.667 38 44c-8.66699 0.666992 -22 1 -40 1c-20 0 -43.667 -6.33301 -71 -19s-48.666 -26.667 -63.999 -42c-28 -28 -44.667 -47.667 -50 -59c-4.66699 -14 -12.667 -21 -24 -21c-8 0 -16.833 3 -26.5 9s-14.5 12.667 -14.5 20c0 11.333 12 31.333 36 60
c28.667 34 61 62 97 84c41.333 26 81.666 39 120.999 39c26 0 53 -6.66699 81 -20c34 -16.667 51 -36.667 51 -60z" />
    <glyph glyph-name="three" unicode="3" horiz-adv-x="423" 
d="M369 384c0 -32 -24.3359 -62.999 -73.0029 -92.999c28 -16 45 -31 51 -45c1.33301 -4.66699 4 -26.667 8 -66c-3.33301 -5.33301 -5 -10 -5 -14c-6.66699 -6.66699 -14.667 -18.5 -24 -35.5s-18.333 -28.833 -27 -35.5c-4.66699 -2 -11 -5.33301 -19 -10
c-8 -6.66699 -20.333 -16 -37 -28c-17.333 -7.33301 -43 -20.666 -77 -39.999c-8.66699 -2.66699 -19.334 -7 -32.001 -13h-6c-26 -14 -57.667 -21.667 -95 -23c-6 4.66699 -16.333 8.33398 -31 11.001l-6 8c-4 2 -14.667 10.333 -32 25c28.667 10.667 71 28 127 52
c4.66699 6.66699 13 13 25 19c16.667 9.33301 25.667 14.333 27 15l6 -3c4.66699 1.33301 15.667 7.33301 33 18c20.667 12 40.667 27.333 60 46c24.667 24 38.667 44.333 42 61c-4.66699 4 -16.667 8.66699 -36 14c-2 0 -4.66699 0.333008 -8 1s-5.66602 1 -6.99902 1
c-13.333 0 -29.666 -4.33301 -48.999 -13c-22.667 -10 -38 -15.667 -46 -17l-5 -5c-10 -2.66699 -25.333 -7.33398 -46 -14.001c-14 22 -23 46.333 -27 73c14.667 8 37 17.667 67 29l17 13c69.333 17.333 114 37.666 134 60.999
c4.66699 5.33301 10.334 12.666 17.001 21.999c-10.667 2 -21.667 3 -33 3c-46 0 -87.667 -15.667 -125 -47l-28 3c-4 20 -11.333 43.667 -22 71h24c20 0 35.333 3.33301 46 10c2.66699 0 7.33398 1.16699 14.001 3.5s12 3.5 16 3.5c22 2 44.667 3 68 3
c35.333 0 64 -5.33301 86 -16c5.33301 -2.66699 10.833 -8.5 16.5 -17.5s9.16699 -16.5 10.5 -22.5c0.666992 -2 1 -4.66699 1 -8z" />
    <glyph glyph-name="four" unicode="4" horiz-adv-x="423" 
d="M371 189c-30 -14.667 -58.332 -21.3311 -84.999 -19.998l-15 -4c-2 -2 -4.33301 -5.16699 -7 -9.5l-13 -21.5c-3.33301 -4.66699 -7.83301 -12 -13.5 -22s-15.5 -25.667 -29.5 -47c-2 -10.667 -8 -23.334 -18 -38.001c-6.66699 -6 -20.667 -16.667 -42 -32
c-16 -5.33301 -31.667 -8 -47 -8c8.66699 18.667 12 31 10 37c3.33301 10.667 21.666 55.334 54.999 134.001c-22 -5.33301 -43.667 -10.333 -65 -15c-10.667 -4 -31.667 -17 -63 -39c-12.667 15.333 -23 33.666 -31 54.999l2 27c24.667 22 62 63.333 112 124
c52.667 63.333 85.334 107.666 98.001 132.999c8.66699 18 21 27 37 27c11.333 0 21.833 -4 31.5 -12s14.5 -17.667 14.5 -29c0 -10.667 -5 -24 -15 -40c-14.667 -25.333 -22.334 -38.333 -23.001 -39h-6c-5.33301 -13.333 -14.333 -27.666 -27 -42.999l-33 -40
c-4 -6.66699 -11 -17 -21 -31c-2 -3.33301 -6 -8 -12 -14c17.333 4 30.333 6.33301 39 7c20.667 26 50 65.667 88 119c40.667 0 61 -13 61 -39c0 -5.33301 -0.333008 -9 -1 -11c-11.333 -8.66699 -17 -18 -17 -28c-6.66699 -6.66699 -13.667 -17.334 -21 -32.001
c28.667 -4 47.667 -20.333 57 -49z" />
    <glyph glyph-name="five" unicode="5" horiz-adv-x="423" 
d="M405 409l-21.002 -17.999c-5.33301 0 -9.33301 -1.33301 -12 -4c-2.66699 0 -9.66699 -0.666992 -21 -2c-8.66699 -1.33301 -16 -2 -22 -2c-8.66699 0 -21.834 0.666992 -39.501 2s-30.834 2 -39.501 2h-7c-4.66699 -5.33301 -11 -13.666 -19 -24.999
c-0.666992 -0.666992 -7.33398 -9.33398 -20.001 -26.001c20 2.66699 34.667 4 44 4c24.667 0 56.334 -10.667 95.001 -32c0.666992 -2 5.33398 -9 14.001 -21c6.66699 -8.66699 10 -18.667 10 -30c0 -4 -1.66699 -16 -5 -36c-4 -6.66699 -11 -17.334 -21 -32.001l1 -7
c-9.33301 -4.66699 -15.333 -8 -18 -10s-6.66699 -6.66699 -12 -14c-14.667 -20 -30 -34.333 -46 -43c-0.666992 -0.666992 -2.16699 -2 -4.5 -4s-4.16602 -3.66699 -5.49902 -5l-5 -8c-5.33301 -0.666992 -9.66602 -2.33398 -12.999 -5.00098
c-6.66699 -5.33301 -10.667 -8.33301 -12 -9l-3 -14c-8.66699 -1.33301 -19.334 -6 -32.001 -14l-50 -31c-4.66699 -1.33301 -15.167 -6.66602 -31.5 -15.999s-25.833 -15.666 -28.5 -18.999c-6.66699 0 -25 -8 -55 -24c-19.333 -0.666992 -31.333 1.33301 -36 6
c-10.667 4 -21.667 11.333 -33 22c22 14 53 37 93 69c10 10 22 15 36 15l3 9c8 4 18 12.333 30 25c21.333 18.667 43.333 34.667 66 48l17 6l1 9c8.66699 8 21.334 20.333 38.001 37c12.667 11.333 29.334 29.666 50.001 54.999c-14 4 -28.667 6 -44 6
c-46.667 0 -102 -28.667 -166 -86c-6 18 -16 42.667 -30 74c15.333 26 48.666 72 99.999 138c0 10 2 24.333 6 43c24 -2.66699 33.333 -4 28 -4c16 0 39.833 2.33301 71.5 7s55.834 7 72.501 7h33c13.333 -8 22 -13.667 26 -17c5.33301 -5.33301 11 -14 17 -26z" />
    <glyph glyph-name="six" unicode="6" horiz-adv-x="423" 
d="M364 271c0 -12 -4.99902 -28.666 -14.999 -49.999c-1.33301 -0.666992 -10.333 -15 -27 -43l-84 -114c-17.333 -24 -33 -41 -47 -51c-16 -11.333 -37.667 -19.333 -65 -24c-28 12 -51.333 28.667 -70 50c-20.667 24 -31 49.667 -31 77c0 12.667 4.33301 29.334 13 50.001
c13.333 32.667 26.333 58.667 39 78c29.333 46 57.666 82.333 84.999 109l57 61c22 24 42.667 42.333 62 55l27 -5c8.66699 -4.66699 17 -9.5 25 -14.5s12 -14.833 12 -29.5c0 -10.667 -3.66699 -18.334 -11 -23.001c-1.33301 0 -10 -2.66699 -26 -8l-8 2
c-14 -11.333 -24 -22.333 -30 -33c-4.66699 -2.66699 -20.667 -21.334 -48 -56.001c15.333 10.667 36 16 62 16c53.333 0 80 -15.667 80 -47zM289.001 254.001c0 1.33301 -0.666992 3.33301 -2 6c-6.66699 -0.666992 -15 -3 -25 -7l-50.5 -17
c-17 -6 -31.5 -16.667 -43.5 -32c-16.667 -22 -27 -33 -31 -33c-3.33301 0 -8.66602 2.66699 -15.999 8c-5.33301 -14 -14.333 -35 -27 -63c0 -4 0.833008 -9 2.5 -15s2.5 -10.333 2.5 -13c3.33301 -24 11.666 -36 24.999 -36c6 0 13.5 3.5 22.5 10.5
s14.833 11.167 17.5 12.5c4.66699 8.66699 12 21 22 37l59 70c29.333 36 44 60 44 72z" />
    <glyph glyph-name="seven" unicode="7" horiz-adv-x="423" 
d="M434 359c-18 16 -31.0049 23.998 -39.0049 23.998c-18 0 -40.667 -14.333 -68 -43l-60 -63c-3.33301 -7.33301 -9.33301 -16 -18 -26c40.667 4.66699 75.667 7 105 7c19.333 0 29 -11 29 -33v-3c-4.66699 -1.33301 -11 -3.33301 -19 -6l-2 -5l-18 -2
c-10 -0.666992 -23 -4 -39 -10c-3.33301 0 -8.16602 -0.666992 -14.499 -2s-10.833 -2 -13.5 -2c-13.333 -1.33301 -40.666 -7 -81.999 -17c0.666992 -2.66699 -3.16602 -10.834 -11.499 -24.501s-12.5 -22.167 -12.5 -25.5c0 -12 -12.333 -45 -37 -99
c-2 -32 -10.667 -48 -26 -48h-11l-19 23c-6.66699 8 -10 16 -10 24c0 4.66699 5 25 15 61c6.66699 22.667 13 45.334 19 68.001h-14c-12 0 -21.667 5.33301 -29 16s-11 22.334 -11 35.001v4h12c4.66699 -0.666992 8.33398 -1 11.001 -1c8.66699 0 20.167 3.16699 34.5 9.5
s24.833 10.166 31.5 11.499c8.66699 10.667 20.334 27.334 35.001 50.001c8 8 19.333 20.333 34 37c3.33301 6.66699 8.66602 16.667 15.999 30l-7 2c-6 -3.33301 -13.667 -5 -23 -5c-16 0 -34.167 5 -54.5 15s-34.5 21.667 -42.5 35c-4.66699 4 -8 15.333 -10 34
c10.667 2.66699 18.334 4 23.001 4c11.333 0 23.666 -1.66699 36.999 -5l12 -12c4.66699 4.66699 10.334 9.33398 17.001 14.001h37c36 0 67.333 3.66699 94 11c4 0.666992 9 2 15 4c7.33301 6 20 12.333 38 19l33 -16c6.66699 -6.66699 15.667 -18 27 -34
c4.66699 -10 10 -28.667 16 -56z" />
    <glyph glyph-name="eight" unicode="8" horiz-adv-x="423" 
d="M387 374l-13 -3.99805c-0.666992 -2 -2.33398 -5.33301 -5.00098 -10c-6 -10.667 -15.667 -21.334 -29 -32.001c-19.333 -16 -30.666 -25.667 -33.999 -29c-11.333 -12 -29 -29.667 -53 -53c1.33301 -0.666992 3.16602 -1.83398 5.49902 -3.50098
s3.83301 -3.16699 4.5 -4.5c22 -15.333 36.333 -33.666 43 -54.999c4.66699 -14.667 7.33398 -38.334 8.00098 -71.001c-6 -12 -16.333 -28.333 -31 -49c-4 -3.33301 -9.66699 -8.66602 -17 -15.999c-10 -11.333 -20 -19.333 -30 -24l-32 -16
c-4 -2.66699 -6.66699 -6 -8 -10c-32 -8 -56 -12 -72 -12c-4 0 -18.833 3 -44.5 9s-50.167 35.667 -73.5 89c4.66699 33.333 23 66.333 55 99c8.66699 8.66699 38 33.667 88 75c-30.667 30.667 -46 60 -46 88c0 14 5.83301 28 17.5 42s24.167 21 37.5 21
c1.33301 0 3.5 -1.16699 6.5 -3.5s4.83301 -3.5 5.5 -3.5c3.33301 9.33301 11.333 21 24 35c3.33301 1.33301 10 3.66602 20 6.99902c14 4 33.667 11.333 59 22l44 -10c12.667 -4 25.334 -12 38.001 -24c3.33301 -3.33301 7.66602 -8.33301 12.999 -15
c2 -3.33301 8.33301 -17.333 19 -42zM298 391.002c-0.666992 2 -1.33203 2.99805 -1.99902 2.99805l-2 -1c-39.333 2.66699 -64.333 -0.333008 -75 -9h-6c-2.66699 -0.666992 -5 -1 -7 -1c-8 0 -20 1.33301 -36 4c0 -5.33301 -0.666992 -13.666 -2 -24.999
c-0.666992 -3.33301 -2 -8.66602 -4 -15.999c7.33301 -23.333 16.666 -39.333 27.999 -48c6.66699 5.33301 12 9 16 11c16.667 16.667 41 37.667 73 63c11.333 8.66699 17 15 17 19zM236.002 160c0 15.333 -9.66992 31.3301 -29.0029 47.9971
c-5.33301 -5.33301 -13.666 -13.166 -24.999 -23.499s-19.666 -18.166 -24.999 -23.499c-11.333 -9.33301 -27.666 -24.333 -48.999 -45c-2 -2 -9.33301 -14 -22 -36c6 -7.33301 14.333 -11 25 -11c8 0 25.667 5.33301 53 16c16.667 6.66699 32 16.334 46 29.001
c17.333 16 26 31.333 26 46z" />
    <glyph glyph-name="nine" unicode="9" horiz-adv-x="423" 
d="M373 350c0 -16.667 -2 -29.668 -6 -39.001l1 -8c-7.33301 -10.667 -13 -21.667 -17 -33c-9.33301 -21.333 -26 -48 -50 -80c-2.66699 -3.33301 -7.33398 -8.33301 -14.001 -15c-11.333 -12.667 -24 -32.334 -38 -59.001c-16 -30 -28 -50 -36 -60l-8 -3
c-5.33301 -5.33301 -11 -14.333 -17 -27c-20.667 -31.333 -51.667 -59 -93 -83c2.66699 28 8.5 52.5 17.5 73.5l28.5 64.5c2.66699 7.33301 7.33398 18.333 14.001 33c3.33301 4 7.66602 10 12.999 18h-14c-23.333 0 -44.333 10.5 -63 31.5s-28 43.5 -28 67.5
c0 21.333 6.33301 43.333 19 66l36 60c19.333 36 49.333 68 90 96c5.33301 0.666992 8 1.33398 8 2.00098c0 1.33301 -1.16699 3.33301 -3.5 6s-3.16602 5 -2.49902 7v5l49 -12c1.33301 -1.33301 9.33301 -4.16602 24 -8.49902s29.667 -13.166 45 -26.499
c25.333 -22.667 38.333 -34.334 39 -35.001c0 -5.33301 1.66699 -10.333 5 -15c0.666992 -6 1 -14.667 1 -26zM296 361.999l-0.00195312 5c0 16.667 -5.66699 25 -17 25c-3.33301 0 -9 -4 -17 -12c-5.33301 3.33301 -15.666 8 -30.999 14
c-15.333 -18 -26.333 -31.333 -33 -40c-13.333 -17.333 -22 -31.333 -26 -42l-24 -50c-10 -21.333 -15 -38.666 -15 -51.999c0 -9.33301 1 -12 3 -8c40.667 -2.66699 72.334 11.333 95.001 42c4 5.33301 15.667 25.166 35 59.499s29.333 53.833 30 58.5z" />
    <glyph glyph-name="colon" unicode=":" horiz-adv-x="255" 
d="M193 284c-1.33301 -3.33301 -4.33301 -9 -9 -17c0.666992 -2.66699 1 -6 1 -10v-7c-0.666992 -3.33301 -1 -6 -1 -8l-3 -10c-9.33301 -0.666992 -23 -1 -41 -1c-10.667 0 -19.667 6.33301 -27 19c-4 6.66699 -9 13.667 -15 21c1.33301 14 6.33301 26 15 36l26 30
c13.333 -4.66699 26.333 -9.66699 39 -15c8 -5.33301 13 -18 15 -38zM161 102c0 -3.33301 -3.33496 -10.667 -10.002 -22c3.33301 -8 5 -13 5 -15c0 -10 -10.667 -15 -32 -15c0.666992 0 -2.16602 -1.5 -8.49902 -4.5s-12.5 -4.5 -18.5 -4.5c-2 2 -15.333 18 -40 48
c0.666992 10 6.33398 21.333 17.001 34c8 10.667 16.333 21 25 31c41.333 -22 62 -39.333 62 -52z" />
    <glyph glyph-name="semicolon" unicode=";" horiz-adv-x="259" 
d="M176 283c-1.33301 -3.33301 -4.33398 -9.33301 -9.00098 -18c1.33301 -5.33301 2 -9 2 -11s-0.833008 -4.5 -2.5 -7.5s-2.5 -5.16699 -2.5 -6.5c-18 -8 -31.333 -12 -40 -12c-9.33301 0 -17.166 4.66699 -23.499 14s-12.166 18.333 -17.499 27
c1.33301 15.333 6.16602 27.833 14.499 37.5l25.5 29.5l39 -14c7.33301 -5.33301 12 -18.333 14 -39zM158.999 8c0 -8 -3.33398 -16.168 -10.001 -24.501s-10.667 -14.833 -12 -19.5c-6.66699 -3.33301 -10.334 -7.33301 -11.001 -12c-12 -4 -20 -10.333 -24 -19
c-9.33301 -5.33301 -18.666 -11 -27.999 -17c-11.333 -6 -21.666 -9 -30.999 -9h-17c-8 0.666992 -14 1 -18 1l42 57c16.667 24.667 25 45.667 25 63c0 5.33301 -2.5 13.833 -7.5 25.5s-7.5 21.167 -7.5 28.5c0 -1.33301 1.33301 3.33398 4 14.001
c20.667 -1.33301 41.667 -11.5 63 -30.5s32 -38.167 32 -57.5z" />
    <glyph glyph-name="less" unicode="&#x3c;" horiz-adv-x="398" 
d="M389 332c-26.667 -40 -45.665 -59.999 -56.998 -59.999c-27.333 0 -66.666 -5.66699 -117.999 -17c-56.667 -13.333 -93 -26.333 -109 -39l77 -26c34.667 -12 58.667 -23 72 -33c2 0.666992 5 1 9 1c5.33301 0 11.333 -2 18 -6
c12.667 -3.33301 30.334 -9.33301 53.001 -18c2 -1.33301 6 -4.66602 12 -9.99902c24.667 -23.333 35 -44.666 31 -63.999l-2 -10c-2.66699 -2.66699 -5 -5.33398 -7 -8.00098s-6.33301 -4 -13 -4c-2.66699 0 -15.834 5.66699 -39.501 17s-37.5 18.333 -41.5 21
c-16.667 4 -46.334 14.333 -89.001 31s-70 29 -82 37c-2 1.33301 -8 3.66602 -18 6.99902c-14.667 4.66699 -28.334 11 -41.001 19c-0.666992 1.33301 -2.16699 3 -4.5 5s-4.16602 3.33301 -5.49902 4c-16 9.33301 -24 18.333 -24 27c0 13.333 9.33301 26.666 28 39.999
c51.333 36.667 102.666 61.167 153.999 73.5s96.666 18.5 135.999 18.5c20.667 0 41 -2 61 -6z" />
    <glyph glyph-name="equal" unicode="=" horiz-adv-x="332" 
d="M279 257c0 -6.66699 -2.83301 -11.999 -8.5 -15.999s-26.167 -8.33301 -61.5 -13c-31.333 -4 -52.333 -6 -63 -6c-60.667 0 -91 18.667 -91 56c0 6 1 14.667 3 26c22 -11.333 36 -17 42 -17c11.333 0 29.666 1.33301 54.999 4s43.333 4 54 4s24.334 -4 41.001 -12
c19.333 -8.66699 29 -17.334 29 -26.001zM279 150.001c0 -6 -2.83301 -11.167 -8.5 -15.5s-26.167 -8.83301 -61.5 -13.5c-30.667 -3.33301 -51.667 -5 -63 -5c-60.667 0 -91 18.667 -91 56c0 5.33301 1 14 3 26c21.333 -12 35.333 -18 42 -18
c11.333 0 29.666 1.5 54.999 4.5s43.333 4.5 54 4.5s24.334 -4 41.001 -12c19.333 -8.66699 29 -17.667 29 -27z" />
    <glyph glyph-name="greater" unicode="&#x3e;" horiz-adv-x="398" 
d="M388 206c0 -8 -7.66504 -17.0029 -22.998 -27.0029c-2 -2 -5.66699 -5 -11 -9c-12 -7.33301 -25.667 -13.666 -41 -18.999c-4 -0.666992 -10 -3 -18 -7c-12 -8 -39.333 -20.5 -82 -37.5s-72.334 -27.167 -89.001 -30.5c-4 -2.66699 -17.833 -9.66699 -41.5 -21
s-36.834 -17 -39.501 -17c-6.66699 0 -11 1.33301 -13 4s-4.33301 5.33398 -7 8.00098l-1 10c-4 20 6 41.333 30 64c2.66699 2.66699 6.66699 6 12 10c12 3.33301 29.667 9.33301 53 18c9.33301 4 15.333 6 18 6c4 0 7 -0.333008 9 -1c13.333 10 37.333 21 72 33l77 26
c-16 12.667 -52.333 25.667 -109 39c-51.333 11.333 -90.666 17 -117.999 17c-8 0 -27 20 -57 60c21.333 4 41.666 6 60.999 6c38.667 0 84 -6.33301 136 -19s103.333 -37 154 -73c18.667 -13.333 28 -26.666 28 -39.999z" />
    <glyph glyph-name="question" unicode="?" horiz-adv-x="406" 
d="M415 443c-16.667 -14.667 -36.3311 -35.0029 -58.998 -61.0029c-10.667 -4.66699 -23.334 -18.667 -38.001 -42s-26.334 -37.666 -35.001 -42.999c-4.66699 -6 -14.334 -23 -29.001 -51c-8 -2.66699 -15 -12 -21 -28l-17 -14c-2 -6 -14.333 -24 -37 -54l-12 -17.5
c-4 -5.66699 -9.66699 -9.5 -17 -11.5c-14.667 10 -22 19.667 -22 29c0 20.667 24.667 70.667 74 150c34.667 56 68 105.667 100 149c-5.33301 1.33301 -9.66602 2 -12.999 2c-20 0 -39.667 -9.5 -59 -28.5s-31.333 -28.5 -36 -28.5c-8 0 -17 4.83301 -27 14.5
s-15 18.834 -15 27.501c0 6.66699 11.333 19.334 34 38.001c38.667 32.667 76.667 49 114 49c24 0 48.333 -6.66699 73 -20c28 -15.333 42 -34 42 -56v-4zM180.003 27.9971c0 -4 -1.33594 -9.33301 -4.00293 -16c-6 -0.666992 -15.667 -3.66699 -29 -9
s-23.666 -8 -30.999 -8l-6 3c-3.33301 2.66699 -9 5.66699 -17 9c-2 5.33301 -3 10 -3 14s1.33301 10.333 4 19s4 15.334 4 20.001c-0.666992 3.33301 -1 4.66602 -1 3.99902c0 8 3.66699 13.333 11 16c2.66699 0.666992 3.33398 1 2.00098 1l13 3
c2.66699 -2.66699 14.334 -10.667 35.001 -24c14.667 -9.33301 22 -20 22 -32z" />
    <glyph glyph-name="at" unicode="@" horiz-adv-x="759" 
d="M699 350c0 -61.333 -17.3301 -110.999 -51.9971 -148.999c-36.667 -40.667 -87.334 -61 -152.001 -61c-60 0 -95 18.333 -105 55c-38.667 -32.667 -74.667 -49 -108 -49c-26.667 0 -48.334 8.66699 -65.001 26c-20 20 -30 50 -30 90c0 58 15.667 110.333 47 157
c35.333 51.333 79.333 77 132 77c37.333 0 65.333 -11.333 84 -34l6 22h77l-63 -255c-1.33301 -5.33301 -2 -9.66602 -2 -12.999c0 -25.333 16.333 -38 49 -38c33.333 0 63.666 12.667 90.999 38c35.333 32.667 53 77.667 53 135c0 64.667 -24.667 120 -74 166
c-52.667 48.667 -120.667 73 -204 73c-86 0 -157.833 -26.167 -215.5 -78.5s-86.5 -117.833 -86.5 -196.5c0 -76.667 28.667 -140.834 86 -192.501s129 -77.5 215 -77.5c69.333 0 131.333 18 186 54c5.33301 2.66699 9.66602 4 12.999 4c11.333 0 17 -5.33301 17 -16
c0 -6.66699 -3 -12.334 -9 -17.001c-52.667 -40 -121.667 -60 -207 -60c-97.333 0 -178.166 28.667 -242.499 86s-96.5 130.333 -96.5 219c0 91.333 31.833 165.833 95.5 223.5s145.167 86.5 244.5 86.5c94 0 170.667 -27.333 230 -82c57.333 -52.667 86 -117 86 -193z
M440.003 426.001c-10 24 -31 36 -63 36c-28.667 0 -54.5 -23.167 -77.5 -69.5s-34.5 -93.833 -34.5 -142.5c0 -44 12.667 -66 38 -66c13.333 0 28.333 4.5 45 13.5s30 21.167 40 36.5z" />
    <glyph glyph-name="A" unicode="A" horiz-adv-x="681" 
d="M669 0h-311v24h104l-63 174h-201l-62 -174h120v-24h-238v24h90l226 630h18l226 -630h91v-24zM390 222l-92 253l-91 -253h183z" />
    <glyph glyph-name="B" unicode="B" horiz-adv-x="616" 
d="M568 176c0 -54.667 -20.5 -97.666 -61.5 -128.999s-97.167 -47 -168.5 -47h-313v24h89v597h-89v24h305c58 0 107.667 -13 149 -39c44 -28.667 66 -66.334 66 -113.001c0 -73.333 -46.333 -121 -139 -143c42.667 -9.33301 78.667 -27.333 108 -54
c36 -33.333 54 -73.333 54 -120zM437 485.001v16c0 80 -35.667 120 -107 120h-107v-261h107c71.333 0 107 41.667 107 125zM457 164.001v23c0 99.333 -42.333 149 -127 149h-107v-312h107c46 0 78.667 11.667 98 35s29 58.333 29 105z" />
    <glyph glyph-name="C" unicode="C" horiz-adv-x="631" 
d="M598 4c0 -7.33301 -3.66699 -11.001 -11 -11.001c-4 0 -8 2 -12 6l-52 52c-46.667 -46 -104 -69 -172 -69c-80 0 -152 33 -216 99c-66.667 68.667 -100 149.334 -100 242.001c0 85.333 30.333 161.333 91 228c64 70 140.667 105 230 105
c62.667 0 116.667 -16.333 162 -49l37 35c6 6 11.667 9 17 9c8 0 12 -6.33301 12 -19v-154c0 -10.667 -3 -16 -9 -16c-4.66699 0 -8 2.66699 -10 8l-2 5c-16.667 46.667 -42 83.667 -76 111c-37.333 29.333 -81 44 -131 44c-123.333 0 -185 -85.333 -185 -256v-106
c0 -173.333 60 -260 180 -260c92.667 0 167 60 223 180c4 8.66699 8.66699 13 14 13c6.66699 0 10 -4.66699 10 -14v-183z" />
    <glyph glyph-name="D" unicode="D" horiz-adv-x="682" 
d="M664 330c0 -100 -30 -180.001 -90 -240.001s-139 -90 -237 -90h-309v24h91v597h-91v24h309c96 0 174.5 -29.167 235.5 -87.5s91.5 -134.166 91.5 -227.499zM541 305.999v48c0 94 -20.667 163.667 -62 209c-35.333 38.667 -83.333 58 -144 58h-107v-597h107
c137.333 0 206 94 206 282z" />
    <glyph glyph-name="E" unicode="E" horiz-adv-x="591" 
d="M553 35c0 -23.333 -11.333 -34.999 -34 -34.999h-488v24h87v597h-89v24h465c20.667 0 31 -9 31 -27v-144c0 -11.333 -4 -17 -12 -17s-12.333 6 -13 18c-1.33301 35.333 -10.666 66.666 -27.999 93.999c-22 34.667 -53 52 -93 52h-152v-269h77c26 0 44.333 8 55 24
c4.66699 8.66699 10.667 28.334 18 59.001c2 11.333 6 17 12 17c7.33301 0 11 -5.33301 11 -16v-192c0 -11.333 -3.66699 -17 -11 -17c-6 0 -10 5.66699 -12 17c-3.33301 15.333 -10 36 -20 62c-10 14.667 -27.667 22 -53 22h-77v-304h161c43.333 0 75.333 14 96 42
c15.333 21.333 29 59.666 41 114.999c3.33301 15.333 8.66602 23 15.999 23c8 0 12 -9 12 -27v-142z" />
    <glyph glyph-name="F" unicode="F" horiz-adv-x="564" 
d="M529 474c0 -11.333 -4.00098 -17 -12.001 -17s-12.333 6 -13 18c-1.33301 35.333 -10.666 66.666 -27.999 93.999c-22 34.667 -53 52 -93 52h-152v-269h77c26 0 44.333 8 55 24c5.33301 8.66699 11.333 28.334 18 59.001c2.66699 11.333 6.66699 17 12 17
c7.33301 0 11 -5.33301 11 -16v-192c0 -11.333 -3.66699 -17 -11 -17c-5.33301 0 -9.33301 5.66699 -12 17c-3.33301 15.333 -10 36 -20 62c-10 14.667 -27.667 22 -53 22h-77v-304h89v-24h-284v24h86v597h-88v24h465c20 0 30 -9 30 -27v-144z" />
    <glyph glyph-name="G" unicode="G" horiz-adv-x="689" 
d="M686 217l-88.999 -0.000976562v-28c0 -69.333 -24.667 -122 -74 -158c-43.333 -32.667 -101 -49 -173 -49c-84 0 -157.833 33.5 -221.5 100.5s-95.5 145.833 -95.5 236.5c0 91.333 31.5 170.333 94.5 237s138.167 100 225.5 100c66 0 120.667 -17.333 164 -52l41 38
c6.66699 6 12.667 9 18 9c8.66699 0 13 -5 13 -15v-179c0 -8.66699 -3.66699 -13 -11 -13c-6.66699 0 -11.334 4 -14.001 12c-40 116 -110.333 174 -211 174c-56.667 0 -101 -19.667 -133 -59c-34.667 -42.667 -52 -106.667 -52 -192v-116
c0 -83.333 16.167 -146.666 48.5 -189.999s77.5 -65 135.5 -65c86.667 0 130 41.333 130 124v85h-111v24h315v-24z" />
    <glyph glyph-name="H" unicode="H" horiz-adv-x="706" 
d="M688 0h-286v24h89v306h-264v-306h89v-24h-287v24h89v597h-89v24h287v-24h-89v-266h264v266h-89v24h286v-24h-88v-597h88v-24z" />
    <glyph glyph-name="I" unicode="I" horiz-adv-x="366" 
d="M326 0h-286v24h88v597h-88v24h286v-24h-89v-597h89v-24z" />
    <glyph glyph-name="J" unicode="J" horiz-adv-x="381" 
d="M371 621l-77.002 0.000976562v-565c0 -102 -56 -153 -168 -153c-35.333 0 -64.333 10.333 -87 31c-20.667 17.333 -31 36.666 -31 57.999c0 36 17 54 51 54c14.667 0 26.334 -4.5 35.001 -13.5s13 -20.167 13 -33.5c0 -30.667 -14.333 -48 -43 -52
c14 -12 32.333 -18 55 -18c24.667 0 41.834 6.83301 51.501 20.5s14.5 37.167 14.5 70.5v601h-95v24h281v-24z" />
    <glyph glyph-name="K" unicode="K" horiz-adv-x="692" 
d="M685 0h-300v24h85l-251 329l291 268h-82v24h212v-24h-90l-237 -218l288 -379h84v-24zM304 0h-273v24h82v597h-82v24h273v-24h-82v-597h82v-24z" />
    <glyph glyph-name="L" unicode="L" horiz-adv-x="617" 
d="M596 35c0 -23.333 -11.667 -34.999 -35 -34.999h-535v24h89v597h-89v24h296v-24h-98v-597h207c42.667 0 74.334 14 95.001 42c15.333 21.333 29 59.666 41 114.999c3.33301 15.333 8.66602 23 15.999 23c8.66699 0 13 -9 13 -27v-142z" />
    <glyph glyph-name="M" unicode="M" horiz-adv-x="821" 
d="M793 0h-273v24h82v565l-222 -589h-20l-222 585v-561h83v-24h-190v24h82v597h-82v24h198l186 -478l180 478h198v-24h-82v-597h82v-24z" />
    <glyph glyph-name="N" unicode="N" horiz-adv-x="677" 
d="M660 621h-89v-629h-42l-392 591v-559h89v-24h-203v24h89v597h-89v24h210l313 -470v446h-89v24h203v-24z" />
    <glyph glyph-name="O" unicode="O" horiz-adv-x="712" 
d="M684 320c0 -88.667 -32 -167.167 -96 -235.5s-140 -102.5 -228 -102.5c-87.333 0 -163 34.167 -227 102.5s-96 146.833 -96 235.5c0 88 32 166 96 234s139.667 102 227 102c88 0 164 -34 228 -102s96 -146 96 -234zM549 272v95c0 96.667 -16.333 165.667 -49 207
c-30 37.333 -76.667 56 -140 56c-62 0 -108.333 -19.667 -139 -59c-32.667 -42 -49 -110 -49 -204v-95c0 -176 62.667 -264 188 -264c126 0 189 88 189 264z" />
    <glyph glyph-name="P" unicode="P" horiz-adv-x="558" 
d="M534 469c0 -52.667 -19.334 -95.167 -58.001 -127.5s-89 -48.5 -151 -48.5h-102v-269h88v-24h-286v24h89v597h-89v24h290c66.667 0 119.834 -16 159.501 -48s59.5 -74.667 59.5 -128zM432.999 452v34c0 90 -39.333 135 -118 135h-92v-304h102c72 0 108 45 108 135z" />
    <glyph glyph-name="Q" unicode="Q" horiz-adv-x="701" 
d="M684 319c0 -76 -24.3301 -145.667 -72.9971 -209s-109.334 -104 -182.001 -122v-17c0 -112 53.333 -168 160 -168c9.33301 0 14 -3.66699 14 -11c0 -6.66699 -4.66699 -10 -14 -10c-95.333 0 -163 10 -203 30c-54.667 26.667 -85.334 78.334 -92.001 155.001l-2 21
c-72.667 17.333 -133.334 57.666 -182.001 120.999s-73 133.333 -73 210c0 88.667 32 167 96 235s139.667 102 227 102c88 0 164 -34 228 -102s96 -146.333 96 -235zM549.003 271v95c0 96.667 -16.333 166 -49 208c-30 37.333 -76.667 56 -140 56
c-62 0 -108.333 -19.667 -139 -59c-32.667 -42 -49 -110.333 -49 -205v-95c0 -176.667 62.667 -265 188 -265c126 0 189 88.333 189 265z" />
    <glyph glyph-name="R" unicode="R" horiz-adv-x="647" 
d="M645 34c0 -3.33301 -1.33301 -6.33301 -4 -9c-8 -7.33301 -22.667 -14.333 -44 -21c-24 -8 -47 -12 -69 -12c-34 0 -59.333 9.33301 -76 28c-14.667 16 -24 41.667 -28 77c-1.33301 22 -3.66602 55 -6.99902 99c-10 86 -46.667 129 -110 129h-81v-301h89v-24h-287v24h89
v597h-89v24h295c63.333 0 115 -14 155 -42c43.333 -29.333 65 -69 65 -119c0 -79.333 -50 -130 -150 -152c64 -16 106 -43 126 -81c13.333 -25.333 21 -72.666 23 -141.999c0.666992 -32.667 2.66699 -53.334 6 -62.001c5.33301 -14 17.666 -21 36.999 -21
c16 0 30.667 4.33301 44 13c4 1.33301 7 2 9 2c4.66699 0 7 -2.33301 7 -7zM436 467v34c0 80 -37.667 120 -113 120h-97v-272h97c75.333 0 113 39.333 113 118z" />
    <glyph glyph-name="S" unicode="S" horiz-adv-x="558" 
d="M524 205c0 -63.333 -22.8311 -116.333 -68.498 -159s-101.834 -64 -168.501 -64c-61.333 0 -117.666 20.667 -168.999 62l-34 -45c-6 -8 -11.667 -12 -17 -12c-9.33301 0 -14 5.66699 -14 17v170c0 11.333 4 17 12 17c7.33301 0 12.666 -5 15.999 -15
c14 -52 40.5 -93 79.5 -123s83.167 -45 132.5 -45c44 0 82.5 13.333 115.5 40s49.5 61.334 49.5 104.001c0 45.333 -19 76.333 -57 93c-30 12.667 -60 23.334 -90 32.001l-102 30c-94 29.333 -141 82.666 -141 159.999c0 52 19.833 96.5 59.5 133.5s92.5 55.5 158.5 55.5
c51.333 0 100.666 -12.667 147.999 -38l27 32c5.33301 6.66699 10.333 10 15 10c7.33301 0 11 -4.66699 11 -14v-169c0 -9.33301 -4 -14 -12 -14s-12.667 4.33301 -14 13c-6 44 -22.667 79.667 -50 107c-31.333 31.333 -73 47 -125 47c-40 0 -73.667 -9.33301 -101 -28
c-30.667 -20.667 -46 -48.667 -46 -84c0 -42.667 20.667 -71.334 62 -86.001c18 -6.66699 79.333 -24 184 -52c92.667 -24.667 139 -83 139 -175z" />
    <glyph glyph-name="T" unicode="T" horiz-adv-x="638" 
d="M617 455h-30.998c-7.33301 52 -22.5 92.667 -45.5 122s-49.833 44 -80.5 44h-84v-597h89v-24h-286v24h88v597h-84c-30 0 -56.5 -14.667 -79.5 -44s-38.5 -70 -46.5 -122h-30l16 170c1.33301 13.333 9.66602 20 24.999 20h508c15.333 0 23.666 -6.66699 24.999 -20z" />
    <glyph glyph-name="U" unicode="U" horiz-adv-x="657" 
d="M643 621l-88.001 0.000976562v-459c0 -58.667 -18.667 -103.334 -56 -134.001s-89.333 -46 -156 -46c-63.333 0 -116 12.667 -158 38c-52 32 -78 79.333 -78 142v459h-89v24h286v-24h-88v-459c0 -49.333 13.333 -87.333 40 -114s63.667 -40 111 -40
c46.667 0 85.334 13.833 116.001 41.5s46 65.167 46 112.5v459h-89v24h203v-24z" />
    <glyph glyph-name="V" unicode="V" horiz-adv-x="651" 
d="M649 621h-75l-221 -631h-24l-232 631h-90v24h287v-24h-91l175 -472l165 472h-87v24h193v-24z" />
    <glyph glyph-name="W" unicode="W" horiz-adv-x="926" 
d="M915 621h-72l-241 -631h-20l-112 287l-109 -287h-20l-240 631h-78v24h657v-24h-64l-84 -219l98 -261l184 480h-86v24h187v-24zM588 621h-140l70 -182zM456 315l-115 306h-133l182 -478z" />
    <glyph glyph-name="X" unicode="X" horiz-adv-x="706" 
d="M689 0h-285v24h80l-160 259l-176 -259h99v-24h-225v24h92l194 285l-193 312h-91v24h305v-24h-90l136 -220l148 220h-96v24h225v-24h-94l-166 -246l216 -351h81v-24z" />
    <glyph glyph-name="Y" unicode="Y" horiz-adv-x="682" 
d="M673 621h-85l-168 -281v-316h98v-24h-306v24h99v292l-198 305h-85v24h297v-24h-91l164 -254l152 254h-96v24h219v-24z" />
    <glyph glyph-name="Z" unicode="Z" horiz-adv-x="524" 
d="M502 0h-471.001v30l352 591h-191c-85.333 0 -129.666 -49.667 -132.999 -149h-23v173h459v-28l-356 -593h189c46.667 0 81.667 12.667 105 38c26 28 40.667 73.667 44 137h25v-199z" />
    <glyph glyph-name="bracketleft" unicode="[" horiz-adv-x="221" 
d="M206 665h-76v-708h71v-24h-164v756h169v-24z" />
    <glyph glyph-name="backslash" unicode="\" horiz-adv-x="305" 
d="M302 -67h-37l-255 738h38z" />
    <glyph glyph-name="bracketright" unicode="]" horiz-adv-x="221" 
d="M201 -67h-165v24h72v708h-77v24h170v-756z" />
    <glyph glyph-name="asciicircum" unicode="^" horiz-adv-x="381" 
d="M325 325l-22 -11l-108 207l-108 -207l-23 11l114 281h33z" />
    <glyph glyph-name="underscore" unicode="_" horiz-adv-x="300" 
d="M311 -31h-316v20h316v-20z" />
    <glyph glyph-name="grave" unicode="`" horiz-adv-x="266" 
d="M233 457l-14 -7l-175 154h103z" />
    <glyph glyph-name="a" unicode="a" horiz-adv-x="456" 
d="M453 54c0 -13.333 -7.66602 -26.999 -22.999 -40.999c-18.667 -17.333 -44.334 -26 -77.001 -26c-44 0 -70.333 15.667 -79 47c-29.333 -31.333 -68 -47 -116 -47c-77.333 0 -116 29.333 -116 88c0 42 22 75.667 66 101c42 23.333 95.333 35.333 160 36v107
c0 33.333 -21.333 50 -64 50c-40.667 0 -61 -5.66699 -61 -17c2.66699 -2 5.66699 -4.66699 9 -8c9.33301 -8 14 -18 14 -30c0 -24.667 -14.333 -37 -43 -37c-28 0 -42 13 -42 39c0 20 11.667 37 35 51c26.667 15.333 64 23 112 23c92 0 138 -29.667 138 -89v-227
c0 -20.667 1.33301 -34.334 4 -41.001c3.33301 -8.66699 10 -13 20 -13c17.333 0 32 11 44 33c3.33301 6.66699 7 10 11 10c5.33301 0 8 -3 8 -9zM268.001 68.001l-0.000976562 126.002c-43.333 -2.66699 -75 -9.66699 -95 -21c-27.333 -14.667 -41 -39.334 -41 -74.001
c0 -52.667 20.333 -79 61 -79c12.667 0 28.334 5.66699 47.001 17s28 21.666 28 30.999z" />
    <glyph glyph-name="b" unicode="b" horiz-adv-x="534" 
d="M510 192c0 -50.667 -19.5 -97.333 -58.5 -140s-84.5 -64 -136.5 -64c-43.333 0 -80.333 17.333 -111 52v-40h-176v24h79v597h-79v24h176v-299c28.667 31.333 64.667 47 108 47c47.333 0 91.333 -19 132 -57c44 -40.667 66 -88.667 66 -144zM394 171.001v43
c0 63.333 -8.33301 106.333 -25 129c-12 17.333 -32.333 26 -61 26c-41.333 0 -76 -22 -104 -66v-220c28.667 -47.333 64.667 -71 108 -71c54.667 0 82 53 82 159z" />
    <glyph glyph-name="c" unicode="c" horiz-adv-x="422" 
d="M411 105c0 -1.33301 -0.337891 -3.00195 -1.00488 -5.00195l-1 -4c-8.66699 -27.333 -25 -50.666 -49 -69.999c-32 -26 -71.333 -39 -118 -39c-55.333 0 -103.666 18 -144.999 54c-45.333 38.667 -68 87.334 -68 146.001s23 107.667 69 147
c42.667 37.333 92.334 56 149.001 56c32.667 0 63.334 -7 92.001 -21c32.667 -16 49 -36.333 49 -61c0 -12.667 -4.66699 -23.167 -14 -31.5s-21.333 -12.5 -36 -12.5c-13.333 0 -24.833 3.83301 -34.5 11.5s-14.5 17.834 -14.5 30.501c0 12 3 22.167 9 30.5l9 12.5
c0 3.33301 -4.66699 6.66602 -14 9.99902c-12 4.66699 -28 7 -48 7c-34.667 0 -59.667 -11 -75 -33c-16 -24 -24 -65.667 -24 -125v-41c0 -60 6.33301 -100.667 19 -122c14 -23.333 40.667 -35 80 -35c35.333 0 66.333 10 93 30c22.667 17.333 38.334 39 47.001 65
c2.66699 8 7.33398 12 14.001 12c8 0 12 -4 12 -12z" />
    <glyph glyph-name="d" unicode="d" horiz-adv-x="534" 
d="M513 0l-176.002 -0.000976562v41c-30 -36 -66.667 -54 -110 -54c-45.333 0 -88.666 20.333 -129.999 61c-43.333 42.667 -65 90.334 -65 143.001c0 50 20.333 96.167 61 138.5s86.334 63.5 137.001 63.5c45.333 0 81 -14.333 107 -43v271h-78v24h176v-621h78v-24z
M336.998 81.999l-0.00195312 219c-27.333 45.333 -61.666 68 -102.999 68c-31.333 0 -53.5 -11.333 -66.5 -34s-19.5 -62.667 -19.5 -120v-47c0 -59.333 7 -101 21 -125c12.667 -21.333 33.334 -32 62.001 -32c40 0 75.333 23.667 106 71z" />
    <glyph glyph-name="e" unicode="e" horiz-adv-x="447" 
d="M414 117c0 -4 -1.00195 -8.99902 -3.00195 -14.999c-13.333 -33.333 -34.666 -60.333 -63.999 -81c-32.667 -22.667 -71.667 -34 -117 -34c-58 0 -106.667 20.667 -146 62c-37.333 39.333 -56 84.666 -56 135.999c0 52 19.333 99.167 58 141.5s85.334 63.5 140.001 63.5
c58.667 0 105.667 -21 141 -63c26 -30.667 40 -62 42 -94c0.666992 -11.333 -6.33301 -17 -21 -17h-243v-92c0 -76 29 -114 87 -114c73.333 0 126 35.333 158 106c4 8 8.66699 12 14 12c6.66699 0 10 -3.66699 10 -11zM302.998 279.001c0 58 -25.333 87 -76 87
c-54.667 0 -82 -31 -82 -93v-33h148c6.66699 0 10 13 10 39z" />
    <glyph glyph-name="f" unicode="f" horiz-adv-x="352" 
d="M340 585c0 -25.333 -12.333 -38 -37 -38c-26.667 0 -40 12 -40 36c0 16 7.66699 27.333 23 34c0 7.33301 -14 11 -42 11c-32.667 0 -49 -22.333 -49 -67v-181h83v-24h-83v-332h77v-24h-252v24h77v332h-76v24h76v36c0 72 7 123 21 153c26 55.333 67.333 83 124 83
c28 0 51.333 -6.83301 70 -20.5s28 -29.167 28 -46.5z" />
    <glyph glyph-name="g" unicode="g" horiz-adv-x="439" 
d="M433 371c0 -21.333 -11.667 -32.0029 -35 -32.0029c-25.333 0 -38 10.333 -38 31c0 2.66699 0.333008 5 1 7c-9.33301 -6 -19.333 -14.333 -30 -25c30.667 -27.333 46 -59.666 46 -96.999c0 -31.333 -12.333 -60 -37 -86c-32 -33.333 -76.333 -50 -133 -50
c-22.667 0 -42.334 2.33301 -59.001 7c-53.333 -13.333 -80 -33.333 -80 -60c0 -24 20.333 -36 61 -36h166c39.333 0 70.333 -9.66699 93 -29c24 -21.333 36 -51.666 36 -90.999c0 -50.667 -20 -91 -60 -121c-37.333 -28 -85.333 -42 -144 -42
c-57.333 0 -102.666 8.66699 -135.999 26c-35.333 19.333 -53 47 -53 83c0 46 26 79.667 78 101c-50.667 12.667 -76 43.334 -76 92.001c0 43.333 27 73.333 81 90c-51.333 27.333 -77 66 -77 116c0 36.667 14.667 67.667 44 93c31.333 28 73.333 42 126 42
c46 0 81 -8 105 -24c26 26 52 39 78 39c28.667 0 43 -11.333 43 -34zM275 237.997v32c0 36.667 -5.66699 62.334 -17 77.001c-10 12.667 -27 19 -51 19s-41 -6.33301 -51 -19c-11.333 -14.667 -17 -40.334 -17 -77.001v-32c0 -34 4.83301 -58.333 14.5 -73
s27.5 -22 53.5 -22s43.833 7.33301 53.5 22s14.5 39 14.5 73zM377 -129.003c0 22.667 -8.83203 42 -26.499 58s-41.834 24 -72.501 24h-131c-11.333 0 -23.333 -7.33301 -36 -22c-14.667 -16.667 -22 -35.667 -22 -57c0 -68.667 45 -103 135 -103c39.333 0 73.333 8 102 24
c34 18 51 43.333 51 76z" />
    <glyph glyph-name="h" unicode="h" horiz-adv-x="555" 
d="M539 0h-241v24h71v267c0 46 -19 69 -57 69c-31.333 0 -59 -12.667 -83 -38c-22 -22.667 -33 -44.667 -33 -66v-232h72v-24h-242v24h73v597h-73v24h170v-320c32 45.333 81.333 68 148 68c82 0 123 -30.333 123 -91v-278h72v-24z" />
    <glyph glyph-name="i" unicode="i" horiz-adv-x="303" 
d="M216 550c0 -14.667 -5.66699 -27.167 -17 -37.5s-25 -15.5 -41 -15.5c-16.667 0 -30.5 5.16699 -41.5 15.5s-16.5 22.833 -16.5 37.5c0 15.333 5.5 28.166 16.5 38.499s24.833 15.5 41.5 15.5c16 0 29.667 -5.16699 41 -15.5s17 -23.166 17 -38.499zM285 0h-252v24h77
v332h-77v24h174v-356h78v-24z" />
    <glyph glyph-name="j" unicode="j" horiz-adv-x="282" 
d="M228 550c0 -15.333 -5.66699 -28.166 -17 -38.499s-25 -15.5 -41 -15.5s-29.667 5.16699 -41 15.5s-17 23.166 -17 38.499s5.66699 28.166 17 38.499s25 15.5 41 15.5s29.667 -5.16699 41 -15.5s17 -23.166 17 -38.499zM225 -28c0 -70 -13.833 -124.833 -41.5 -164.5
s-65.5 -59.5 -113.5 -59.5c-24.667 0 -46 6.16699 -64 18.5s-27 27.833 -27 46.5c0 13.333 4.5 24.833 13.5 34.5s20.833 14.5 35.5 14.5s26.167 -4.66699 34.5 -14s12.5 -20 12.5 -32c0 -18.667 -7.33301 -32.667 -22 -42c4 -1.33301 9.33301 -2 16 -2
c15.333 0 28.833 5.16699 40.5 15.5s17.5 26.5 17.5 48.5v519h-83v24h181v-407z" />
    <glyph glyph-name="k" unicode="k" horiz-adv-x="556" 
d="M549 0h-258v24h68l-136 178h-16v-178h73v-24h-253v24h83v597h-83v24h180v-419h23l143 130h-81v24h202v-24h-84l-116 -107l181 -225h74v-24z" />
    <glyph glyph-name="l" unicode="l" horiz-adv-x="294" 
d="M273 0h-241v24h72v597h-72v24h169v-621h72v-24z" />
    <glyph glyph-name="m" unicode="m" horiz-adv-x="785" 
d="M766 0l-230 0.000976562v24h65v263c0 44 -16 66 -48 66c-28.667 0 -54 -13 -76 -39c-20.667 -22.667 -31 -44.667 -31 -66v-224h67v-24h-231v24h67v263c0 20 -1.66699 33.667 -5 41c-6.66699 16.667 -21.334 25 -44.001 25c-26 0 -50.667 -12.667 -74 -38
c-21.333 -22.667 -32 -42.334 -32 -59.001v-232h66v-24h-231v24h67v329h-67v24h165v-61c33.333 46 83.333 69 150 69c58.667 0 92.334 -23.667 101.001 -71c32 47.333 82.333 71 151 71s103 -29.333 103 -88v-273h67v-24z" />
    <glyph glyph-name="n" unicode="n" horiz-adv-x="547" 
d="M528 0h-242v24h72v263c0 44 -17.667 66 -53 66c-24.667 0 -48 -11.5 -70 -34.5s-33 -45.167 -33 -66.5v-228h72v-24h-241v24h72v329h-72v23h169v-60c32 45.333 79 68 141 68c75.333 0 113 -30.333 113 -91v-269h72v-24z" />
    <glyph glyph-name="o" unicode="o" horiz-adv-x="460" 
d="M441 188c0 -47.333 -18.667 -91.666 -56 -132.999c-41.333 -45.333 -91.666 -68 -150.999 -68s-110 22.667 -152 68c-38 41.333 -57 85.666 -57 132.999s19 91.666 57 132.999c42 46 92.667 69 152 69s109.666 -23 150.999 -69c37.333 -41.333 56 -85.666 56 -132.999z
M325 168v41.001c0 56.667 -5.33301 96 -16 118c-13.333 26 -38.333 39 -75 39c-37.333 0 -62.333 -13 -75 -39c-12 -22 -18 -61.333 -18 -118v-41c0 -58.667 6 -99 18 -121c12.667 -24.667 37.667 -37 75 -37s62.333 12.333 75 37c10.667 21.333 16 61.666 16 120.999z" />
    <glyph glyph-name="p" unicode="p" horiz-adv-x="515" 
d="M494 187c0 -54.667 -20.333 -102.332 -61 -142.999s-86.667 -61 -138 -61c-45.333 0 -81.333 15.333 -108 46v-262h67v-24h-232v24h67v585h-67v25h165v-41c30 36 66.667 54 110 54c48.667 0 93 -20 133 -60c42.667 -40.667 64 -88.334 64 -143.001zM378 167.002
l0.000976562 43c0 63.333 -9 106.666 -27 129.999c-12 17.333 -30.333 26 -55 26c-25.333 0 -49.833 -10 -73.5 -30s-35.5 -40.333 -35.5 -61v-184c0 -18 11 -36.167 33 -54.5s46.333 -27.5 73 -27.5c29.333 0 49.666 9 60.999 27c16 22.667 24 66.334 24 131.001z" />
    <glyph glyph-name="q" unicode="q" horiz-adv-x="524" 
d="M507 -257h-230.999v24h67v263c-28.667 -31.333 -65.334 -47 -110.001 -47c-50 0 -95.667 21 -137 63s-62 89 -62 141s20.5 98.333 61.5 139s86.167 61 135.5 61c44.667 0 82 -17.333 112 -52v41h164v-24h-67v-585h67v-24zM343.001 106v160c0 24.667 -12 47.5 -36 68.5
s-49 31.5 -75 31.5c-54.667 0 -82 -40.333 -82 -121v-104c0 -52.667 7.66699 -89 23 -109c12.667 -16 33.334 -24 62.001 -24c31.333 0 57.166 9.66699 77.499 29s30.5 42.333 30.5 69z" />
    <glyph glyph-name="r" unicode="r" horiz-adv-x="412" 
d="M402 313c0 -16 -5.49902 -28.666 -16.499 -37.999s-24.167 -14 -39.5 -14c-16.667 0 -30.334 4.5 -41.001 13.5s-16 20.833 -16 35.5c0 20 8.33301 34.667 25 44c2 1.33301 3 2.33301 3 3c0 2.66699 -8 4 -24 4c-24.667 0 -48.334 -9.33301 -71.001 -28
s-34 -37.667 -34 -57v-252h72v-24h-242v24h72v329h-72v24h170v-45c28.667 35.333 67.334 53 116.001 53c26.667 0 48.667 -5.33301 66 -16c21.333 -12.667 32 -31.334 32 -56.001z" />
    <glyph glyph-name="s" unicode="s" horiz-adv-x="367" 
d="M343 119c0 -38.667 -12.333 -70 -37 -94c-26.667 -25.333 -62.334 -38 -107.001 -38c-48 0 -86.667 12.333 -116 37l-19 -25c-2.66699 -4.66699 -6 -7 -10 -7c-7.33301 0 -11 4 -11 12v101c0 8 3.66699 12 11 12c6 0 10 -4 12 -12c18 -63.333 61.333 -95 130 -95
c25.333 0 48 5.66699 68 17c23.333 13.333 35 31.333 35 54c0 21.333 -11 38 -33 50c-18.667 9.33301 -60 20.666 -124 33.999c-61.333 12.667 -92 46.334 -92 101.001c0 34 12.5 63.167 37.5 87.5s59.5 36.5 103.5 36.5c30.667 0 56.667 -8.33301 78 -25l23 21
c2.66699 2.66699 5.33398 4 8.00098 4c4.66699 0 7 -3.66699 7 -11v-101c0 -6.66699 -2.66699 -10 -8 -10s-9 3 -11 9c-4 24 -14 44 -30 60c-18.667 19.333 -43 29 -73 29c-24.667 0 -45.167 -6 -61.5 -18s-24.5 -26 -24.5 -42c0 -19.333 11.667 -32.333 35 -39
c30 -6.66699 67.333 -16 112 -28c64.667 -19.333 97 -59.333 97 -120z" />
    <glyph glyph-name="t" unicode="t" horiz-adv-x="348" 
d="M338 83c0 -2.66699 -0.333008 -6.00098 -1 -10.001c-10.667 -57.333 -51.667 -86 -123 -86c-40 0 -70.833 10.333 -92.5 31s-32.5 49.334 -32.5 86.001v251h-70v24h70v106l98 45v-151h100v-24h-100v-253c0 -57.333 20.667 -86 62 -86c36 0 57.667 21.667 65 65
c1.33301 9.33301 6 14 14 14c6.66699 0 10 -4 10 -12z" />
    <glyph glyph-name="u" unicode="u" horiz-adv-x="556" 
d="M529 0h-169.999v60c-34.667 -47.333 -86.334 -71 -155.001 -71c-72.667 0 -109 35.333 -109 106v258h-72v23h170v-287c0 -23.333 2.66699 -39 8 -47c7.33301 -11.333 22 -17 44 -17c28 0 54 11.333 78 34s36 44 36 64v230h-72v23h170v-352h72v-24z" />
    <glyph glyph-name="v" unicode="v" horiz-adv-x="505" 
d="M488 353h-63l-156 -357h-14l-165 357h-69v23h243v-23h-70l103 -230l100 230h-71v23h162v-23z" />
    <glyph glyph-name="w" unicode="w" horiz-adv-x="668" 
d="M654 353h-72l-125 -364h-14l-105 241l-87 -241h-15l-144 364h-69v23h234v-23h-66l87 -218l85 241h14l105 -242l74 219h-84v23h182v-23z" />
    <glyph glyph-name="x" unicode="x" horiz-adv-x="518" 
d="M505 0h-242v24h73l-97 128l-105 -128h71v-24h-174v24h71l121 149l-137 180h-60v23h227v-23h-63l89 -117l95 117h-61v23h163v-23h-68l-113 -138l146 -191h64v-24z" />
    <glyph glyph-name="y" unicode="y" horiz-adv-x="521" 
d="M511 352h-69l-211 -506c-26.667 -64.667 -66.667 -97 -120 -97c-38 0 -57 15 -57 45c0 26 13.667 39 41 39c20 0 34.667 -9 44 -27c4 -7.33301 8 -11 12 -11c21.333 0 40 19.667 56 59l59 143l-170 355h-70v24h251v-24h-76l112 -242l101 242h-74v24h171v-24z" />
    <glyph glyph-name="z" unicode="z" horiz-adv-x="414" 
d="M388 0h-338.999v26l226 327h-96c-53.333 0 -83.333 -32.667 -90 -98h-21v121h309v-28l-222 -324h112c61.333 0 94.666 36 99.999 108h21v-132z" />
    <glyph glyph-name="braceleft" unicode="{" horiz-adv-x="282" 
d="M274 -40c0 -8.66699 -22.334 -13.001 -67.001 -13.001c-74.667 0 -112 36 -112 108v178c0 22.667 -9.66699 39.334 -29 50.001c-15.333 9.33301 -40.666 16.333 -75.999 21c70 12 105 36 105 72v198c0 71.333 37.333 107 112 107c44.667 0 67 -4.33301 67 -13
c0 -8 -15 -12 -45 -12c-46 0 -69 -31 -69 -93v-189c0 -36.667 -20.333 -59.334 -61 -68.001l-6 -2l6 -1c40.667 -9.33301 61 -31.666 61 -66.999v-171c0 -62 23 -93 69 -93c30 0 45 -4 45 -12z" />
    <glyph glyph-name="bar" unicode="|" horiz-adv-x="118" 
d="M80 -49h-37v720h37v-720z" />
    <glyph glyph-name="braceright" unicode="}" horiz-adv-x="287" 
d="M299 304c-35.333 -4.66699 -61 -11.666 -77 -20.999c-19.333 -10.667 -29 -27.334 -29 -50.001v-178c0 -72 -37.333 -108 -112 -108c-44.667 0 -67 4.33301 -67 13c0 8 15.333 12 46 12c45.333 0 68 31 68 93v171c0 35.333 20.333 57.666 61 66.999l7 1l-7 2
c-40.667 8.66699 -61 31.334 -61 68.001v189c0 62 -22.667 93 -68 93c-30.667 0 -46 4 -46 12c0 8.66699 22.333 13 67 13c74.667 0 112 -35.667 112 -107v-198c0 -36 35.333 -60 106 -72z" />
    <glyph glyph-name="asciitilde" unicode="~" horiz-adv-x="438" 
d="M412 380c0 -18 -7.66895 -33.667 -23.002 -47c-21.333 -17.333 -52.666 -26 -93.999 -26c-36 0 -72.667 6.66699 -110 20l-35 15c-15.333 6 -27.666 9 -36.999 9c-27.333 0 -42.333 -10.667 -45 -32c-0.666992 -11.333 -6.33398 -17 -17.001 -17s-16 7 -16 21
c0 18.667 9.33301 35.667 28 51c22.667 17.333 53 26 91 26c30.667 0 67.334 -7.33301 110.001 -22c38.667 -13.333 64 -20 76 -20c24 0 36.667 8 38 24c0.666992 11.333 7 17 19 17c10 0 15 -6.33301 15 -19z" />
    <glyph glyph-name="nonbreakingspace" unicode="&#xa0;" horiz-adv-x="207" 
 />
    <glyph glyph-name="exclamdown" unicode="&#xa1;" horiz-adv-x="277" 
d="M206 453c0 -15.333 -5.83301 -28.333 -17.5 -39s-25.834 -16 -42.501 -16s-30.834 5.33301 -42.501 16s-17.5 23.667 -17.5 39s5.83301 28.5 17.5 39.5s25.834 16.5 42.501 16.5s30.834 -5.5 42.501 -16.5s17.5 -24.167 17.5 -39.5zM208 -48c0 -60 -21 -90 -63 -90
c-43.333 0 -65 30 -65 90c0 24.667 3.66699 54.334 11 89.001l20 87c7.33301 38 15 111 23 219h21c2.66699 -47.333 10 -120.333 22 -219l20 -87c7.33301 -34.667 11 -64.334 11 -89.001z" />
    <glyph glyph-name="cent" unicode="&#xa2;" horiz-adv-x="354" 
d="M331 213c0 -2 -0.334961 -4.33008 -1.00195 -6.99707c-15.333 -53.333 -55 -82.666 -119 -87.999l-1 -48h-25v49c-41.333 3.33301 -76.666 19.166 -105.999 47.499s-44 63.166 -44 104.499c0 40.667 13.333 74.5 40 101.5s63.334 44.167 110.001 51.5v37h25l1 -37
c26 -0.666992 49.333 -7.16699 70 -19.5s31 -26.833 31 -43.5c0 -24.667 -12.667 -37 -38 -37c-10.667 0 -19.5 3.33301 -26.5 10s-10.5 15 -10.5 25c0 9.33301 1.83301 15.833 5.5 19.5s5.5 7.16699 5.5 10.5c0 9.33301 -12.333 14.666 -37 15.999v-265
c24 1.33301 45.167 9.16602 63.5 23.499s29.833 31.5 34.5 51.5c1.33301 6 5 9 11 9c7.33301 0 11 -3.66699 11 -11zM184.998 140.003l-0.00195312 263.999c-23.333 -4 -39.166 -13.833 -47.499 -29.5s-12.5 -43.5 -12.5 -83.5v-41c0 -33.333 2.33301 -56.666 7 -69.999
c8.66699 -22.667 26.334 -36 53.001 -40z" />
    <glyph glyph-name="sterling" unicode="&#xa3;" horiz-adv-x="559" 
d="M535 187c0 -40 -17.002 -82.001 -51.002 -126.001c-37.333 -48 -77.666 -72 -120.999 -72c-60.667 0 -109.334 19.667 -146.001 59c-22 -35.333 -58.667 -53 -110 -53c-29.333 0 -52.166 8.33301 -68.499 25s-24.5 36.667 -24.5 60c0 32.667 15 59.334 45 80.001
c26 17.333 54.333 26 85 26c11.333 0 24 -1.33301 38 -4l-51 142h-96v26h85c-22.667 66 -34 113 -34 141c0 60 27.667 104.333 83 133c44 22.667 101 34 171 34c41.333 0 77.333 -10 108 -30c33.333 -22 50 -49.333 50 -82c0 -54 -24 -81 -72 -81
c-18 0 -33.167 4.5 -45.5 13.5s-18.5 21.833 -18.5 38.5c0 37.333 22.667 56 68 56c10 0 15 2.33301 15 7c0 12 -11.167 24 -33.5 36s-46.166 18 -71.499 18c-36.667 0 -63.667 -8.66699 -81 -26c-20.667 -20 -31 -54 -31 -102v-156h81v-26h-81v-154
c77.333 -44.667 136.333 -67 177 -67c24.667 0 45.667 8 63 24c14 13.333 28.333 35.333 43 66c2.66699 5.33301 6.66699 8 12 8c8 0 12 -4.66699 12 -14zM193.998 67.999c-38 42.667 -73.001 64 -105.001 64c-11.333 0 -21.666 -4 -30.999 -12
c-10.667 -10 -16 -23.333 -16 -40c0 -15.333 5.83301 -29 17.5 -41s27.5 -18 47.5 -18c42.667 0 71.667 15.667 87 47z" />
    <glyph glyph-name="currency" unicode="&#xa4;" horiz-adv-x="600" 
d="M499 118c0 -14 -7.00195 -20.999 -21.002 -20.999c-5.33301 0 -11.666 3.66699 -18.999 11l-56 56c-31.333 -23.333 -65.666 -35 -102.999 -35s-71.666 11.667 -102.999 35l-56 -56c-7.33301 -7.33301 -13.666 -11 -18.999 -11c-14 0 -21 7 -21 21
c0 6 3.33301 12.333 10 19l57 56c-24 32 -36 66.667 -36 104s11.667 71.666 35 102.999l-56 56c-6.66699 6.66699 -10 13 -10 19c0 14 7 21 21 21c5.33301 0 11.666 -3.66699 18.999 -11l55 -56c30 24 64.667 36 104 36s73.666 -12 102.999 -36l56 56
c7.33301 7.33301 14 11 20 11c13.333 0 20 -7 20 -21c0 -6 -3.66699 -12.333 -11 -19l-55 -56c23.333 -30.667 35 -65 35 -103c0 -38.667 -12 -73.334 -36 -104.001l56 -56c7.33301 -7.33301 11 -13.666 11 -18.999zM426.998 297.001c0 35.333 -12.333 65.333 -37 90
s-54.667 37 -90 37s-65.333 -12.333 -90 -37s-37 -54.667 -37 -90s12.333 -65.333 37 -90s54.667 -37 90 -37s65.333 12.333 90 37s37 54.667 37 90z" />
    <glyph glyph-name="yen" unicode="&#xa5;" horiz-adv-x="674" 
d="M665 621h-86l-168 -281v-16h100v-24h-100v-39h100v-24h-100v-213h99v-24h-306v24h98v213h-101v24h101v39h-101v24h96l-192 297h-85v24h297v-24h-91l164 -254l152 254h-96v24h219v-24z" />
    <glyph glyph-name="brokenbar" unicode="&#xa6;" horiz-adv-x="118" 
d="M80 357h-37v290h37v-290zM80 0h-37v265h37v-265z" />
    <glyph glyph-name="section" unicode="&#xa7;" horiz-adv-x="387" 
d="M367 335c0 -60 -24.999 -100.333 -74.999 -121c48 -21.333 72 -61.666 72 -120.999c0 -48.667 -15.833 -87.834 -47.5 -117.501s-73.834 -44.5 -126.501 -44.5c-40.667 0 -74.5 10.667 -101.5 32s-40.5 46 -40.5 74c0 32 14.333 48 43 48c26 0 39 -13 39 -39
c0 -24.667 -14 -37 -42 -37c-3.33301 0 -5 -0.333008 -5 -1c0 -6.66699 9.66699 -16.667 29 -30c23.333 -15.333 49.333 -23 78 -23c36.667 0 65.667 8.33301 87 25s32 37.667 32 63c0 35.333 -23.667 60.666 -71 75.999l-131 42c-46.667 24 -70 63.333 -70 118
c0 62 27.333 102.667 82 122c-55.333 18.667 -83 57.667 -83 117c0 40 14 74.333 42 103c30.667 30.667 69.667 46 117 46c50.667 0 89.667 -9.66699 117 -29c22 -16 33 -35 33 -57c0 -26 -12.667 -39 -38 -39c-28.667 0 -43 11.667 -43 35c0 22.667 11 35.667 33 39
c-24.667 18 -58.667 27 -102 27c-28 0 -52.667 -7 -74 -21s-32 -31.667 -32 -53c0 -37.333 33.667 -60.666 101 -69.999c118 -16 177 -70.667 177 -164zM329.001 300c0 21.333 -20.333 41.333 -61 60c-32 14 -67 24 -105 30c-48.667 -10 -73 -32.333 -73 -67
c0 -22.667 11.333 -41 34 -55c26 -16 71 -30.333 135 -43c46.667 16.667 70 41.667 70 75z" />
    <glyph glyph-name="dieresis" unicode="&#xa8;" horiz-adv-x="432" 
d="M353 554c0 -12.667 -5.16699 -23.334 -15.5 -32.001s-22.833 -13 -37.5 -13s-27.167 4.33301 -37.5 13s-15.5 19.334 -15.5 32.001s5.16699 23.334 15.5 32.001s22.833 13 37.5 13s27.167 -4.33301 37.5 -13s15.5 -19.334 15.5 -32.001zM196 554
c0 -12.667 -5.16699 -23.334 -15.5 -32.001s-22.833 -13 -37.5 -13s-27.167 4.33301 -37.5 13s-15.5 19.334 -15.5 32.001s5.16699 23.334 15.5 32.001s22.833 13 37.5 13s27.167 -4.33301 37.5 -13s15.5 -19.334 15.5 -32.001z" />
    <glyph glyph-name="copyright" unicode="&#xa9;" horiz-adv-x="637" 
d="M616 357c0 -73.333 -28.333 -136 -85 -188s-124.667 -78 -204 -78c-80 0 -148.333 26 -205 78s-85 114.667 -85 188s28.333 136 85 188s125 78 205 78c79.333 0 147.333 -26 204 -78s85 -114.667 85 -188zM586 358c0 65.333 -25.167 121 -75.5 167
s-111.166 69 -182.499 69c-72 0 -133.167 -23 -183.5 -69s-75.5 -101.667 -75.5 -167s25.167 -121 75.5 -167s111.5 -69 183.5 -69c71.333 0 132.166 23 182.499 69s75.5 101.667 75.5 167zM428 241c0 -4.66699 -2.66406 -7 -7.99707 -7c-2 0 -4 1 -6 3l-21 20
c-19.333 -18 -42.333 -27 -69 -27c-32.667 0 -62.834 14 -90.501 42s-41.5 60.667 -41.5 98c0 35.333 13.167 67.5 39.5 96.5s58.166 43.5 95.499 43.5c24 0 45.667 -7 65 -21l13 14c2.66699 2.66699 6 4 10 4h1h1c4 -0.666992 6 -3.66699 6 -9v-64
c0 -6.66699 -2.66699 -10 -8 -10c-3.33301 0 -6 2.33301 -8 7c-14 40 -40.667 60 -80 60c-48.667 0 -73 -33.333 -73 -100v-42c0 -67.333 23.333 -101 70 -101c35.333 0 64.333 23 87 69c1.33301 5.33301 4.66602 8 9.99902 8c4.66699 0 7 -2.66699 7 -8v-76z" />
    <glyph glyph-name="ordfeminine" unicode="&#xaa;" horiz-adv-x="354" 
d="M323 398c0 -8.66699 -4.66699 -17.3311 -14 -25.998c-12 -10.667 -27.667 -16 -47 -16c-26.667 0 -43 9 -49 27c-18 -18 -41 -27 -69 -27c-47.333 0 -71 18.333 -71 55c0 25.333 13 45.5 39 60.5s58.333 22.5 97 22.5v61c0 18 -12.333 27 -37 27
c-21.333 0 -33 -1.66699 -35 -5l2 -2c0.666992 -0.666992 1.66699 -1.33398 3 -2.00098c6 -6.66699 9 -13.334 9 -20.001c0 -16 -9.33301 -24 -28 -24c-18 0 -27 8.66699 -27 26c0 12 7.5 22.5 22.5 31.5s37.5 13.5 67.5 13.5c56.667 0 85 -18.333 85 -55v-135
c0 -20 4 -30 12 -30s15 4.16699 21 12.5s10 12.5 12 12.5c4.66699 0 7 -2.33301 7 -7zM323 284.003h-279v38h279v-38zM209 480.003c-52.667 -4 -79 -22.333 -79 -55c0 -30 11.667 -45 35 -45c8 0 17.333 3.33301 28 10s16 12.667 16 18v72z" />
    <glyph glyph-name="guillemotleft" unicode="&#xab;" horiz-adv-x="438" 
d="M382 108h-28l-180 150l180 150h28l-128 -150zM232 108h-29l-179 150l179 150h29l-128 -150z" />
    <glyph glyph-name="logicalnot" unicode="&#xac;" horiz-adv-x="564" 
d="M545 230h-39v159h-488v40h527v-199z" />
    <glyph glyph-name="sfthyphen" unicode="&#xad;" horiz-adv-x="277" 
d="M277 231h-273v31h273v-31z" />
    <glyph glyph-name="sfthyphen" unicode="&#x2212;" horiz-adv-x="277" 
d="M277 231h-273v31h273v-31z" />
    <glyph glyph-name="registered" unicode="&#xae;" horiz-adv-x="448" 
d="M413 475c0 -48.667 -18.833 -90.167 -56.5 -124.5s-83.5 -51.5 -137.5 -51.5c-53.333 0 -99 17.167 -137 51.5s-57 75.833 -57 124.5c0 49.333 19 91.166 57 125.499s83.667 51.5 137 51.5c54 0 99.833 -17.167 137.5 -51.5s56.5 -76.166 56.5 -125.499zM383 475
c0 40.667 -15.833 75.334 -47.5 104.001s-70.167 43 -115.5 43c-44.667 0 -83 -14.333 -115 -43s-48 -63.334 -48 -104.001s16 -75.334 48 -104.001s70.333 -43 115 -43c45.333 0 83.833 14.333 115.5 43s47.5 63.334 47.5 104.001zM331 388
c0 -4.66699 -0.666992 -8.00098 -2 -10.001c-8 -6.66699 -21 -10 -39 -10c-12 0 -20.5 2.83301 -25.5 8.5s-8.5 14.834 -10.5 27.501l-2 30c-2.66699 26 -14 39 -34 39h-21v-85h28v-18h-98v18h29v174h-29v18h98c20.667 0 38 -4.83301 52 -14.5s21 -22.834 21 -39.501
c0 -23.333 -13.333 -39.333 -40 -48c16.667 -5.33301 27.667 -14.666 33 -27.999c3.33301 -8 5.66602 -22.333 6.99902 -43c0.666992 -15.333 4.33398 -23 11.001 -23c4.66699 0 9 1.33301 13 4h9zM258 519.999v11c0 20.667 -11 31 -33 31h-28v-71h28c22 0 33 9.66699 33 29
z" />
    <glyph glyph-name="macron" unicode="&#xaf;" horiz-adv-x="454" 
d="M360 516h-253v27h253v-27z" />
    <glyph glyph-name="macron" unicode="&#x2c9;" horiz-adv-x="454" 
d="M360 516h-253v27h253v-27z" />
    <glyph glyph-name="degree" unicode="&#xb0;" horiz-adv-x="231" 
d="M202 582c0 -20 -8 -37 -24 -51s-35 -21 -57 -21c-22.667 0 -42 7 -58 21s-24 31 -24 51c0 19.333 8 36.166 24 50.499s35.333 21.5 58 21.5c22 0 41 -7.16699 57 -21.5s24 -31.166 24 -50.499zM177 582c0 13.333 -5.5 24.833 -16.5 34.5s-24.167 14.5 -39.5 14.5
c-16 0 -29.5 -4.83301 -40.5 -14.5s-16.5 -21.167 -16.5 -34.5c0 -14 5.5 -25.667 16.5 -35s24.5 -14 40.5 -14c15.333 0 28.5 4.66699 39.5 14s16.5 21 16.5 35z" />
    <glyph glyph-name="plusminus" unicode="&#xb1;" horiz-adv-x="410" 
d="M374 344h-139v-127h-64v127h-139v59h139v127h64v-127h139v-59zM358 126h-310v59h310v-59z" />
    <glyph glyph-name="twosuperior" unicode="&#xb2;" horiz-adv-x="360" 
d="M304 462l0.000976562 -3.99902l-5 -82h-214v28l115 98c28.667 24.667 43 54 43 88c0 38 -19.333 57 -58 57c-14.667 0 -28.167 -2.66699 -40.5 -8s-18.5 -11 -18.5 -17h1h7c8 0 15 -2.83301 21 -8.5s9 -11.834 9 -18.501c0 -20.667 -12 -31 -36 -31s-36 11.333 -36 34
c0 20.667 10.333 37 31 49s45.667 18 75 18c26.667 0 49 -5 67 -15c22.667 -12 34 -30 34 -54c0 -28.667 -27.667 -64.667 -83 -108l-88 -69h117c18.667 0 31.167 9.5 37.5 28.5s11.166 28.5 14.499 28.5c4.66699 0 7 -4.66699 7 -14z" />
    <glyph glyph-name="threesuperior" unicode="&#xb3;" horiz-adv-x="335" 
d="M277 466c0 -24 -10.334 -44.665 -31.001 -61.998s-46.334 -26 -77.001 -26c-23.333 0 -43.666 5 -60.999 15c-20.667 11.333 -31 26.666 -31 45.999c0 22 11.333 33 34 33s34 -11 34 -33c0 -12 -8.33301 -21.667 -25 -29h-1c0 -0.666992 0.333008 -1.66699 1 -3
c10.667 -7.33301 25.334 -11 44.001 -11c40 0 60 23.333 60 70c0 42 -21.667 63 -65 63h-17c-7.33301 -0.666992 -12.333 -1 -15 -1c-10 0 -15 3.33301 -15 10c0 7.33301 5 11 15 11c2.66699 0 7.83398 -0.333008 15.501 -1s13.167 -1 16.5 -1c40 0 60 20 60 60
c0 34 -16.333 51 -49 51c-28.667 0 -43 -3.33301 -43 -10c-0.666992 0.666992 -0.333984 1 0.999023 1c14.667 -4 22 -13.333 22 -28c0 -18 -11 -27 -33 -27c-20.667 0 -31 10.333 -31 31c0 12 6.66699 23 20 33c16.667 12 39 18 67 18c27.333 0 50.333 -5.66699 69 -17
c21.333 -13.333 32 -32 32 -56c0 -30.667 -19.333 -52.667 -58 -66c40.667 -12.667 61 -36.334 61 -71.001z" />
    <glyph glyph-name="acute" unicode="&#xb4;" horiz-adv-x="404" 
d="M371 622l-175 -154l-13 9l85 145h103z" />
    <glyph glyph-name="micro" unicode="&#xb5;" horiz-adv-x="576" 
d="M534 100c-5.33301 -76 -37.334 -114.001 -96.001 -114.001c-46 0 -72 31 -78 93c-52.667 -62 -103.667 -93 -153 -93c-30 0 -55.333 14 -76 42v-23c0 -25.333 5.33301 -64 16 -116c4.66699 -20 7 -37 7 -51s-4.33301 -26.5 -13 -37.5s-19.667 -16.5 -33 -16.5
c-28.667 0 -43 17.667 -43 53c0 15.333 5 42.333 15 81c6 25.333 9.33301 42.333 10 51c4 35.333 6 64.333 6 87v10v13v14v354h80v-260c0 -46.667 3 -79 9 -97c9.33301 -29.333 29.333 -44 60 -44c38.667 0 77 22 115 66v335h81v-319c0 -33.333 1.33301 -54.666 4 -63.999
c4.66699 -16.667 14.334 -25 29.001 -25c20 0 33.333 20.333 40 61h20z" />
    <glyph glyph-name="micro" unicode="&#x3bc;" horiz-adv-x="576" 
d="M534 100c-5.33301 -76 -37.334 -114.001 -96.001 -114.001c-46 0 -72 31 -78 93c-52.667 -62 -103.667 -93 -153 -93c-30 0 -55.333 14 -76 42v-23c0 -25.333 5.33301 -64 16 -116c4.66699 -20 7 -37 7 -51s-4.33301 -26.5 -13 -37.5s-19.667 -16.5 -33 -16.5
c-28.667 0 -43 17.667 -43 53c0 15.333 5 42.333 15 81c6 25.333 9.33301 42.333 10 51c4 35.333 6 64.333 6 87v10v13v14v354h80v-260c0 -46.667 3 -79 9 -97c9.33301 -29.333 29.333 -44 60 -44c38.667 0 77 22 115 66v335h81v-319c0 -33.333 1.33301 -54.666 4 -63.999
c4.66699 -16.667 14.334 -25 29.001 -25c20 0 33.333 20.333 40 61h20z" />
    <glyph glyph-name="paragraph" unicode="&#xb6;" horiz-adv-x="664" 
d="M625 621h-89v-725h-65v725h-79v-725h-64v395h-65c-66.667 0 -120.667 14.333 -162 43c-44.667 31.333 -67 76 -67 134s22.333 102.667 67 134c41.333 28.667 95.333 43 162 43h362v-24z" />
    <glyph glyph-name="periodcentered" unicode="&#xb7;" horiz-adv-x="231" 
d="M172 309c0 -14.667 -5.83301 -27 -17.5 -37s-25.834 -15 -42.501 -15s-30.834 5 -42.501 15s-17.5 22.333 -17.5 37s5.83301 27 17.5 37s25.834 15 42.501 15s30.834 -5 42.501 -15s17.5 -22.333 17.5 -37z" />
    <glyph glyph-name="periodcentered" unicode="&#x2219;" horiz-adv-x="231" 
d="M172 309c0 -14.667 -5.83301 -27 -17.5 -37s-25.834 -15 -42.501 -15s-30.834 5 -42.501 15s-17.5 22.333 -17.5 37s5.83301 27 17.5 37s25.834 15 42.501 15s30.834 -5 42.501 -15s17.5 -22.333 17.5 -37z" />
    <glyph glyph-name="cedilla" unicode="&#xb8;" horiz-adv-x="359" 
d="M266 -101c0 -16.667 -6.66895 -29.999 -20.002 -39.999s-30.666 -15 -51.999 -15c-28 0 -51.667 13 -71 39c-3.33301 4.66699 -5 9 -5 13c0 5.33301 2.66699 8 8 8c2.66699 0 9.33398 -4.16699 20.001 -12.5s21.667 -12.5 33 -12.5c24 0 36 9.33301 36 28
c0 16 -11.667 28.333 -35 37l14 56h34l-11 -45c32.667 -10.667 49 -29.334 49 -56.001z" />
    <glyph glyph-name="onesuperior" unicode="&#xb9;" horiz-adv-x="288" 
d="M234 385h-149v18h46v247l-48 -5v17l97 11l8 -5v-265h46v-18z" />
    <glyph glyph-name="ordmasculine" unicode="&#xba;" horiz-adv-x="327" 
d="M293 477c0 -28.667 -11.333 -55.667 -34 -81c-25.333 -28 -56 -42 -92 -42s-67 14 -93 42c-22.667 25.333 -34 52.333 -34 81s11.333 55.334 34 80.001c26 27.333 57 41 93 41s66.667 -13.667 92 -41c22.667 -24.667 34 -51.334 34 -80.001zM304 284h-278v38h278v-38z
M219 464v24c0 30.667 -1.66699 51 -5 61c-7.33301 20.667 -23 31 -47 31s-40 -10 -48 -30c-4 -12 -6 -32.667 -6 -62v-24c0 -30 2 -50.667 6 -62c7.33301 -20 23.333 -30 48 -30c24 0 39.333 10.333 46 31c4 10.667 6 31 6 61z" />
    <glyph glyph-name="guillemotright" unicode="&#xbb;" horiz-adv-x="426" 
d="M422 258l-179 -150h-29l129 150l-129 150h29zM266 258l-179 -150h-29l129 150l-129 150h29z" />
    <glyph glyph-name="onequarter" unicode="&#xbc;" horiz-adv-x="387" 
d="M286 380h-149v18h46v251l-48 -4v17l97 11l7 -5v-270h47v-18zM363 331h-309v29h309v-29zM327 45h-18.999v40h-45v-67h41v-19h-134v19h40v67h-110v16c7.33301 13.333 23.666 39 48.999 77c38 54.667 67.667 96 89 124h25v-198h45v43h19v-102zM210.001 104v130.001l-43 -59
c-14 -20.667 -29 -44.334 -45 -71.001h88z" />
    <glyph glyph-name="onehalf" unicode="&#xbd;" horiz-adv-x="387" 
d="M286 380h-149v18h46v251l-48 -4v17l97 11l7 -5v-270h47v-18zM356 325h-310v30h310v-30zM320 87v-3.99707l-6 -83h-213v28l114 100c28.667 24.667 43 54.667 43 90c0 37.333 -19 56 -57 56c-14.667 0 -28.334 -2.83301 -41.001 -8.5s-19 -10.834 -19 -15.501h2h6
c8.66699 0 16 -2.83301 22 -8.5s9 -12.167 9 -19.5c0 -20.667 -12.333 -31 -37 -31c-23.333 0 -35 11.333 -35 34c0 21.333 10.333 38.166 31 50.499s45.334 18.5 74.001 18.5c27.333 0 50 -5 68 -15c22.667 -12.667 34 -31.334 34 -56.001c0 -28.667 -28 -65 -84 -109
l-87 -70h117c18.667 0 31 9.66699 37 29s10.667 29 14 29c5.33301 0 8 -5 8 -15z" />
    <glyph glyph-name="threequarters" unicode="&#xbe;" horiz-adv-x="387" 
d="M313 463c0 -24.667 -10.333 -45.833 -31 -63.5s-46.334 -26.5 -77.001 -26.5c-23.333 0 -43.666 5 -60.999 15c-20.667 11.333 -31 27 -31 47c0 22 11.333 33 34 33s34 -11 34 -33c0 -12 -8.33301 -21.667 -25 -29l-1 -1c0 -0.666992 0.333008 -1.66699 1 -3
c11.333 -8 26 -12 44 -12c40 0 60 24 60 72c0 43.333 -21.667 65 -65 65c-3.33301 0 -9 -0.333008 -17 -1h-15c-10 0 -15 3.33301 -15 10c0 7.33301 5 11 15 11c2.66699 0 7.83398 -0.333008 15.501 -1s13.167 -1 16.5 -1c40 0 60 20.333 60 61c0 36 -16.333 54 -49 54
c-4.66699 0 -12.334 -1 -23.001 -3c-13.333 -2.66699 -20 -5.33398 -20 -8.00098l12 -6c7.33301 -5.33301 11 -13 11 -23c0 -18 -11 -27 -33 -27c-20.667 0 -31 10.333 -31 31c0 12 6.66699 23 20 33c16.667 12.667 39 19 67 19c27.333 0 50.333 -6 69 -18
c21.333 -13.333 32 -32 32 -56c0 -31.333 -19.333 -53.666 -58 -66.999c40.667 -12.667 61 -36.667 61 -72zM356 320.001h-310v29h310v-29zM327 45.001h-18.999v40h-45v-67h41v-19h-134v19h40v67h-110v16c7.33301 13.333 23.666 39 48.999 77c38 54.667 67.667 96 89 124h25
v-198h45v43h19v-102zM210.001 104.001v130l-43 -59c-14 -20 -29 -43.667 -45 -71h88z" />
    <glyph glyph-name="questiondown" unicode="&#xbf;" horiz-adv-x="415" 
d="M292 448c0 -15.333 -5.83301 -28.333 -17.5 -39s-25.834 -16 -42.501 -16s-30.834 5.33301 -42.501 16s-17.5 23.667 -17.5 39c0 16 5.83301 29.333 17.5 40s25.834 16 42.501 16s30.834 -5.33301 42.501 -16s17.5 -24 17.5 -40zM369 -38
c0 -26 -14.666 -48.332 -43.999 -66.999c-32 -19.333 -73 -29 -123 -29c-51.333 0 -91.5 11.667 -120.5 35s-43.5 57 -43.5 101c0 29.333 8.66699 57 26 83c11.333 17.333 31.333 38.333 60 63l58 51c26 25.333 39 44.333 39 57c0 17.333 -0.333008 28.666 -1 33.999
c-1.33301 10.667 -2 17.334 -2 20.001c0 7.33301 4.33301 11 13 11c6.66699 0 10.667 -3.33301 12 -10c8.66699 -39.333 13 -72.333 13 -99c0 -26 -3.33301 -46 -10 -60c-10.667 -22.667 -27 -45 -49 -67l-59 -57c-24.667 -28.667 -37 -53.334 -37 -74.001
c0 -17.333 7.66699 -32 23 -44c18 -13.333 43.333 -20 76 -20c31.333 0 56.333 3.66699 75 11c13.333 6 20 10.667 20 14l-1 -2c-31.333 6 -47 22.667 -47 50c0 15.333 5.83301 28 17.5 38s26.5 15 44.5 15c17.333 0 31.666 -5 42.999 -15s17 -23 17 -39z" />
    <glyph glyph-name="multiply" unicode="&#xd7;" horiz-adv-x="581" 
d="M549 427l-202 -184l202 -186l-56 -51l-203 186l-201 -186l-56 51l201 186l-201 184l56 52l201 -186l203 186z" />
    <glyph glyph-name="divide" unicode="&#xf7;" horiz-adv-x="382" 
d="M255 385c0 -15.333 -5.83301 -28.333 -17.5 -39s-25.834 -16 -42.501 -16s-30.834 5.33301 -42.501 16s-17.5 23.667 -17.5 39s5.83301 28.333 17.5 39s25.834 16 42.501 16s30.834 -5.33301 42.501 -16s17.5 -23.667 17.5 -39zM336 225h-283v58h283v-58zM255 116
c0 -15.333 -5.83301 -28.333 -17.5 -39s-25.834 -16 -42.501 -16s-30.834 5.33301 -42.501 16s-17.5 23.667 -17.5 39s5.83301 28.333 17.5 39s25.834 16 42.501 16s30.834 -5.33301 42.501 -16s17.5 -23.667 17.5 -39z" />
    <glyph glyph-name="florin" unicode="&#x192;" horiz-adv-x="500" 
d="M488 623c0 -25.333 -10.999 -38.001 -32.999 -38.001c-8 0 -15.167 2.66699 -21.5 8s-9.5 11.666 -9.5 18.999c0 4.66699 1.83301 10.334 5.5 17.001s5.5 11 5.5 13c0 8.66699 -6 13 -18 13c-27.333 0 -48.333 -32.333 -63 -97l-19 -131h87l-8 -32h-85
c-17.333 -89.333 -45.333 -204.666 -84 -345.999c-30 -110 -63.333 -183 -100 -219c-27.333 -26.667 -55.333 -40 -84 -40c-16.667 0 -30.834 4.5 -42.501 13.5s-17.5 21.5 -17.5 37.5c0 11.333 3.5 21.333 10.5 30s16.167 13 27.5 13c7.33301 0 14.333 -2.66699 21 -8
s10 -11.666 10 -18.999c0 -5.33301 -1.83301 -11 -5.5 -17s-5.5 -9.66699 -5.5 -11c0 -6.66699 4 -10 12 -10c16 0 31.667 12 47 36c8.66699 14.667 18.334 43.334 29.001 86.001c2.66699 12 16.667 79.667 42 203c2 10 22 93.667 60 251h-86l7 32l44 4
c20 3.33301 35 13.666 45 30.999c4.66699 7.33301 12 25.333 22 54c16.667 49.333 32 84.333 46 105c25.333 37.333 56.666 56 93.999 56c18 0 33.333 -4.33301 46 -13c14 -10.667 21 -24.334 21 -41.001z" />
    <glyph glyph-name="sheva" unicode="&#x5b0;" 
d="M214 -133c0 -4 -0.331055 -6.83105 -0.998047 -8.49805s-2 -4.5 -4 -8.5c-5.33301 -3.33301 -16.333 -7 -33 -11l-3 8c-2.66699 3.33301 -8 8 -16 14c3.33301 13.333 6 21 8 23c3.33301 5.33301 11.666 8 24.999 8h6c1.33301 -2.66699 4.66602 -6.33398 9.99902 -11.001
s8 -9.33398 8 -14.001zM204.002 -208.998c0 -4 -0.167969 -6.66797 -0.500977 -8.00098s-1 -3 -2 -5l-2.5 -5c-5.33301 -3.33301 -16.333 -6.66602 -33 -9.99902l-3 8c-2.66699 2.66699 -8 7 -16 13c3.33301 13.333 6.33301 21.833 9 25.5s10.667 5.5 24 5.5h6
c0.666992 -2 4.33398 -5.66699 11.001 -11c4.66699 -4 7 -8.33301 7 -13z" />
    <glyph glyph-name="hatafsegol" unicode="&#x5b1;" 
d="M309 -133c0 -4 -0.331055 -6.83105 -0.998047 -8.49805s-2 -4.5 -4 -8.5c-5.33301 -3.33301 -16.333 -7 -33 -11l-3 8c-2.66699 3.33301 -8 8 -16 14c3.33301 13.333 6 21 8 23c3.33301 5.33301 11.666 8 24.999 8h6c1.33301 -2.66699 4.66602 -6.33398 9.99902 -11.001
s8 -9.33398 8 -14.001zM224.002 -143.998c-2 -0.666992 -5.50098 -3.66602 -10.501 -8.99902s-10.5 -8 -16.5 -8c-2 0 -8 1.66699 -18 5c-3.33301 5.33301 -7.33301 15.666 -12 30.999l9 2c3.33301 2.66699 8 7.66699 14 15c14.667 -2.66699 23.334 -4.66699 26.001 -6
c5.33301 -4 8 -12 8 -24v-6zM299.001 -208.997c0 -4 -0.167969 -6.66797 -0.500977 -8.00098s-1 -3 -2 -5l-2.5 -5c-5.33301 -3.33301 -16.333 -6.66602 -33 -9.99902l-3 8c-2.66699 2.66699 -8 7 -16 13c3.33301 13.333 6.33301 21.833 9 25.5s10.667 5.5 24 5.5h6
c0.666992 -2 4.33398 -5.66699 11.001 -11c4.66699 -4 7 -8.33301 7 -13zM126 -143.998c-2 -0.666992 -5.50098 -3.66602 -10.501 -8.99902s-10.5 -8 -16.5 -8c-2 0 -8 1.66699 -18 5c-3.33301 5.33301 -7.33301 15.666 -12 30.999l9 2c3.33301 2.66699 8 7.66699 14 15
c14.667 -2.66699 23.334 -4.66699 26.001 -6c5.33301 -4 8 -12 8 -24v-6zM167.999 -219.997c-2 -0.666992 -5.5 -3.66699 -10.5 -9s-10.5 -8 -16.5 -8c-2 0 -8 1.66699 -18 5c-3.33301 4.66699 -7.33301 14.667 -12 30l9 3c3.33301 2.66699 8 7.66699 14 15
c14 -2.66699 22.667 -5 26 -7c5.33301 -4 8 -12 8 -24v-5z" />
    <glyph glyph-name="hatafpatah" unicode="&#x5b2;" 
d="M297 -133c0 -4 -0.331055 -6.83105 -0.998047 -8.49805s-2 -4.5 -4 -8.5c-5.33301 -3.33301 -16.333 -7 -33 -11l-3 8c-2.66699 3.33301 -8 8 -16 14c3.33301 13.333 6 21 8 23c3.33301 5.33301 11.666 8 24.999 8h6c1.33301 -2.66699 4.66602 -6.33398 9.99902 -11.001
s8 -9.33398 8 -14.001zM287.002 -208.998c0 -4 -0.167969 -6.66797 -0.500977 -8.00098s-1 -3 -2 -5l-2.5 -5c-5.33301 -3.33301 -16.333 -6.66602 -33 -9.99902l-3 8c-2.66699 2.66699 -8 7 -16 13c3.33301 13.333 6.33301 21.833 9 25.5s10.667 5.5 24 5.5h6
c0.666992 -2 4.33398 -5.66699 11.001 -11c4.66699 -4 7 -8.33301 7 -13zM214.001 -121.999c-0.666992 -6.66699 -1.66602 -13.668 -2.99902 -21.001s-5 -12 -11 -14c-10.667 -2.66699 -27.334 -0.666992 -50.001 6c-8 0 -21.333 1.66699 -40 5
c-6 0.666992 -14.667 2.33398 -26 5.00098c-19.333 4 -30 8.66699 -32 14c-2 4.66699 -0.333008 10 5 16c-1.33301 0 6 1 22 3l13.5 1c9 0.666992 19.167 0.333984 30.5 -0.999023c10 -0.666992 27.667 -2.33398 53 -5.00098h14c8.66699 0 16.667 -3 24 -9z" />
    <glyph glyph-name="hatafqamats" unicode="&#x5b3;" 
d="M307 -133c0 -2.66699 -0.332031 -5.16602 -0.999023 -7.49902s-2 -5.5 -4 -9.5c-5.33301 -3.33301 -16.333 -7 -33 -11l-3 8c-2.66699 3.33301 -8 8 -16 14c2.66699 12.667 5 20.334 7 23.001c4 5.33301 12.667 8 26 8h6
c1.33301 -2.66699 4.66602 -6.33398 9.99902 -11.001s8 -9.33398 8 -14.001zM297.001 -208.999c0 -2 -0.333984 -4.50098 -1.00098 -7.50098s-2 -6.5 -4 -10.5c-5.33301 -3.33301 -16.333 -6.66602 -33 -9.99902l-3 8c-2.66699 2.66699 -8 7 -16 13
c2.66699 12.667 5.5 21 8.5 25s11.167 6 24.5 6h6c0.666992 -2 4.33398 -5.66699 11.001 -11c4.66699 -4 7 -8.33301 7 -13zM229 -122l-3.00195 -23.002c-1.33301 -11.333 -4.66602 -17.666 -9.99902 -18.999c-9.33301 0 -24.666 3 -45.999 9
c-2.66699 -10 -7.66699 -22 -15 -36c3.33301 -14.667 -2 -23.667 -16 -27c-4 -0.666992 -9 1 -15 5c0.666992 2 0 8 -2 18c2 2 2.16699 6 0.5 12s-1.16699 11.333 1.5 16v1c-2.66699 6.66699 -3 14.334 -1 23.001c-6 0.666992 -14 2.33398 -24 5.00098
c-5.33301 -1.33301 -11.833 -0.833008 -19.5 1.5s-12.167 6.16602 -13.5 11.499c-2 4 -0.666992 8.66699 4 14c1.33301 0 9 1 23 3h13c11.333 2.66699 23 2.66699 35 0c12 -1.33301 29 -3 51 -5l-3 -1c0.666992 0.666992 7 1 19 1c4 -0.666992 11 -3.66699 21 -9z" />
    <glyph glyph-name="hiriq" unicode="&#x5b4;" 
d="M211 -140c-2 -0.666992 -5.5 -3.33203 -10.5 -7.99902s-10.5 -7 -16.5 -7c-4 0 -10 1.33301 -18 4c-3.33301 4.66699 -7.33301 14 -12 28l9 2c3.33301 2 8 6.33301 14 13c14 -2 23.167 -4.33301 27.5 -7s6.5 -9.33398 6.5 -20.001v-5z" />
    <glyph glyph-name="tsere" unicode="&#x5b5;" 
d="M263 -140c-2 -0.666992 -5.5 -3.33203 -10.5 -7.99902s-10.5 -7 -16.5 -7c-4 0 -10 1.33301 -18 4c-3.33301 4.66699 -7.33301 14 -12 28l9 2c3.33301 2 8 6.33301 14 13c14 -2 23.167 -4.33301 27.5 -7s6.5 -9.33398 6.5 -20.001v-5zM170 -139.998
c-2 -0.666992 -5.5 -3.33203 -10.5 -7.99902s-10.5 -7 -16.5 -7c-4 0 -10 1.33301 -18 4c-3.33301 4.66699 -7.33301 14 -12 28l9 2c3.33301 2 8 6.33301 14 13c14 -2 23.167 -4.33301 27.5 -7s6.5 -9.33398 6.5 -20.001v-5z" />
    <glyph glyph-name="segol" unicode="&#x5b6;" 
d="M270 -144c-2 -0.666992 -5.50098 -3.66602 -10.501 -8.99902s-10.5 -8 -16.5 -8c-2 0 -8 1.66699 -18 5c-3.33301 5.33301 -7.33301 15.666 -12 30.999l9 2c3.33301 2.66699 8 7.66699 14 15c14.667 -2.66699 23.334 -4.66699 26.001 -6c5.33301 -4 8 -12 8 -24v-6z
M171.999 -143.999c-2 -0.666992 -5.50098 -3.66602 -10.501 -8.99902s-10.5 -8 -16.5 -8c-2 0 -8 1.66699 -18 5c-3.33301 5.33301 -7.33301 15.666 -12 30.999l9 2c3.33301 2.66699 8 7.66699 14 15c14.667 -2.66699 23.334 -4.66699 26.001 -6c5.33301 -4 8 -12 8 -24v-6z
M213.998 -219.998c-2 -0.666992 -5.5 -3.66699 -10.5 -9s-10.5 -8 -16.5 -8c-2 0 -8 1.66699 -18 5c-3.33301 4.66699 -7.33301 14.667 -12 30l9 3c3.33301 2.66699 8 7.66699 14 15c14 -2.66699 22.667 -5 26 -7c5.33301 -4 8 -12 8 -24v-5z" />
    <glyph glyph-name="patah" unicode="&#x5b7;" 
d="M265 -120c-0.666992 -6 -1.66797 -12.334 -3.00098 -19.001s-5 -10.667 -11 -12c-6 -2 -22.667 -0.333008 -50 5c-2 0 -15.333 1.66699 -40 5c-6 0 -14.667 1 -26 3c-18.667 2 -29.334 6.33301 -32.001 13c-1.33301 4 0.333984 9 5.00098 15c4 0 11.333 0.666992 22 2
l13.5 1c9 0.666992 19.167 0.333984 30.5 -0.999023c2.66699 -0.666992 20.334 -2 53.001 -4h14c8.66699 0 16.667 -2.66699 24 -8z" />
    <glyph glyph-name="qamats" unicode="&#x5b8;" 
d="M257 -122l-3.00195 -23.002c-1.33301 -11.333 -4.66602 -17.666 -9.99902 -18.999c-9.33301 0 -24.666 3 -45.999 9c-2.66699 -10 -7.66699 -22 -15 -36c3.33301 -14.667 -2 -23.667 -16 -27c-4 -0.666992 -9 1 -15 5c0.666992 2 0 8 -2 18c2 2 2.16699 6 0.5 12
s-1.16699 11.333 1.5 16v1c-2.66699 6.66699 -3 14.334 -1 23.001c-6 0.666992 -14 2.33398 -24 5.00098c-5.33301 -1.33301 -11.833 -0.833008 -19.5 1.5s-12.167 6.16602 -13.5 11.499c-2 4 -0.666992 8.66699 4 14c1.33301 0 9 1 23 3h13c11.333 2.66699 23 2.66699 35 0
c12 -1.33301 29 -3 51 -5l-3 -1c0.666992 0.666992 7 1 19 1c4 -0.666992 11 -3.66699 21 -9z" />
    <glyph glyph-name="holam" unicode="&#x5b9;" 
d="M124 500c-2 -0.666992 -6.83105 -5.5 -14.498 -14.5s-14.834 -13.5 -21.501 -13.5c-4.66699 0 -13.334 2.33301 -26.001 7c-4.66699 8.66699 -10 23 -16 43l11 3c2 3.33301 5.83301 7.5 11.5 12.5s9.5 9.16699 11.5 12.5c20 -4 32.333 -8.16699 37 -12.5s7 -15.5 7 -33.5
v-4z" />
    <glyph glyph-name="qibuts" unicode="&#x5bb;" 
d="M147 -144c-2 -0.666992 -5.50098 -3.83203 -10.501 -9.49902s-10.5 -8.5 -16.5 -8.5c-2 0 -8 1.66699 -18 5c-3.33301 5.33301 -7.33301 15.666 -12 30.999l9 3c3.33301 2.66699 8 7.66699 14 15c14.667 -2.66699 23.334 -5 26.001 -7c5.33301 -3.33301 8 -11.333 8 -24
v-5zM192.999 -208.998c-2 -0.666992 -5.50098 -3.66797 -10.501 -9.00098s-10.5 -8 -16.5 -8c-4 0 -10 1.33301 -18 4c-3.33301 5.33301 -7.33301 16 -12 32l9 2c3.33301 2.66699 8 8 14 16c14.667 -3.33301 23.334 -5.66602 26.001 -6.99902c5.33301 -4 8 -12 8 -24v-6z
M243.998 -272.999c-2 -0.666992 -5.5 -3.66602 -10.5 -8.99902s-10.5 -8 -16.5 -8c-2 0 -8 1.66699 -18 5c-3.33301 5.33301 -7.33301 15.666 -12 30.999l9 3c3.33301 2.66699 8 7.66699 14 15c14 -2.66699 22.667 -5 26 -7c5.33301 -4 8 -12 8 -24v-6z" />
    <glyph glyph-name="dagesh" unicode="&#x5bc;" 
d="M283 227c-4 -1.33301 -10.335 -6.66699 -19.002 -16c-7.33301 -6.66699 -15.333 -10 -24 -10c-5.33301 0 -15.666 2.33301 -30.999 7c-5.33301 8 -11.666 23.333 -18.999 46l14 4c6 4.66699 14.333 12 25 22c24.667 -4 39 -7.66699 43 -11c8 -6 11.667 -20 11 -42z" />
    <glyph glyph-name="meteg" unicode="&#x5bd;" horiz-adv-x="45" 
d="M45 -193h-45v127h45v-127z" />
    <glyph glyph-name="maqaf" unicode="&#x5be;" horiz-adv-x="194" 
d="M290 344c0 -6 -3.99805 -11.335 -11.998 -16.002c-4.66699 -3.33301 -25.667 -6.66602 -63 -9.99902c-32.667 -2.66699 -55.334 -4 -68.001 -4c-64 0 -96 15.333 -96 46c0 4.66699 1.33301 13.334 4 26.001c24 -10 39.333 -15 46 -15c12.667 0 31.667 1.16699 57 3.5
s44.333 3.5 57 3.5c9.33301 0 24.166 -3.83301 44.499 -11.5s30.5 -15.167 30.5 -22.5z" />
    <glyph glyph-name="rafe" unicode="&#x5bf;" horiz-adv-x="332" 
d="M307 204c0 -6.66699 -3.99805 -12.335 -11.998 -17.002c-4.66699 -2.66699 -25.667 -5.66699 -63 -9c-32.667 -3.33301 -55.334 -5 -68.001 -5c-64 0 -96 15.333 -96 46c0 4.66699 1.33301 13.334 4 26.001c24 -10 39.333 -15 46 -15c12.667 0 31.667 1.16699 57 3.5
s44.333 3.5 57 3.5c9.33301 0 24.166 -3.66699 44.499 -11s30.5 -14.666 30.5 -21.999z" />
    <glyph glyph-name="paseq" unicode="&#x5c0;" horiz-adv-x="222" 
d="M140 -158h-58v730h58v-730z" />
    <glyph glyph-name="shindot" unicode="&#x5c1;" horiz-adv-x="581" 
d="M542 543c0 -10.667 -3.66699 -19.667 -11 -27s-16.333 -11 -27 -11s-19.667 3.66699 -27 11s-11 16.333 -11 27s3.66699 19.667 11 27s16.333 11 27 11s19.667 -3.66699 27 -11s11 -16.333 11 -27z" />
    <glyph glyph-name="sindot" unicode="&#x5c2;" horiz-adv-x="581" 
d="M174 543c0 -10.667 -3.66699 -19.667 -11 -27s-16.333 -11 -27 -11s-19.667 3.66699 -27 11s-11 16.333 -11 27s3.66699 19.667 11 27s16.333 11 27 11s19.667 -3.66699 27 -11s11 -16.333 11 -27z" />
    <glyph glyph-name="sofpasuq" unicode="&#x5c3;" horiz-adv-x="255" 
d="M193 284c-1.33301 -3.33301 -4.33301 -9 -9 -17c0.666992 -2.66699 1 -6 1 -10v-7c-0.666992 -3.33301 -1 -6 -1 -8l-3 -10c-9.33301 -0.666992 -23 -1 -41 -1c-10.667 0 -19.667 6.33301 -27 19c-4 6.66699 -9 13.667 -15 21c1.33301 14 6.33301 26 15 36l26 30
c13.333 -4.66699 26.333 -9.66699 39 -15c8 -5.33301 13 -18 15 -38zM161 102c0 -3.33301 -3.33496 -10.667 -10.002 -22c3.33301 -8 5 -13 5 -15c0 -10 -10.667 -15 -32 -15c0.666992 0 -2.16602 -1.5 -8.49902 -4.5s-12.5 -4.5 -18.5 -4.5c-2 2 -15.333 18 -40 48
c0.666992 10 6.33398 21.333 17.001 34c8 10.667 16.333 21 25 31c41.333 -22 62 -39.333 62 -52z" />
    <glyph glyph-name="alef" unicode="&#x5d0;" horiz-adv-x="466" 
d="M521 182c-2.66699 -12 -10.001 -23.6689 -22.001 -35.002c-4 0 -8.66699 -2.33301 -14 -7s-9.33301 -7.66699 -12 -9c-16 -6 -39.667 -15.667 -71 -29c-17.333 -8 -28.666 -12 -33.999 -12h-3c-0.666992 0 -8.66699 -2 -24 -6c-8 -1.33301 -20.333 -3.66602 -37 -6.99902
c-11.333 -3.33301 -26.666 -5 -45.999 -5c-35.333 0 -60.333 2.66699 -75 8c-22 7.33301 -40.667 23 -56 47c-8.66699 -20.667 -20.334 -41 -35.001 -61l-36.5 -61.5c-12.333 -20.333 -32.166 -35.166 -59.499 -44.499l-16 20c6.66699 13.333 15 34.666 25 63.999
c10.667 32.667 15.667 54 15 64c6 4 10 9.16699 12 15.5l6 19.5l36 77c16.667 36 26 60.667 28 74c6 12.667 17.667 30.334 35 53.001c2.66699 11.333 7.33398 23.666 14.001 36.999c5.33301 4 12.333 12.833 21 26.5s13.334 23.167 14.001 28.5
c11.333 8.66699 21.333 24.334 30 47.001c16.667 16 37.667 43.333 63 82c5.33301 3.33301 14.333 17 27 41c11.333 20 19 35.333 23 46c11.333 -5.33301 21.166 -14.5 29.499 -27.5s12.5 -25.833 12.5 -38.5c0 -22 -13.333 -56.333 -40 -103
c-36.667 -62.667 -56 -96.334 -58 -101.001c-17.333 -12.667 -34 -33.667 -50 -63c5.33301 4.66699 17.5 13.5 36.5 26.5s31.167 20.5 36.5 22.5l24 10c7.33301 -3.33301 21.333 -11 42 -23s32.167 -19.833 34.5 -23.5s5.16602 -16.834 8.49902 -39.501l-49 -4
c-10.667 -2 -27.334 -6.33301 -50.001 -13c-11.333 -3.33301 -31.833 -19.166 -61.5 -47.499s-47.5 -48.166 -53.5 -59.499c14 -14 29.333 -21 46 -21c36 0 68.333 2.66699 97 8c2.66699 0 33.667 6.66699 93 20c12 0.666992 29.667 5 53 13c6.66699 4 12.667 6 18 6
c2.66699 0 6.66699 -0.666992 12 -2z" />
    <glyph glyph-name="bet" unicode="&#x5d1;" horiz-adv-x="480" 
d="M515 351c0 -10 -3.33496 -18.3281 -10.002 -24.9951c-11.333 -11.333 -30 -25.333 -56 -42c-8 -5.33301 -21.833 -11 -41.5 -17s-33.834 -12 -42.501 -18l-74 -48c-8 -6.66699 -21 -15.334 -39 -26.001c-4 -6.66699 -11 -14 -21 -22
c-12 -8.66699 -19.667 -15.334 -23 -20.001c-10.667 -14.667 -28 -34.667 -52 -60c-1.33301 -6 -6.66602 -15 -15.999 -27c-2 -4 -5.66699 -9.33301 -11 -16c-0.666992 -4 -1.83398 -9.33301 -3.50098 -16s-2.5 -11.334 -2.5 -14.001c0 -4.66699 0.666992 -11.167 2 -19.5
s2 -14.5 2 -18.5c0 -11.333 -13.667 -21.666 -41 -30.999c0.666992 3.33301 1 8.33301 1 15c0 7.33301 -4.5 19.833 -13.5 37.5s-13.5 33.167 -13.5 46.5c0 23.333 8.16699 48.666 24.5 75.999s34.5 47.333 54.5 60c4 2 6 3.33301 6 4l4 7c5.33301 4.66699 13.333 11 24 19
c3.33301 1.33301 11 8.66602 23 21.999c1.33301 2 8 8.33301 20 19c29.333 27.333 53.833 45.833 73.5 55.5l57.5 29c18.667 9.66699 36.667 23.5 54 41.5c-10.667 4.66699 -41.667 7 -93 7c-30.667 0 -61 -4.33301 -91 -13c-5.33301 -1.33301 -17.166 -7 -35.499 -17
s-30.5 -15 -36.5 -15c-19.333 0 -38.666 15.667 -57.999 47c21.333 25.333 57 45.333 107 60c42 12 83.333 18 124 18c52 0 94 -8 126 -24l29 -18h3c0.666992 -0.666992 1.33398 -1 2.00098 -1c24.667 -10.667 37 -29.334 37 -56.001z" />
    <glyph glyph-name="gimel" unicode="&#x5d2;" horiz-adv-x="479" 
d="M442 341c0 -14 -6.33691 -21.002 -19.0039 -21.002c-3.33301 0 -8.66602 1.16699 -15.999 3.5s-13 3.5 -17 3.5c-5.33301 0 -17.666 -1 -36.999 -3c-24 -2 -37.333 -3 -40 -3l-60 -34c-3.33301 -3.33301 -16 -12 -38 -26c-77.333 -50.667 -116 -96 -116 -136
c0 -6.66699 1.33301 -16.334 4 -29.001s5.83398 -20.167 9.50098 -22.5s14.167 -5.16602 31.5 -8.49902s30 -5 38 -5c54 0 133.667 14.333 239 43l8 -19l-16 -11c-8 -9.33301 -17.667 -14.666 -29 -15.999l-1 -4c-11.333 -2.66699 -17.666 -4 -18.999 -4
c-6.66699 -2.66699 -12 -6.33398 -16 -11.001h-12c-9.33301 -6.66699 -21.333 -11.334 -36 -14.001c-19.333 -4 -31.666 -7 -36.999 -9l-1 -5c-20 -8 -43 -12 -69 -12c-70 0 -112.333 14.333 -127 43c-1.33301 4.66699 -5.66602 11.667 -12.999 21
c-20 16.667 -30 39.334 -30 68.001c0 24.667 12.667 55 38 91c1.33301 2 3 5.33301 5 10l9 4c2 8 5.66699 13.333 11 16c8 4 12.333 6.33301 13 7c10 10 28.333 25.667 55 47c31.333 25.333 52.333 40 63 44c7.33301 6.66699 23.333 19.334 48 38.001
c-14.667 7.33301 -24.334 15.333 -29.001 24l-15 33c-3.33301 6 -5 11 -5 15c0 9.33301 5.33301 14 16 14c6.66699 0 22.667 -6.33301 48 -19c22 -12 39 -22 51 -30c0.666992 0 1.66699 0.333008 3 1h3c17.333 0 39.166 -9.66699 65.499 -29s39.5 -37.666 39.5 -54.999z" />
    <glyph glyph-name="dalet" unicode="&#x5d3;" horiz-adv-x="358" 
d="M344 360c0 -21.333 -8.33301 -39.998 -25 -55.998c-10 -7.33301 -25 -19 -45 -35c-10.667 -9.33301 -29.334 -23 -56.001 -41c35.333 -22 53 -46 53 -72c0 -9.33301 -2.66699 -18.666 -8 -27.999c-3.33301 -5.33301 -5.33301 -10.333 -6 -15
c-1.33301 -6.66699 -4 -11.5 -8 -14.5l-11 -8.5c-2 -5.33301 -6 -12.833 -12 -22.5s-12.333 -19.167 -19 -28.5c-8.66699 -12 -16.667 -20 -24 -24c-4.66699 -2.66699 -9 -7.33398 -13 -14.001c-5.33301 -8.66699 -9.66602 -14.334 -12.999 -17.001
c-5.33301 -4.66699 -12.333 -12 -21 -22c-13.333 -6.66699 -29 -10.667 -47 -12c5.33301 25.333 19.666 58.666 42.999 99.999l58 97c10 18 15 29.333 15 34c0 10 -13.333 15 -40 15c-3.33301 0 -8.33301 -1 -15 -3s-12 -3 -16 -3s-11.667 5.5 -23 16.5s-17 21.5 -17 31.5
c0 12.667 11.667 21.667 35 27c17.333 4 28 7 32 9c2 0.666992 12 7.33398 30 20.001c14 9.33301 27 19.666 39 30.999c18 16 27 28.333 27 37c0 4.66699 -2.66699 9 -8 13c-9.33301 6.66699 -24 10 -44 10c-33.333 0 -53.666 -8.33301 -60.999 -25c-6 -14 -14 -21 -24 -21
c-22 0 -43 14.667 -63 44c7.33301 8.66699 19.333 20.667 36 36c33.333 26 73 39 119 39c6.66699 0 12.667 -0.666992 18 -2c19.333 -4 42.333 -15.667 69 -35c30 -22 45 -42.333 45 -61z" />
    <glyph glyph-name="he" unicode="&#x5d4;" horiz-adv-x="495" 
d="M495 306c0 -4 -0.834961 -10 -2.50195 -18s-2.5 -14.333 -2.5 -19c0 -1.33301 0.333008 -3.33301 1 -6s1 -4.66699 1 -6c0 -4.66699 -1.66699 -9.66699 -5 -15c-5.33301 -8 -8.33301 -12.333 -9 -13c-3.33301 -10 -10 -24.333 -20 -43
c-2 -5.33301 -5.5 -13.333 -10.5 -24s-14.5 -26.334 -28.5 -47.001l-3 -3c-4.66699 -4 -9.66699 -12.833 -15 -26.5s-14 -24.834 -26 -33.501c-1.33301 -2.66699 -4 -7.33398 -8 -14.001c-6 -11.333 -15.333 -20.333 -28 -27c-9.33301 -6.66699 -29.333 -10 -60 -10
c4 8.66699 11.667 21.334 23 38.001c10 14.667 20 34 30 58c20.667 48.667 39.667 98.667 57 150c4.66699 12.667 9.66699 25.334 15 38.001c5.33301 15.333 8 28.666 8 39.999c0 13.333 -2.33301 22.333 -7 27s-14 8.33398 -28 11.001
c-12 0.666992 -30.333 2.33398 -55 5.00098c-14.667 2 -26 3 -34 3c-21.333 0 -49 -7 -83 -21c-36 -15.333 -58.667 -31.333 -68 -48c-8 -14 -18 -21 -30 -21c-7.33301 0 -18.666 3.66699 -33.999 11s-23 14 -23 20c0 3.33301 3 10 9 20
c29.333 47.333 78.666 83.333 147.999 108c22.667 8 52.334 12 89.001 12c40.667 0 78.334 -11.667 113.001 -35s61.667 -53.666 81 -90.999c3.33301 -6.66699 5 -13.334 5 -20.001zM297.998 249c0 -4.66699 -1.33496 -10.332 -4.00195 -16.999l-21 -17l-16 -32
c-6.66699 -13.333 -13.667 -23 -21 -29c-8.66699 -16 -26.667 -42 -54 -78c-4.66699 -7.33301 -6.66699 -12 -6 -14c-6.66699 -6 -20 -21.333 -40 -46c-9.33301 -12 -31 -24.333 -65 -37c10.667 39.333 17.334 62.666 20.001 69.999c9.33301 30 18.333 51.333 27 64
c0 19.333 11 46.333 33 81c25.333 40.667 39.833 67.167 43.5 79.5s10.834 18.5 21.501 18.5c2 0 5.16699 -0.5 9.5 -1.5s7.5 -1.5 9.5 -1.5s5 0.333008 9 1s7 1 9 1h17l27 -19c0 -2 0.333008 -5.66699 1 -11v-12z" />
    <glyph glyph-name="vav" unicode="&#x5d5;" horiz-adv-x="276" 
d="M301 408l-12 -20.0029l-15 -11c-13.333 -21.333 -27 -52.333 -41 -93l-26 -48l-10 -1c-4 -10.667 -5.66699 -18.667 -5 -24c-13.333 -16 -31 -41.667 -53 -77c-13.333 -27.333 -25.333 -54.333 -36 -81c-1.33301 0 -4.33301 -1 -9 -3
c-1.33301 -11.333 -9.5 -30.166 -24.5 -56.499s-26.833 -41.5 -35.5 -45.5c-6 8.66699 -9 15.667 -9 21c0 20.667 4.33301 50.334 13 89.001s17.5 67.167 26.5 85.5s17.5 36.833 25.5 55.5c5.33301 10 10.333 20 15 30c7.33301 14.667 11 24.334 11 29.001
c6 9.33301 13 25 21 47h2c38 70 56.333 113 55 129l14 16c24 0 53 -7.33301 87 -22z" />
    <glyph glyph-name="zayin" unicode="&#x5d6;" horiz-adv-x="396" 
d="M386 293c-0.666992 -10.667 -7 -27.998 -19 -51.998l-28 -50c-4 -8.66699 -11 -22 -21 -40c-3.33301 -0.666992 -7.33301 -2.66699 -12 -6c-6 -10.667 -15.333 -26.334 -28 -47.001c-3.33301 -6 -7 -12.167 -11 -18.5s-9 -10.833 -15 -13.5
c-16 -28.667 -32.333 -49.334 -49 -62.001c-34 -26.667 -52.333 -47.667 -55 -63c-28 -24 -48.667 -39.667 -62 -47c-16.667 -8 -42 -14.667 -76 -20c8 16 16.667 28.667 26 38c4 5.33301 6 9.33301 6 12c14 18 29 34 45 48c4.66699 4 11.834 14.333 21.501 31
s16.167 27.334 19.5 32.001c6 3.33301 13 11.833 21 25.5s14 22.167 18 25.5c1.33301 7.33301 11.666 19.666 30.999 36.999c0 3.33301 1 8.33301 3 15c0 12 16.167 41.333 48.5 88s48.833 79 49.5 97c0 8 -6.66699 12.333 -20 13c-26 1.33301 -51.667 -4.66699 -77 -18
c-38 -20 -61 -31.333 -69 -34c-8 -6.66699 -16 -10 -24 -10c-10.667 0.666992 -19 5.16699 -25 13.5s-8.66699 17.833 -8 28.5c0.666992 11.333 5.33398 23 14.001 35c25.333 35.333 69.666 82 132.999 140h9c9.33301 0 18.333 -3.5 27 -10.5s12.667 -15.167 12 -24.5
c0 -6 -3.66699 -12.5 -11 -19.5l-43 -42.5c8.66699 4 16 6 22 6c31.333 2.66699 63 -6 95 -26c36 -22.667 53.333 -49.667 52 -81z" />
    <glyph glyph-name="het" unicode="&#x5d7;" horiz-adv-x="473" 
d="M433 218c-4.66699 -34.667 -13.3311 -86.3281 -25.998 -154.995c-6.66699 -30 -21.667 -55.333 -45 -76c-6 28 -9 60.667 -9 98c0 14.667 0.333008 36.334 1 65.001v64c0 83.333 -7.66699 133.333 -23 150c-6 6.66699 -19.333 14.667 -40 24
c-14.667 -18 -32.667 -45.667 -54 -83c-22.667 -40.667 -36 -70.334 -40 -89.001c-2.66699 -12.667 -8.33398 -23 -17.001 -31c-0.666992 -6 -6.66699 -20.333 -18 -43c-2.66699 -2.66699 -7.66699 -7.33398 -15 -14.001c-2.66699 -16.667 -9.33398 -28.667 -20.001 -36
c-3.33301 -4 -8 -14 -14 -30l-17 -21c-1.33301 -6 -5.16602 -13.667 -11.499 -23s-10.166 -16.333 -11.499 -21l-6 -4c-2.66699 -8.66699 -9.66699 -13 -21 -13c-4 0 -10 0.666992 -18 2c-5.33301 17.333 -8 34 -8 50c0 6 1.66699 22 5 48
c1.33301 11.333 7.66602 30.666 18.999 57.999s20.666 45.666 27.999 54.999c10 38.667 23.667 67.334 41 86.001c1.33301 -0.666992 3.33301 0 6 2c4 9.33301 9.33301 20.666 16 33.999c35.333 62 62.666 100.667 81.999 116c5.33301 4 10.333 9.66699 15 17h8
c4 0 10.5 0.5 19.5 1.5s15.833 1.5 20.5 1.5c22 -12.667 49.333 -30 82 -52c44 -24.667 67.333 -73.667 70 -147c0.666992 -0.666992 0.333984 -1.66699 -0.999023 -3s-2 -2.33301 -2 -3c0 -1.33301 0.833008 -3.83301 2.5 -7.5s2.16699 -6.16699 1.5 -7.5
c0 -0.666992 -0.666992 -1.66699 -2 -3s-2 -2.33301 -2 -3s0.833008 -1.83398 2.5 -3.50098s2.16699 -2.83398 1.5 -3.50098z" />
    <glyph glyph-name="tet" unicode="&#x5d8;" horiz-adv-x="505" 
d="M872 692c0 -8.66699 -13.6631 -16.333 -40.9961 -23c-13.333 -2.66699 -32.666 -7.66699 -57.999 -15c-94.667 -32 -186.334 -70.333 -275.001 -115c-28 -13.333 -72 -37.333 -132 -72c-68 -44.667 -111 -79.334 -129 -104.001l-52 -64c-20 -26 -33.333 -50.333 -40 -73
c-16.667 -24.667 -25 -53 -25 -85c0 -11.333 7.66699 -23.166 23 -35.499s28.666 -18.5 39.999 -18.5c37.333 0.666992 70.666 14.334 99.999 41.001c16.667 15.333 38.334 43.666 65.001 84.999c14 22 26 38.333 36 49c1.33301 2 11.833 23 31.5 63s33.5 60 41.5 60
c15.333 0 23 -10 23 -30c0 -21.333 -2.33301 -36.333 -7 -45c-4.66699 -16.667 -12.667 -36.667 -24 -60c-3.33301 -4 -10.333 -14.667 -21 -32l-36 -60c-16.667 -26.667 -30 -44.334 -40 -53.001l-4 -12c-8 -4 -13 -7.16699 -15 -9.5s-3.33301 -6.5 -4 -12.5
c-2 -2.66699 -23 -20.667 -63 -54c-13.333 -11.333 -39 -17 -77 -17c-27.333 0 -47.333 3 -60 9s-28 19.333 -46 40c-8.66699 10 -14 19 -16 27c-23.333 18.667 -35 37.667 -35 57c0 6 2.16699 14.5 6.5 25.5s5.83301 19.833 4.5 26.5l10 7
c5.33301 16.667 16.666 40.667 33.999 72c14 24.667 23.333 40.334 28 47.001c19.333 26 46 56 80 90c7.33301 15.333 49.333 52.333 126 111c31.333 24 87.333 55 168 93c31.333 14.667 50.333 22 57 22c1.33301 0 20.166 6.66699 56.499 20s55.166 20 56.499 20
c79.333 28 139.333 42 180 42c22 0 33 -5.66699 33 -17z" />
    <glyph glyph-name="yod" unicode="&#x5d9;" horiz-adv-x="234" 
d="M274 406c0 -6 -7.16602 -16.332 -21.499 -30.999s-21.5 -23.667 -21.5 -27c-5.33301 0.666992 -11 -2.83301 -17 -10.5s-9.66699 -15.167 -11 -22.5c-8 -14.667 -23 -34.334 -45 -59.001c-1.33301 -10.667 -6.5 -20.667 -15.5 -30s-18.833 -14 -29.5 -14
c-10 0 -20 5 -30 15l6 39c6 8.66699 12 19 18 31l-1 18c-0.666992 14.667 5.5 34.5 18.5 59.5s25.833 41.5 38.5 49.5c1.33301 11.333 11.666 21 30.999 29l47 -18c22 -9.33301 33 -19 33 -29z" />
    <glyph glyph-name="kaffinal" unicode="&#x5da;" horiz-adv-x="411" 
d="M421 319c-3.33301 -9.33301 -4.99902 -19.6729 -4.99902 -31.0059c0 -26 -20 -53.333 -60 -82c-8.66699 -5.33301 -21 -13.666 -37 -24.999c-4.66699 -3.33301 -24.667 -20.666 -60 -51.999c-24.667 -21.333 -46.334 -36.666 -65.001 -45.999
c-26.667 -13.333 -48 -35 -64 -65c-4 -8 -10 -15.167 -18 -21.5s-13.5 -11.166 -16.5 -14.499s-5.83301 -9 -8.5 -17c-6.66699 -5.33301 -14.667 -14.833 -24 -28.5s-17.666 -22.834 -24.999 -27.501c-2 -9.33301 -12 -24.333 -30 -45c-2 -2 -5.33301 -9 -10 -21
c-3.33301 -8.66699 -10.666 -20 -21.999 -34c-12 -16 -21.667 -25.667 -29 -29l-9 -8c-4 -3.33301 -6 -6.66602 -6 -9.99902c0 -7.33301 -0.666992 -13.333 -2 -18c-1.33301 -10.667 -7.66602 -24 -18.999 -40c-14 -20.667 -22.333 -33.667 -25 -39
c-4.66699 -0.666992 -15 -6.66699 -31 -18c-3.33301 26.667 -5 42.334 -5 47.001c0 29.333 4.66699 52.333 14 69v5c0 10.667 4.33301 25 13 43l19 43l10.5 22.5c3.66699 7.66699 9.16699 12.834 16.5 15.501c0.666992 5.33301 11.667 22.333 33 51c4.66699 10 13 24 25 42
l37 41l21 26c7.33301 8.66699 15.666 15.667 24.999 21c11.333 16 48.666 50 111.999 102c61.333 50 101.666 80.333 120.999 91c22 12 33 28.667 33 50c0 6 -1 11.333 -3 16c-8 4 -16.667 6 -26 6c-37.333 0 -75.666 -19.667 -114.999 -59
c-14.667 -14.667 -31.334 -22 -50.001 -22c-11.333 0 -23 3.83301 -35 11.5s-18 16.5 -18 26.5c0 10.667 7.66699 22 23 34c56.667 45.333 116.667 68 180 68c29.333 0 50 -3.33301 62 -10l33 -22c10 -6.66699 23.333 -22 40 -46z" />
    <glyph glyph-name="kaf" unicode="&#x5db;" horiz-adv-x="451" 
d="M436 278c0 -2.66699 -0.333008 -4.66797 -1 -6.00098c-1.33301 -5.33301 -1.66602 -10 -0.999023 -14c-25.333 -40 -40.333 -62.667 -45 -68c-14.667 -18 -37.667 -35.667 -69 -53l-72 -37c-12 -6 -33.833 -16 -65.5 -30l-114.5 -50c-42 -14 -73 -20.667 -93 -20
c-26.667 1.33301 -42.667 3.33301 -48 6c-10 4.66699 -21 18.667 -33 42c36 0 61 1.33301 75 4c19.333 3.33301 40.666 11 63.999 23l60 32l110.5 50.5c37.667 17.667 71.667 38.834 102 63.501s45.5 56 45.5 94c0 15.333 -16.333 23 -49 23c-25.333 0 -52.333 -4 -81 -12
c-37.333 -10.667 -59.333 -24.667 -66 -42c-14 -5.33301 -22.667 -8 -26 -8c-12.667 0 -22.667 6 -30 18c-6 9.33301 -9 19.333 -9 30c0 13.333 6.66699 24.666 20 33.999l37 19l-5 -7c0.666992 1.33301 8.16699 5.5 22.5 12.5s22.833 10.833 25.5 11.5
c28.667 4.66699 54 7 76 7c32.667 0 60.667 -6 84 -18c18.667 -9.33301 36.667 -23.666 54 -42.999c21.333 -23.333 32 -44 32 -62z" />
    <glyph glyph-name="lamed" unicode="&#x5dc;" horiz-adv-x="355" 
d="M693 692c0 -7.33301 -24.001 -20.334 -72.001 -39.001c-11.333 -4 -21 -8.33301 -29 -13c-44 -23.333 -74 -40.666 -90 -51.999c-29.333 -20.667 -53.333 -45.334 -72 -74.001l-24 -38c-32.667 -50 -56.667 -91 -72 -123c-9.33301 -8.66699 -14.666 -18 -15.999 -28
c-2 -12 -6.66699 -21.667 -14 -29c-15.333 -45.333 -28 -72.666 -38 -81.999c-1.33301 -0.666992 -3 -1.33398 -5 -2.00098s-3.33301 -1 -4 -1c2 -10 -4.33301 -22.333 -19 -37c-22.667 -55.333 -41.334 -93.333 -56.001 -114l-58 -60l-31 -1l-57 52
c-8.66699 7.33301 -13 17.333 -13 30c0 4 1.33301 12.5 4 25.5s4 21.833 4 26.5c0 3.33301 -0.333008 5.66602 -1 6.99902l27 58.5c9.33301 20.333 15 39.5 17 57.5c2 0.666992 8.66699 5.66699 20 15c8.66699 6.66699 15.667 10 21 10c10 0 20 -2 30 -6
c13.333 -5.33301 20 -12.333 20 -21s-8.83301 -26.667 -26.5 -54s-26.5 -48.666 -26.5 -63.999v-12l6 10c10 17.333 25.667 42 47 74c2 11.333 8.33301 24 19 38c12.667 16.667 20.334 28.334 23.001 35.001l29 45c9.33301 16 23 38 41 66c6 9.33301 10.333 17 13 23
c24 52.667 56 101.334 96 146.001c52 57.333 109.667 97.666 173 120.999c47.333 17.333 85.333 26 114 26c13.333 0 20 -5.33301 20 -16z" />
    <glyph glyph-name="memfinal" unicode="&#x5dd;" horiz-adv-x="470" 
d="M450 288c0 -65.333 -10.667 -119.329 -32 -161.996c-17.333 -34.667 -38.666 -64.334 -63.999 -89.001c-31.333 -31.333 -62.666 -47 -93.999 -47c-22.667 0 -39.667 11.333 -51 34c-8.66699 18 -13 39.333 -13 64c0 4.66699 0.5 12.834 1.5 24.501s1.5 19.5 1.5 23.5
c0 2.66699 -0.666992 5.16699 -2 7.5s-2 4.83301 -2 7.5c0 8.66699 2 19 6 31c5.33301 17.333 8.33301 27.666 9 30.999c2.66699 12.667 4 30 4 52v3l-75 -130c-7.33301 -12 -18.333 -29 -33 -51c-3.33301 -0.666992 -8.33301 -3.33398 -15 -8.00098
c-5.33301 -6.66699 -12 -18.334 -20 -35.001c-8.66699 -19.333 -14.334 -31.333 -17.001 -36l-34 -56l-62 -93c-4 -6.66699 -12 -17 -24 -31c-6.66699 -8.66699 -17.334 -21 -32.001 -37l-62 -42c6 12.667 14 32.667 24 60c2 9.33301 6.33301 19 13 29
c12 18.667 20.333 41.334 25 68.001c3.33301 0 8.33301 2 15 6c4 5.33301 10.667 16 20 32s14.166 26.333 14.499 31s2.83301 12.667 7.5 24l6 9c2.66699 4 6.33398 12.333 11.001 25c3.33301 9.33301 9.33301 15.666 18 18.999c1.33301 1.33301 4 7 8 17
c5.33301 8 13 20.667 23 38c107.333 206 185.333 309 234 309c14.667 0 30.667 -14 48 -42c26 8.66699 43 13 51 13c6.66699 0 20.5 -4.16699 41.5 -12.5s35.167 -19.5 42.5 -33.5c5.33301 -10.667 8 -28.334 8 -53.001zM358 272.004
c0 8.66699 -5.49902 18.501 -16.499 29.501s-20.833 16.5 -29.5 16.5c-6 0 -10.667 -6.66699 -14 -20c-12 -52.667 -18 -102.334 -18 -149.001c0 -33.333 3.33301 -50 10 -50c4 0 7.33301 1.5 10 4.5s9.16699 14 19.5 33s16.166 31.167 17.499 36.5
c14 49.333 21 82.333 21 99z" />
    <glyph glyph-name="mem" unicode="&#x5de;" horiz-adv-x="450" 
d="M485 423c0 -37.333 -9.33301 -66.333 -28 -87l2 7c0.666992 -4.66699 -14.333 -36.334 -45 -95.001l-59 -112c-8 -14.667 -17 -33 -27 -55c-3.33301 -14.667 -11 -36.667 -23 -66l-43 -23c-28 30.667 -42 69.667 -42 117c0 10.667 1.16699 26 3.5 46s3.5 35 3.5 45l1 9
c0.666992 4.66699 0.666992 8.33398 0 11.001c-0.666992 3.33301 -2.33398 5 -5.00098 5c-6 0 -15.333 -10.333 -28 -31l-39 -67c-6.66699 -12 -17.667 -30.833 -33 -56.5s-36.666 -64.834 -63.999 -117.501l-37 -23c-5.33301 14.667 -8 26 -8 34c0 26 5.66699 52.333 17 79
c8 22.667 22.333 55.667 43 99c4 6.66699 11 17.667 21 33c14.667 26 39 63.333 73 112c28.667 35.333 55 53 79 53c38 0 55.667 -45.333 53 -136l161 247c16 -1.33301 24 -10.666 24 -27.999z" />
    <glyph glyph-name="nunfinal" unicode="&#x5df;" horiz-adv-x="253" 
d="M303 412c-2.66699 -4 -7.33203 -9.83105 -13.999 -17.498l-15 -17.5l-75 -155l-6 -2c-5.33301 -24 -19 -57 -41 -99l-10 -8c-3.33301 -24.667 -14 -48 -32 -70c-1.33301 -8 -6 -18.5 -14 -31.5s-13 -23.167 -15 -30.5c-2 -1.33301 -4.16699 -2.16602 -6.5 -2.49902
s-4.5 -1.16602 -6.5 -2.49902l-13 -24l-9 -4l2 -14l-18 -20l-15 -46c-6.66699 -16 -14.334 -29.333 -23.001 -40c0 -11.333 -7.66699 -20.333 -23 -27c-3.33301 -4.66699 -5 -11 -5 -19c0 -0.666992 -0.666992 -2.33398 -2 -5.00098s-1.66602 -4.33398 -0.999023 -5.00098
l-37 -58c-15.333 -22.667 -30 -40.334 -44 -53.001c0.666992 4 9 37.667 25 101c6.66699 18.667 15 47 25 85l9 9c0 5.33301 1.66699 12.333 5 21s5 15.667 5 21c6 7.33301 9.66699 15 11 23s5 15.667 11 23c8 14.667 16.667 35.667 26 63l18 25
c5.33301 19.333 26.666 70 63.999 152l115 237l-1 12l14 17c10.667 -1.33301 19 -2 25 -2l36 3c10.667 -8.66699 20.667 -14.334 30 -17.001z" />
    <glyph glyph-name="nun" unicode="&#x5e0;" horiz-adv-x="260" 
d="M265 365c0 -8.66699 -3.99707 -22.002 -11.9971 -40.002c-5.33301 -14 -11 -27.667 -17 -41c-2.66699 -11.333 -7.33398 -28.666 -14.001 -51.999c-2.66699 -2.66699 -6.33398 -12 -11.001 -28c-3.33301 -12.667 -10.333 -30 -21 -52c-10 -5.33301 -14.333 -15 -13 -29
l-8 -8c-2.66699 -12 -12.334 -27 -29.001 -45v-17c-11.333 -9.33301 -20.333 -19.666 -27 -30.999l1 -1c-0.666992 -1.33301 -1.16699 -2.83301 -1.5 -4.5s-0.833008 -3.16699 -1.5 -4.5c-12.667 -20.667 -33.667 -52 -63 -94
c-5.33301 -7.33301 -13.666 -17.666 -24.999 -30.999c-4 -2.66699 -9.66699 -6.66699 -17 -12c-10 -8 -19 -17 -27 -27l-12 -1c-8.66699 -6.66699 -19.667 -17.667 -33 -33l-22 -16c-9.33301 -4 -26 -13 -50 -27c-16.667 -10 -38.667 -18 -66 -24
c-4 -0.666992 -19.333 0.666016 -46 3.99902l79 57c6 7.33301 15 17 27 29c8.66699 10 23.667 23.667 45 41c22 12 38.333 28 49 48c11.333 14 27.666 36 48.999 66c14 21.333 25.333 37 34 47c2 6 6.33301 15 13 27l9 14c0.666992 1.33301 7.33398 10.333 20.001 27
c4 4.66699 17 35 39 91c21.333 54 33.666 86.667 36.999 98l12 14l-1 7c19.333 29.333 30.333 60 33 92l23 -5c31.333 -15.333 47 -28.333 47 -39z" />
    <glyph glyph-name="samekh" unicode="&#x5e1;" horiz-adv-x="459" 
d="M459 385c-3.33301 -25.333 -5.33496 -37.333 -6.00195 -36c-4.66699 -22 -13 -50.667 -25 -86c-9.33301 -16.667 -13 -28.667 -11 -36l-15 -24c-1.33301 -8 -3 -14.667 -5 -20c-11.333 -12.667 -23.666 -27.667 -36.999 -45v-9c-11.333 -20.667 -34.333 -45 -69 -73
c-6.66699 -5.33301 -12.5 -10.5 -17.5 -15.5s-14.167 -10.833 -27.5 -17.5c-20 -20 -43.333 -30 -70 -30c-42 0 -84.333 23.333 -127 70c0 5.33301 -2.33301 13.5 -7 24.5s-7 20.167 -7 27.5c0 32.667 11.333 76.667 34 132c24.667 60 49.334 96.667 74.001 110
c6 14 18 28 36 42c24 18.667 38.333 30.667 43 36c15.333 8 31.333 12 48 12c7.33301 0 15 -1 23 -3c18.667 8.66699 37 13 55 13c48.667 0 85.667 -24 111 -72zM383.998 377c0 6.66699 -2.00098 13.834 -6.00098 21.501s-9 11.5 -15 11.5c-12 0 -30 -7 -54 -21
c-40.667 -24 -70.667 -45.667 -90 -65c-1.33301 -1.33301 -9.83301 -13.333 -25.5 -36s-23.834 -35 -24.501 -37c-2 -8 -7.33301 -20 -16 -36c-4 -10 -9 -25.333 -15 -46c-3.33301 -10.667 -6.66602 -27.334 -9.99902 -50.001c0 -2.66699 -0.333008 -7.16699 -1 -13.5
s-1 -10.833 -1 -13.5c0 -23.333 2.33301 -35 7 -35c6 0 18.333 6.66699 37 20c48 34 88.667 75.333 122 124c6.66699 8.66699 16.334 22 29.001 40c42 70.667 63 116 63 136z" />
    <glyph glyph-name="ayin" unicode="&#x5e2;" horiz-adv-x="430" 
d="M480 409c0 -6.66699 -3.33008 -13.6641 -9.99707 -20.9971c-5.33301 -0.666992 -9 -1 -11 -1c-3.33301 0 -8.33301 0.833008 -15 2.5s-11.334 2.5 -14.001 2.5c-15.333 0 -42.333 -14 -81 -42c1.33301 -2.66699 2 -7.33398 2 -14.001v-10c-0.666992 -2 0 -6.66699 2 -14
c0 -1.33301 0.333008 -3.66602 1 -6.99902v-7c0 -2 -1.66699 -6.33301 -5 -13c2.66699 -10.667 4 -14 4 -10c0 -42 -6.66699 -83 -20 -123c-4 -1.33301 -6 -7.33301 -6 -18c-2.66699 -7.33301 -7.33398 -19 -14.001 -35c-6.66699 -4.66699 -11.334 -11 -14.001 -19
c-1.33301 -10.667 -10 -27.334 -26 -50.001l-36 -48h-4c-9.33301 -12.667 -21 -21.334 -35 -26.001c-9.33301 -8.66699 -26 -13 -50 -13c-19.333 0 -33.333 1.66699 -42 5c-13.333 2 -27.833 9.33301 -43.5 22s-25.5 24 -29.5 34
c-1.33301 2.66699 -3.83301 11.834 -7.5 27.501s-5.5 24.834 -5.5 27.501c0 5.33301 1.5 13.166 4.5 23.499s4.5 18.166 4.5 23.499s2.33301 12.5 7 21.5s6.66699 16.167 6 21.5c8.66699 11.333 19 29 31 53c6 4.66699 13 13.5 21 26.5s16 21.833 24 26.5
c4.66699 4.66699 10.334 13.334 17.001 26.001c4 0.666992 9.66699 5.66699 17 15s19 17.666 35 24.999c2 3.33301 5.66699 8.33301 11 15c17.333 14.667 36.333 31.667 57 51c7.33301 3.33301 11 6.33301 11 9c0 11.333 -21.667 27.333 -65 48l-3 19l15 14
c39.333 -8.66699 59.666 -13.334 60.999 -14.001c14.667 -5.33301 32 -17.333 52 -36l41 17c10 2 24.667 5.33301 44 10c46 -13.333 69 -28.333 69 -45zM292.003 318.003l-0.000976562 10.002l-14 -11c-2.66699 -7.33301 -12 -19 -28 -35s-24.333 -26 -25 -30
c-4.66699 -2.66699 -16.667 -16.667 -36 -42s-29.333 -39.5 -30 -42.5s-3.16699 -6.83301 -7.5 -11.5s-6.16602 -9.33398 -5.49902 -14.001c-3.33301 -3.33301 -8.5 -11.666 -15.5 -24.999s-10.5 -22 -10.5 -26c-8.66699 -10 -13 -34.333 -13 -73
c0 -10 0.333008 -17.667 1 -23c6 -8 14.333 -12 25 -12s24.667 11.333 42 34l34 48c0.666992 5.33301 4.5 13 11.5 23s10.5 17.333 10.5 22c18.667 27.333 32 60.666 40 99.999c2.66699 12 6 29 10 51c0.666992 3.33301 3 12.666 7 27.999c2.66699 12 4 21.667 4 29z" />
    <glyph glyph-name="pefinal" unicode="&#x5e3;" horiz-adv-x="398" 
d="M678 656c0 -9.33301 -3.6709 -19.9971 -11.0039 -31.9971s-11.666 -21.333 -12.999 -28c-18.667 -24.667 -34 -41 -46 -49c-58 -40 -100 -63 -126 -69c-6.66699 -0.666992 -15.334 -4.33398 -26.001 -11.001l-27 -30c-10.667 -13.333 -17.667 -24.666 -21 -33.999
c-6 -2.66699 -9 -4.33398 -9 -5.00098c0 -6.66699 -1.33301 -12.667 -4 -18c-4 -8 -6.33301 -13.333 -7 -16c-3.33301 -8 -9.33301 -19.333 -18 -34l-11 -15c-3.33301 -4.66699 -6 -11.667 -8 -21c-2 -6.66699 -6.33301 -15.667 -13 -27
c-7.33301 -7.33301 -11 -17.333 -11 -30c0 -8.66699 -1.33301 -16.667 -4 -24v-2c0 -13.333 -4.16699 -25 -12.5 -35s-13.166 -18 -14.499 -24c-3.33301 -16.667 -8.66602 -31 -15.999 -43l-35 -68c-18.667 -31.333 -35.667 -47 -51 -47c-10 0 -16.333 3.66699 -19 11l-8 23
l-22 26c-0.666992 18 11.833 52.333 37.5 103s46.167 82.334 61.5 95.001c6.66699 5.33301 12.667 13.666 18 24.999c7.33301 16.667 11.666 26 12.999 28c10 12 20.333 27.667 31 47c0.666992 1.33301 1.16699 3.16602 1.5 5.49902s0.5 4.16602 0.5 5.49902
c14.667 20.667 24 39.334 28 56.001c-15.333 -2 -24.666 -3.66699 -27.999 -5c-9.33301 -2 -17.666 -6 -24.999 -12c-7.33301 -2 -18.666 -6 -33.999 -12c-2 -0.666992 -5 -1 -9 -1c-3.33301 0 -8.33301 0.5 -15 1.5s-11.334 1.5 -14.001 1.5s-7.5 -2.66699 -14.5 -8
s-13.167 -8 -18.5 -8s-12.333 -2.33301 -21 -7c-12 -6.66699 -19 -10.334 -21 -11.001c-23.333 -8.66699 -40.666 -16 -51.999 -22c-4 -2 -11.667 -10.833 -23 -26.5s-19.333 -25.5 -24 -29.5c-8 -6.66699 -13.333 -11.667 -16 -15c-4 -5.33301 -6.66699 -12 -8 -20v-3
c-0.666992 -1.33301 -1 -2.33301 -1 -3v0c-0.666992 -9.33301 -3.66699 -23.333 -9 -42c-18 10.667 -28.667 18.667 -32 24c-3.33301 12 -7 24 -11 36c6 30 10.667 50.333 14 61c7.33301 22 18 39.333 32 52l22.5 20c7.66699 6.66699 16.5 11 26.5 13
c6 10.667 16 16.834 30 18.501s22 5.16699 24 10.5c10 1.33301 25 4.33301 45 9c6 2 15 4.66699 27 8c4.66699 0 12 0.333008 22 1c11.333 4 28 9.33301 50 16c14 4 26.333 7.33301 37 10c26.667 5.33301 58 14 94 26c4.66699 3.33301 10.834 13.333 18.501 30
s14.167 27.667 19.5 33c7.33301 11.333 18.666 27.666 33.999 48.999c44 62.667 89.667 94 137 94c10 0 23.667 -3 41 -9s29 -12 35 -18s9 -14.333 9 -25zM611.996 647.003l-0.000976562 2c-3.33301 -22 -18.666 -43.667 -45.999 -65c-22 -17.333 -46 -30.666 -72 -39.999
c6 13.333 16.667 31.666 32 54.999c10 10.667 23.5 21.167 40.5 31.5s32.167 15.833 45.5 16.5z" />
    <glyph glyph-name="pe" unicode="&#x5e4;" horiz-adv-x="466" 
d="M461 312c0 -20 -4.66504 -37.335 -13.998 -52.002c0.666992 -8.66699 -2.66602 -18 -9.99902 -28s-11.333 -18 -12 -24c-0.666992 -10 -5.66699 -16.333 -15 -19c-0.666992 -8.66699 -7 -19.667 -19 -33l-28 -29c-2.66699 -5.33301 -7.33398 -12.666 -14.001 -21.999
c-10.667 -11.333 -25.334 -21.666 -44.001 -30.999c-12 -24 -35 -40.333 -69 -49c-3.33301 -6 -9.66602 -9 -18.999 -9c-16 -12.667 -26 -19 -30 -19s-7 0.666992 -9 2c-7.33301 -5.33301 -14.666 -8 -21.999 -8c-4.66699 0 -11.5 1.16699 -20.5 3.5s-15.833 3.5 -20.5 3.5
c-8.66699 0 -16.334 3.66699 -23.001 11c-0.666992 0.666992 -3 1 -7 1c-13.333 0.666992 -28.333 7.66699 -45 21s-25 26.666 -25 39.999c0 4.66699 1 11.167 3 19.5s3 14.666 3 18.999s7.33301 17.5 22 39.5c28.667 43.333 64 74.333 106 93
c6 2.66699 23.667 7.33398 53 14.001c61.333 14 99.666 21 114.999 21c9.33301 0 24 -0.666992 44 -2c13.333 28 20 49.667 20 65c0 9.33301 -3.33301 21.333 -10 36s-31 22 -73 22c-44.667 0 -75.334 -8 -92.001 -24c-10.667 -8 -26 -21.667 -46 -41
c6 -6.66699 12.333 -14.667 19 -24c-40 -3.33301 -56 -5 -48 -5c-8.66699 0 -16.167 5 -22.5 15s-9.5 19.333 -9.5 28c0 10.667 7 24.334 21 41.001s26.333 27 37 31c8 10 26 19.667 54 29c25.333 8 46 12 62 12c38.667 0 76 -11.333 112 -34c40.667 -24.667 63 -55 67 -91
c6 -6 9 -13.667 9 -23zM339.002 236.998c-12 -2 -27.667 -5.33594 -47 -10.0029c-9.33301 -4 -23.333 -9.33301 -42 -16c-8.66699 -1.33301 -21.667 -4.33301 -39 -9c-26 -9.33301 -51 -24.666 -75 -45.999c-28 -25.333 -42 -49.666 -42 -72.999
c0 -2.66699 0.666992 -6 2 -10c10.667 -2.66699 18.667 -4 24 -4c9.33301 0 23.833 4.83301 43.5 14.5s31.834 14.834 36.501 15.501c3.33301 3.33301 8.66602 7.16602 15.999 11.499s12.333 8 15 11s7 5.83301 13 8.5c11.333 9.33301 27.333 24.333 48 45
c7.33301 8.66699 13 16.334 17 23.001l11.5 14c5 6 8.5 10.333 10.5 13s4.66699 6.66699 8 12z" />
    <glyph glyph-name="tsadifinal" unicode="&#x5e5;" horiz-adv-x="316" 
d="M576 648c0 -14 -8.00293 -30 -24.0029 -48c-6 -10.667 -17.667 -24.667 -35 -42c-2.66699 -4 -11.334 -12.667 -26.001 -26c-5.33301 -0.666992 -13.666 -7.66699 -24.999 -21c-2.66699 -1.33301 -19.334 -13.666 -50.001 -36.999c-4 -2 -9.66699 -5.66699 -17 -11
c-27.333 -20 -59.666 -35.333 -96.999 -46c-18 -36 -43.333 -91 -76 -165c-24.667 -64.667 -44.667 -115 -60 -151c-9.33301 -29.333 -16.333 -49.333 -21 -60c-12 -28 -24 -43.333 -36 -46c-6 -1.33301 -13 -2 -21 -2c-32 0 -48 15.667 -48 47c0 13.333 4 26.666 12 39.999
c30.667 50 50.334 90 59.001 120c6 0.666992 9.33301 4 10 10c0.666992 4.66699 0.666992 9.33398 0 14.001c4.66699 4.66699 18.167 27.167 40.5 67.5s34.833 64.5 37.5 72.5c6.66699 6 11.334 26 14.001 60c-36 10.667 -72.333 34.667 -109 72
c-14.667 14.667 -22 29.334 -22 44.001c0 38 32 70.667 96 98c-3.33301 -14 -9.66602 -32 -18.999 -54c-0.666992 -2.66699 -3 -6.83398 -7 -12.501s-6 -9.83398 -6 -12.501c0 -5.33301 4.66699 -18.5 14 -39.5s39 -31.5 89 -31.5h8c1.33301 3.33301 4 7.66602 8 12.999
c1.33301 2 4.33301 7.66699 9 17c16 34 32.667 59.667 50 77c8 9.33301 12 15.333 12 18c16.667 18 30 30.333 40 37c10.667 14 25.667 25.667 45 35l52 23h5c22 0 42.667 -4.66699 62 -14c24 -11.333 36 -26.666 36 -45.999zM506.997 651l-4.99805 -0.000976562
c-8.66699 0 -20.334 -4.33301 -35.001 -13l-33 -20c-3.33301 -4 -7.5 -6.16699 -12.5 -6.5s-8.83301 -3.83301 -11.5 -10.5c-3.33301 0 -9.33301 -6 -18 -18c-5.33301 -8 -14.666 -20 -27.999 -36c-6.66699 -10 -16.334 -26 -29.001 -48c12.667 7.33301 31 17.333 55 30
c0.666992 2.66699 8.66699 9.33398 24 20.001l17 17l42 41c19.333 20 30.666 34.667 33.999 44z" />
    <glyph glyph-name="tsadi" unicode="&#x5e6;" horiz-adv-x="446" 
d="M456 436c0 -8.66699 -3.66113 -17.335 -10.9941 -26.002c-3.33301 -0.666992 -7 -5 -11 -13c-20 -8 -45.667 -20.667 -77 -38c-5.33301 -2.66699 -14 -8.66699 -26 -18c24.667 -3.33301 49.667 -13 75 -29c29.333 -20 44 -41 44 -63
c0 -11.333 -1.83301 -20.166 -5.5 -26.499s-50.834 -40.166 -141.501 -101.499s-144.667 -96.333 -162 -105c-14 -6.66699 -34.333 -18.667 -61 -36l-10 3c-7.33301 -5.33301 -18 -15 -32 -29c-15.333 -6 -32 -13.667 -50 -23l-12 6c-2.66699 0 -5.5 -1.33301 -8.5 -4
s-5.16699 -4.33398 -6.5 -5.00098c-4 -0.666992 -16.667 -1 -38 -1c11.333 14 21.666 24 30.999 30v2c9.33301 10 21.666 20.333 36.999 31c8 5.33301 43 31.666 105 78.999c0.666992 1.33301 5 3.33301 13 6l101 74l39 22c17.333 14.667 44.666 33.334 81.999 56.001
c12 8 29 20.667 51 38c-24.667 13.333 -56.334 20 -95.001 20c-33.333 0 -64.333 -5 -93 -15c-19.333 -6.66699 -37.333 -10 -54 -10c-12 0 -21 9 -27 27c1.33301 4.66699 0.833008 10.834 -1.5 18.501s-3.5 12.834 -3.5 15.501c0 18 8.66699 28 26 30
c23.333 3.33301 60.666 17.333 111.999 42c44 21.333 79 40.666 105 57.999c-1.33301 0.666992 -4 3.16699 -8 7.5s-11.333 6.83301 -22 7.5c-8 -1.33301 -19.667 -2.66602 -35 -3.99902c-22 -7.33301 -34.667 -11 -38 -11c-6.66699 -3.33301 -17.667 -7 -33 -11
s-26.5 -8.5 -33.5 -13.5s-12.5 -7.5 -16.5 -7.5c-24 0 -36 11.333 -36 34c0 25.333 11.333 40.666 34 45.999c2 2.66699 9.66699 8 23 16c7.33301 0 20.333 2.66699 39 8c44 12.667 77.333 19 100 19c24.667 0 44 -4.66699 58 -14c4 -3.33301 18 -17.333 42 -42
c20.667 -21.333 31 -38 31 -50z" />
    <glyph glyph-name="qof" unicode="&#x5e7;" horiz-adv-x="502" 
d="M495 278c-3.33301 -2 -4.99512 -3.99805 -4.99512 -5.99805l-6 -9c-4.66699 -8 -11.334 -20.333 -20.001 -37c-3.33301 -2 -6 -4.33301 -8 -7c-12.667 -24.667 -40 -50.667 -82 -78c-6.66699 -4.66699 -21.334 -11.334 -44.001 -20.001l-6 14
c10 10.667 21.667 27.167 35 49.5s24 38.166 32 47.499c1.33301 11.333 9.33301 28.333 24 51s22 40 22 52c0 10 -5.66699 18 -17 24l-32 12c-12.667 -2.66699 -28.334 -1.66699 -47.001 3c-11.333 0 -28 -1.66699 -50 -5c-42.667 -10.667 -76 -24.334 -100 -41.001
c-2.66699 -5.33301 -6 -8 -10 -8l-2 -5c-8.66699 -6 -29.667 -31 -63 -75c-16.667 0 -30.5 5.33301 -41.5 16s-16.5 23 -16.5 37c0 17.333 10.333 36 31 56l49 46c15.333 10 38.666 21.667 69.999 35c60 12.667 98.333 19 115 19c38.667 0 80 -18 124 -54
c21.333 -18 34.666 -30 39.999 -36c9.33301 -12 14 -25.667 14 -41c0 -11.333 -2 -24.666 -6 -39.999zM337.005 256.002l-21.0029 -3.00195l6 3c-5.33301 -8 -14.333 -19.667 -27 -35c-7.33301 -13.333 -18.666 -32.666 -33.999 -57.999
c-13.333 -18 -31.666 -46.333 -54.999 -85c-2 -4.66699 -5 -11 -9 -19c-14.667 -21.333 -35.667 -54 -63 -98c-3.33301 -6 -9.5 -14 -18.5 -24s-15.167 -18 -18.5 -24c-4.66699 -9.33301 -13 -24.666 -25 -45.999c-16.667 -24 -35.667 -55 -57 -93
c-5.33301 -16 -11.666 -26.333 -18.999 -31c-6.66699 -27.333 -22.667 -43 -48 -47c-0.666992 4.66699 -1 9.66699 -1 15c0 17.333 5.66699 39 17 65c18 38.667 27.333 59 28 61c2 6.66699 9.66699 22.334 23 47.001c5.33301 14 15.666 34 30.999 60
c10 11.333 21.667 31.666 35 60.999l30 68c9.33301 19.333 17 33.333 23 42l110 157v16l10 8c3.33301 0 23.333 -4.66699 60 -14c4 -3.33301 6.66699 -6.33301 8 -9l1 -2c0.666992 -0.666992 5.33398 -5.66699 14.001 -15z" />
    <glyph glyph-name="resh" unicode="&#x5e8;" horiz-adv-x="423" 
d="M428 330c0 -14 -5.66699 -30.667 -17 -50s-23 -34 -35 -44c-9.33301 -23.333 -23.666 -41.333 -42.999 -54c-5.33301 -8.66699 -15.333 -17 -30 -25c-4.66699 -15.333 -13.667 -29.666 -27 -42.999c-4 -4 -12 -8.66699 -24 -14c1.33301 -0.666992 1.5 -3.66699 0.5 -9
s-1.16699 -8 -0.5 -8c-6 -2.66699 -15 -8 -27 -16c-8 -8 -15 -13 -21 -15c-30.667 -34 -59.334 -51 -86.001 -51c-18.667 0 -28 7.66699 -28 23c0 9.33301 21.667 38.666 65 87.999c64.667 74.667 105.334 122.334 122.001 143.001c43.333 55.333 65 94.666 65 117.999
c0 2 -7.66699 5.33301 -23 10c-6 2 -13 3 -21 3c-21.333 0 -44.5 -6 -69.5 -18s-42.5 -24 -52.5 -36c-4 -6.66699 -11.667 -16 -23 -28c-18.667 -12 -36 -18 -52 -18c-27.333 0 -41 11 -41 33c0 22.667 18.667 47 56 73c29.333 20.667 58.333 35.667 87 45
c26.667 8.66699 53 13 79 13c25.333 0 45.666 -3.66699 60.999 -11c7.33301 -3.33301 24.333 -15 51 -35c10 -7.33301 16 -14.666 18 -21.999c8.66699 -6 13 -14.667 13 -26c0 -2.66699 0.5 -6.83398 1.5 -12.501s1.5 -10.167 1.5 -13.5z" />
    <glyph glyph-name="shin" unicode="&#x5e9;" horiz-adv-x="358" 
d="M358 392c0 -12.667 -3.00391 -22.3369 -9.00391 -29.0039c-2 -4.66699 -3.33301 -9.66699 -4 -15c-1.33301 -8.66699 -8.33301 -26 -21 -52c-2 -4 -2.33301 -8.33301 -1 -13c-4.66699 -4 -9.66699 -11.667 -15 -23c-3.33301 -4 -7 -10.333 -11 -19
c-10 -16 -20.667 -27.333 -32 -34c-18.667 -22.667 -56.334 -56.667 -113.001 -102c-21.333 -17.333 -32 -38.333 -32 -63c0 -33.333 4.33301 -59 13 -77c19.333 -40.667 44.333 -71.334 75 -92.001l-21 -4c-24.667 8 -42.334 14.667 -53.001 20
c-21.333 10.667 -40 24 -56 40c-10 6 -19 18.5 -27 37.5s-14 29.5 -18 31.5c0 4.66699 -0.666992 13.334 -2 26.001c-1.33301 10.667 -1.66602 19.334 -0.999023 26.001c-3.33301 6.66699 -5 13.334 -5 20.001c0 7.33301 1.66699 17.833 5 31.5s5 23.834 5 30.501
c0 4.66699 -0.333008 8.33398 -1 11.001c6.66699 24.667 12.334 43.334 17.001 56.001c8 24 16.333 41 25 51c2 8 8.66699 22.333 20 43c10.667 18 16.334 31.333 17.001 40c4 3.33301 16.333 22.333 37 57c4.66699 4 10 11.333 16 22s11 18 15 22l15 15
c2 5.33301 9.66699 16.666 23 33.999c10.667 14 23.334 21 38.001 21c4.66699 0 12.334 -0.666992 23.001 -2c5.33301 -0.666992 18.833 -5.33398 40.5 -14.001s32.834 -14 33.501 -16c1.33301 -4 2 -22.333 2 -55c0 -2.66699 0.333008 -6.66699 1 -12s1 -9.66602 1 -12.999
zM286.996 436.997l-5.99805 -0.999023c-4.66699 -0.666992 -11 -6 -19 -16s-12.833 -17.833 -14.5 -23.5s-3.83398 -12.5 -6.50098 -20.5c-1.33301 -2.66699 -10.333 -16 -27 -40c-8.66699 -3.33301 -14.834 -9.33301 -18.501 -18s-8.5 -21.334 -14.5 -38.001l-25 -66
c62.667 54.667 102.667 108 120 160c5.33301 16 9 37 11 63z" />
    <glyph glyph-name="tav" unicode="&#x5ea;" horiz-adv-x="351" 
d="M308 204c0 -8.66699 -3.33105 -29.3379 -9.99805 -62.0049s-11.667 -53 -15 -61c-2.66699 -4 -6 -14.667 -10 -32c-0.666992 -7.33301 -6.66699 -19.666 -18 -36.999c-8 -12.667 -15.667 -19 -23 -19c-11.333 -0.666992 -17.666 7 -18.999 23
c-1.33301 14 -2 34.667 -2 62c0 16.667 4 44.5 12 83.5s8.66699 83.833 2 134.5c-1.33301 8.66699 -2.66602 15.334 -3.99902 20.001c-4 -2 -14.333 -24.667 -31 -68c-8.66699 -22.667 -19.334 -43.667 -32.001 -63c-0.666992 -8.66699 -8.33398 -26.667 -23.001 -54
c-16 -30 -25 -49 -27 -57c-4 -14 -13 -31.667 -27 -53c-6.66699 -10 -15 -25 -25 -45l-21 -30c-19.333 -29.333 -39.666 -56 -60.999 -80c-14.667 -21.333 -40 -50.666 -76 -87.999c-12.667 -10 -33 -21.667 -61 -35c-32 -15.333 -55 -23 -69 -23c-16 0 -23.667 0 -23 0
c-5.33301 0.666992 -13 5 -23 13c12.667 9.33301 29 18.333 49 27c12 5.33301 26.667 15.666 44 30.999l18 16c38 34 70 69.667 96 107c15.333 22 39.333 62.333 72 121c3.33301 6.66699 8.66602 16.667 15.999 30c6.66699 9.33301 17.167 25.5 31.5 48.5
s28.833 56.167 43.5 99.5c17.333 48.667 30.666 82 39.999 100c3.33301 12 8.66602 29.333 15.999 52v0c-2 0.666992 -5.16699 2.16699 -9.5 4.5s-8.5 5 -12.5 8s-6.66699 7.5 -8 13.5c6 6.66699 13.833 10.334 23.5 11.001s18.834 1.33398 27.501 2.00098
c7.33301 16 13.333 28.333 18 37c10 18.667 17 28.334 21 29.001c1.33301 0.666992 2.66602 1 3.99902 1h2c10.667 0 20.667 -2.66699 30 -8c12 -7.33301 18 -17.333 18 -30c0 -10 -6.66699 -28.333 -20 -55c44 -20.667 66 -78.667 66 -174z" />
    <glyph glyph-name="vavdbl" unicode="&#x5f0;" horiz-adv-x="486" 
d="M511 408l-12 -20.0029l-15 -11c-13.333 -21.333 -27 -52.333 -41 -93l-26 -48l-10 -1c-4 -10.667 -5.66699 -18.667 -5 -24c-13.333 -16 -31 -41.667 -53 -77c-13.333 -27.333 -25.333 -54.333 -36 -81c-1.33301 0 -4.33301 -1 -9 -3
c-1.33301 -11.333 -9.5 -30.166 -24.5 -56.499s-26.833 -41.5 -35.5 -45.5c-6 8.66699 -9 15.667 -9 21c0 20.667 4.33301 50.334 13 89.001s17.5 67.167 26.5 85.5s17.5 36.833 25.5 55.5c5.33301 10 10.333 20 15 30c7.33301 14.667 11 24.334 11 29.001
c6 9.33301 13 25 21 47h2c38 70 56.333 113 55 129l14 16c24 0 53 -7.33301 87 -22zM301 407.997l-12 -20.0029l-15 -11c-13.333 -21.333 -27 -52.333 -41 -93l-26 -48l-10 -1c-4 -10.667 -5.66699 -18.667 -5 -24c-13.333 -16 -31 -41.667 -53 -77
c-13.333 -27.333 -25.333 -54.333 -36 -81c-1.33301 0 -4.33301 -1 -9 -3c-1.33301 -11.333 -9.5 -30.166 -24.5 -56.499s-26.833 -41.5 -35.5 -45.5c-6 8.66699 -9 15.667 -9 21c0 20.667 4.33301 50.334 13 89.001s17.5 67.167 26.5 85.5s17.5 36.833 25.5 55.5
c5.33301 10 10.333 20 15 30c7.33301 14.667 11 24.334 11 29.001c6 9.33301 13 25 21 47h2c38 70 56.333 113 55 129l14 16c24 0 53 -7.33301 87 -22z" />
    <glyph glyph-name="vavyod" unicode="&#x5f1;" horiz-adv-x="486" 
d="M511 408l-12 -20.0029l-15 -11c-13.333 -21.333 -27 -52.333 -41 -93l-26 -48l-10 -1c-4 -10.667 -5.66699 -18.667 -5 -24c-13.333 -16 -31 -41.667 -53 -77c-13.333 -27.333 -25.333 -54.333 -36 -81c-1.33301 0 -4.33301 -1 -9 -3
c-1.33301 -11.333 -9.5 -30.166 -24.5 -56.499s-26.833 -41.5 -35.5 -45.5c-6 8.66699 -9 15.667 -9 21c0 20.667 4.33301 50.334 13 89.001s17.5 67.167 26.5 85.5s17.5 36.833 25.5 55.5c5.33301 10 10.333 20 15 30c7.33301 14.667 11 24.334 11 29.001
c6 9.33301 13 25 21 47h2c38 70 56.333 113 55 129l14 16c24 0 53 -7.33301 87 -22zM274 405.997c0 -6 -7.16602 -16.332 -21.499 -30.999s-21.5 -23.667 -21.5 -27c-5.33301 0.666992 -11 -2.83301 -17 -10.5s-9.66699 -15.167 -11 -22.5
c-8 -14.667 -23 -34.334 -45 -59.001c-1.33301 -10.667 -6.5 -20.667 -15.5 -30s-18.833 -14 -29.5 -14c-10 0 -20 5 -30 15l6 39c6 8.66699 12 19 18 31l-1 18c-0.666992 14.667 5.5 34.5 18.5 59.5s25.833 41.5 38.5 49.5c1.33301 11.333 11.666 21 30.999 29l47 -18
c22 -9.33301 33 -19 33 -29z" />
    <glyph glyph-name="yoddbl" unicode="&#x5f2;" horiz-adv-x="464" 
d="M504 406c0 -6 -7.16602 -16.332 -21.499 -30.999s-21.5 -23.667 -21.5 -27c-5.33301 0.666992 -11 -2.83301 -17 -10.5s-9.66699 -15.167 -11 -22.5c-8 -14.667 -23 -34.334 -45 -59.001c-1.33301 -10.667 -6.5 -20.667 -15.5 -30s-18.833 -14 -29.5 -14
c-10 0 -20 5 -30 15l6 39c6 8.66699 12 19 18 31l-1 18c-0.666992 14.667 5.5 34.5 18.5 59.5s25.833 41.5 38.5 49.5c1.33301 11.333 11.666 21 30.999 29l47 -18c22 -9.33301 33 -19 33 -29zM274.001 406.001c0 -6 -7.16602 -16.332 -21.499 -30.999
s-21.5 -23.667 -21.5 -27c-5.33301 0.666992 -11 -2.83301 -17 -10.5s-9.66699 -15.167 -11 -22.5c-8 -14.667 -23 -34.334 -45 -59.001c-1.33301 -10.667 -6.5 -20.667 -15.5 -30s-18.833 -14 -29.5 -14c-10 0 -20 5 -30 15l6 39c6 8.66699 12 19 18 31l-1 18
c-0.666992 14.667 5.5 34.5 18.5 59.5s25.833 41.5 38.5 49.5c1.33301 11.333 11.666 21 30.999 29l47 -18c22 -9.33301 33 -19 33 -29z" />
    <glyph glyph-name="geresh" unicode="&#x5f3;" horiz-adv-x="221" 
d="M189 394c0 -8 -3 -15.332 -9 -21.999c-7.33301 -8.66699 -11.666 -15 -12.999 -19c-6.66699 -3.33301 -10.334 -7.33301 -11.001 -12c-11.333 -2.66699 -19.333 -8.33398 -24 -17.001c-31.333 -16.667 -51 -25 -59 -25c-3.33301 0 -9 0.333008 -17 1h-18l42 53
c16.667 23.333 25 43 25 59c0 5.33301 -2.5 13.5 -7.5 24.5s-7.5 19.833 -7.5 26.5c0 3.33301 1.33301 7.66602 4 12.999c19.333 -1.33301 40 -10.666 62 -27.999s33 -35.333 33 -54z" />
    <glyph glyph-name="gershayim" unicode="&#x5f4;" horiz-adv-x="292" 
d="M332 394c0 -8 -3.00098 -15.333 -9.00098 -22c-7.33301 -8.66699 -11.666 -15 -12.999 -19c-6.66699 -3.33301 -10.334 -7.33301 -11.001 -12c-12 -2.66699 -20 -8.33398 -24 -17.001c-2 -1.33301 -8.33301 -5 -19 -11c-7.33301 -4.66699 -13.666 -8 -18.999 -10
c-7.33301 -2.66699 -14.333 -4 -21 -4c-3.33301 0 -9 0.333008 -17 1h-18l42 53c16.667 23.333 25 43 25 59c0 5.33301 -2.5 13.5 -7.5 24.5s-7.5 19.833 -7.5 26.5c0 -2 1.33301 2.33301 4 13c20 -1.33301 40.833 -10.666 62.5 -27.999s32.5 -35.333 32.5 -54zM193.999 394
c0 -8 -3.00098 -15.333 -9.00098 -22c-7.33301 -8.66699 -11.666 -15 -12.999 -19c-6.66699 -3.33301 -10.334 -7.33301 -11.001 -12c-12 -2.66699 -20 -8.33398 -24 -17.001c-2 -1.33301 -8.33301 -5 -19 -11c-7.33301 -4.66699 -13.666 -8 -18.999 -10
c-7.33301 -2.66699 -14.333 -4 -21 -4c-3.33301 0 -9 0.333008 -17 1h-18l42 53c16.667 23.333 25 43 25 59c0 5.33301 -2.5 13.5 -7.5 24.5s-7.5 19.833 -7.5 26.5c0 -2 1.33301 2.33301 4 13c20 -1.33301 40.833 -10.666 62.5 -27.999s32.5 -35.333 32.5 -54z" />
    <glyph glyph-name="lefttoright" unicode="&#x200e;" horiz-adv-x="406" 
d="M375 448l-164 -152v108h-70v-404h-86v490h156v110z" />
    <glyph glyph-name="righttoleft" unicode="&#x200f;" horiz-adv-x="406" 
d="M351 0h-86v404h-70v-108l-164 152l164 152v-110h156v-490z" />
    <glyph glyph-name="endash" unicode="&#x2013;" horiz-adv-x="452" 
d="M412 204c0 -6.66699 -5 -12.668 -15 -18.001c-4 -2.66699 -40.667 -5.66699 -110 -9c-62 -2.66699 -103 -4 -123 -4c-67.333 0 -101 15 -101 45c0 4.66699 2 14.334 6 29.001c26.667 -10 43 -15 49 -15c24 0 59.667 1 107 3s83 3 107 3c10 0 25 -3.66699 45 -11
c23.333 -8 35 -15.667 35 -23z" />
    <glyph glyph-name="quotedash" unicode="&#x2015;" horiz-adv-x="752" 
d="M712 204c0 -6 -11.667 -12 -35 -18c-6.66699 -2 -50.334 -4 -131.001 -6c-160.667 -4.66699 -268 -7 -322 -7c-28 0 -58.333 3 -91 9c-46.667 8.66699 -70 20.667 -70 36c0 4.66699 2 14.334 6 29.001c26.667 -10 43 -15 49 -15c54.667 0 137 1 247 3s192.333 3 247 3
c10.667 0 29.334 -3.66699 56.001 -11c29.333 -8.66699 44 -16.334 44 -23.001z" />
    <glyph glyph-name="quoteleft" unicode="&#x2018;" horiz-adv-x="172" 
d="M212 300l-18 -0.000976562c-8 -0.666992 -13.667 -1 -17 -1c-6.66699 0 -13.167 1.16699 -19.5 3.5s-13.166 5.83301 -20.499 10.5c-10.667 6 -17 9.66699 -19 11c-4 8.66699 -12 14.334 -24 17.001c-0.666992 4.66699 -4.33398 8.66699 -11.001 12
c-1.33301 4 -5.33301 10 -12 18s-10 15.667 -10 23c0 18.667 11.333 37 34 55c20.667 16.667 41 25.667 61 27c2.66699 -10.667 4 -15 4 -13c0 -6.66699 -2.5 -15.5 -7.5 -26.5s-7.5 -19.167 -7.5 -24.5c0 -16 8.33301 -35.667 25 -59z" />
    <glyph glyph-name="quoteright" unicode="&#x2019;" horiz-adv-x="162" 
d="M201 394c0 -8 -3 -15.332 -9 -21.999c-7.33301 -8.66699 -11.666 -15 -12.999 -19c-6.66699 -3.33301 -10.334 -7.33301 -11.001 -12c-11.333 -2.66699 -19.333 -8.33398 -24 -17.001c-31.333 -16.667 -51 -25 -59 -25c-3.33301 0 -9 0.333008 -17 1h-18l42 53
c16.667 23.333 25 43 25 59c0 5.33301 -2.5 13.5 -7.5 24.5s-7.5 19.833 -7.5 26.5c0 3.33301 1.33301 7.66602 4 12.999c19.333 -1.33301 40 -10.666 62 -27.999s33 -35.333 33 -54z" />
    <glyph glyph-name="quotesinglbase" unicode="&#x201a;" horiz-adv-x="291" 
d="M178 2c0 -8 -3 -15.332 -9 -21.999c-7.33301 -8.66699 -11.666 -15 -12.999 -19c-6.66699 -3.33301 -10.334 -7.33301 -11.001 -12c-11.333 -2.66699 -19.333 -8.33398 -24 -17.001c-31.333 -16.667 -51 -25 -59 -25h-17c-8 0.666992 -14 1 -18 1l42 53
c16.667 23.333 25 43 25 59c0 5.33301 -2.5 13.5 -7.5 24.5s-7.5 19.833 -7.5 26.5c0 3.33301 1.33301 7.66602 4 12.999c19.333 -1.33301 40 -10.666 62 -27.999s33 -35.333 33 -54z" />
    <glyph glyph-name="quotedblleft" unicode="&#x201c;" horiz-adv-x="280" 
d="M318 300l-17.999 -0.000976562c-8 -0.666992 -13.667 -1 -17 -1c-7.33301 0 -27 8.33301 -59 25c-3.33301 7.33301 -11.333 13 -24 17c-0.666992 4 -4.33398 8 -11.001 12c-1.33301 4 -5.33301 10 -12 18s-10 15.667 -10 23c0 18.667 11.333 37 34 55
c20.667 16.667 41 25.667 61 27c2.66699 -5.33301 4 -9.66602 4 -12.999c0 -6.66699 -2.5 -15.5 -7.5 -26.5s-7.5 -19.167 -7.5 -24.5c0 -16 8.33301 -35.667 25 -59zM180.001 299.999l-17.999 -0.000976562c-8 -0.666992 -13.667 -1 -17 -1c-7.33301 0 -27 8.33301 -59 25
c-3.33301 7.33301 -11.333 13 -24 17c-0.666992 4 -4.33398 8 -11.001 12c-1.33301 4 -5.33301 10 -12 18s-10 15.667 -10 23c0 18.667 11.333 37 34 55c20.667 16.667 41 25.667 61 27c2.66699 -5.33301 4 -9.66602 4 -12.999c0 -6.66699 -2.5 -15.5 -7.5 -26.5
s-7.5 -19.167 -7.5 -24.5c0 -16 8.33301 -35.667 25 -59z" />
    <glyph glyph-name="quotedblright" unicode="&#x201d;" horiz-adv-x="280" 
d="M319 394c0 -8 -3 -15.332 -9 -21.999c-7.33301 -8.66699 -11.666 -15 -12.999 -19c-6.66699 -3.33301 -10.334 -7.33301 -11.001 -12c-11.333 -2.66699 -19.333 -8.33398 -24 -17.001c-31.333 -16.667 -51 -25 -59 -25c-3.33301 0 -9 0.333008 -17 1h-18l42 53
c16.667 23.333 25 43 25 59c0 5.33301 -2.5 13.5 -7.5 24.5s-7.5 19.833 -7.5 26.5c0 3.33301 1.33301 7.66602 4 12.999c19.333 -1.33301 40 -10.666 62 -27.999s33 -35.333 33 -54zM181 394.001c0 -8 -3 -15.332 -9 -21.999c-7.33301 -8.66699 -11.666 -15 -12.999 -19
c-6.66699 -3.33301 -10.334 -7.33301 -11.001 -12c-11.333 -2.66699 -19.333 -8.33398 -24 -17.001c-31.333 -16.667 -51 -25 -59 -25c-3.33301 0 -9 0.333008 -17 1h-18l42 53c16.667 23.333 25 43 25 59c0 5.33301 -2.5 13.5 -7.5 24.5s-7.5 19.833 -7.5 26.5
c0 3.33301 1.33301 7.66602 4 12.999c19.333 -1.33301 40 -10.666 62 -27.999s33 -35.333 33 -54z" />
    <glyph glyph-name="quotedblbase" unicode="&#x201e;" horiz-adv-x="266" 
d="M236 2c0 -8 -3 -15.332 -9 -21.999c-7.33301 -8.66699 -11.666 -15 -12.999 -19c-6.66699 -3.33301 -10.334 -7.33301 -11.001 -12c-11.333 -2.66699 -19.333 -8.33398 -24 -17.001c-31.333 -16.667 -51 -25 -59 -25h-17c-8 0.666992 -14 1 -18 1l42 53
c16.667 23.333 25 43 25 59c0 5.33301 -2.5 13.5 -7.5 24.5s-7.5 19.833 -7.5 26.5c0 3.33301 1.33301 7.66602 4 12.999c19.333 -1.33301 40 -10.666 62 -27.999s33 -35.333 33 -54zM108 2.00098c0 -8 -3 -15.332 -9 -21.999c-7.33301 -8.66699 -11.666 -15 -12.999 -19
c-6.66699 -3.33301 -10.334 -7.33301 -11.001 -12c-11.333 -2.66699 -19.333 -8.33398 -24 -17.001c-31.333 -16.667 -51 -25 -59 -25h-17c-8 0.666992 -14 1 -18 1l42 53c16.667 23.333 25 43 25 59c0 5.33301 -2.5 13.5 -7.5 24.5s-7.5 19.833 -7.5 26.5
c0 3.33301 1.33301 7.66602 4 12.999c19.333 -1.33301 40 -10.666 62 -27.999s33 -35.333 33 -54z" />
    <glyph glyph-name="dagger" unicode="&#x2020;" horiz-adv-x="271" 
d="M222 423h-67v-357h-36v357h-66v33h66v64c0 7.33301 -3 17.833 -9 31.5s-9 24.834 -9 33.501c0 7.33301 2.5 18.5 7.5 33.5s8.83301 29.833 11.5 44.5c4 17.333 9.66699 26 17 26s13 -8.66699 17 -26c2.66699 -14.667 6.5 -29.5 11.5 -44.5s7.5 -26.167 7.5 -33.5
c0 -8.66699 -3 -19.834 -9 -33.501s-9 -24.167 -9 -31.5v-64h67v-33z" />
    <glyph glyph-name="daggerdbl" unicode="&#x2021;" horiz-adv-x="271" 
d="M221 174h-67v-64c0 -7.33301 3 -17.833 9 -31.5s9 -24.834 9 -33.501c0 -7.33301 -2.5 -18.5 -7.5 -33.5s-8.83301 -29.833 -11.5 -44.5c-4 -18 -9.66699 -27 -17 -27s-13 9 -17 27c-2.66699 14.667 -6.5 29.5 -11.5 44.5s-7.5 26.167 -7.5 33.5
c0 8.66699 3 19.834 9 33.501s9 24.167 9 31.5v64h-66v33h66v215h-66v34h66v64c0 6.66699 -3 17 -9 31s-9 25 -9 33s2.5 19.5 7.5 34.5s8.83301 29.833 11.5 44.5c4 17.333 9.66699 26 17 26s13 -8.66699 17 -26c2.66699 -14.667 6.5 -29.5 11.5 -44.5s7.5 -26.5 7.5 -34.5
s-3 -19 -9 -33s-9 -24.333 -9 -31v-64h67v-34h-67v-215h67v-33z" />
    <glyph glyph-name="bullet" unicode="&#x2022;" horiz-adv-x="471" 
d="M405 227c0 -43.333 -16.833 -80.166 -50.5 -110.499s-73.834 -45.5 -120.501 -45.5c-47.333 0 -87.833 15.167 -121.5 45.5s-50.5 67.166 -50.5 110.499c0 42.667 16.833 79.167 50.5 109.5s74.167 45.5 121.5 45.5c46.667 0 86.834 -15.167 120.501 -45.5
s50.5 -66.833 50.5 -109.5z" />
    <glyph glyph-name="ellipsis" unicode="&#x2026;" horiz-adv-x="557" 
d="M450 20c-4.66699 -1.33301 -11.333 -5.83301 -20 -13.5s-17.667 -11.5 -27 -11.5c-6 0 -16.667 2.33301 -32 7c-5.33301 8 -12 23.333 -20 46l15 4c6 4.66699 14.333 12 25 22c24 -4 38 -7 42 -9c11.333 -6 17 -18.333 17 -37v-8zM290.001 20
c-4.66699 -1.33301 -11.333 -5.83301 -20 -13.5s-17.667 -11.5 -27 -11.5c-6 0 -16.667 2.33301 -32 7c-5.33301 8 -12 23.333 -20 46l15 4c6 4.66699 14.333 12 25 22c24 -4 38 -7 42 -9c11.333 -6 17 -18.333 17 -37v-8zM130.002 20
c-4.66699 -1.33301 -11.333 -5.83301 -20 -13.5s-17.667 -11.5 -27 -11.5c-6 0 -16.667 2.33301 -32 7c-5.33301 8 -12 23.333 -20 46l15 4c6 4.66699 14.333 12 25 22c24 -4 38 -7 42 -9c11.333 -6 17 -18.333 17 -37v-8z" />
    <glyph glyph-name="perthousand" unicode="&#x2030;" horiz-adv-x="1138" 
d="M1096 179c0 -52 -13.667 -95.666 -41 -130.999c-30 -39.333 -71.667 -59 -125 -59c-55.333 0 -99.333 20 -132 60c-28.667 35.333 -43 78.666 -43 129.999c0 50 14 92.333 42 127c32 39.333 75 59 129 59s97 -19.667 129 -59c27.333 -34.667 41 -77 41 -127zM736 179.001
c0 -52 -13.666 -95.666 -40.999 -130.999c-30.667 -39.333 -72.334 -59 -125.001 -59c-56 0 -100 20 -132 60c-29.333 35.333 -44 78.666 -44 129.999c0 50 14.333 92.333 43 127c31.333 39.333 74 59 128 59c54.667 0 97.667 -19.667 129 -59c28 -34.667 42 -77 42 -127z
M638.001 656.002l-465 -660h-47l465 660h47zM372.001 469.002c0 -51.333 -13.667 -94.667 -41 -130c-30 -39.333 -71.667 -59 -125 -59c-55.333 0 -99.333 20 -132 60c-28.667 35.333 -43 78.333 -43 129s14 93.334 42 128.001c32 39.333 75 59 129 59
s96.667 -19.667 128 -59c28 -34.667 42 -77.334 42 -128.001zM1001 167.001l0.000976562 23.001c0 53.333 -3.66699 89.666 -11 108.999c-10 30 -31.333 45 -64 45s-54.334 -15.333 -65.001 -46c-7.33301 -19.333 -11 -55.333 -11 -108v-23
c0 -54.667 3.66699 -91.667 11 -111c10.667 -30 33.667 -45 69 -45c30.667 0 50.667 14.333 60 43c7.33301 20 11 57.667 11 113zM640.002 167.002l0.00292969 23.001c0 53.333 -3.33301 89.666 -10 108.999c-10.667 30 -32.334 45 -65.001 45s-54.334 -15.333 -65.001 -46
c-6.66699 -19.333 -10 -55.333 -10 -108v-23c0 -54.667 3.33301 -91.667 10 -111c11.333 -30 34.666 -45 69.999 -45c30 0 50 14.333 60 43c6.66699 20 10 57.667 10 113zM277.005 458.003l0.000976562 23c0 52.667 -3.66699 89 -11 109c-10 29.333 -31.333 44 -64 44
s-54.334 -15 -65.001 -45c-7.33301 -20 -11 -56 -11 -108v-23c0 -54.667 3.66699 -91.667 11 -111c10.667 -30.667 33.667 -46 69 -46c30.667 0 50.667 14.667 60 44c7.33301 20 11 57.667 11 113z" />
    <glyph glyph-name="guilsinglleft" unicode="&#x2039;" horiz-adv-x="398" 
d="M389 332c-26.667 -40 -45.665 -59.999 -56.998 -59.999c-27.333 0 -66.666 -5.66699 -117.999 -17c-56.667 -13.333 -93 -26.333 -109 -39l77 -26c34.667 -12 58.667 -23 72 -33c2 0.666992 5 1 9 1c5.33301 0 11.333 -2 18 -6
c12.667 -3.33301 30.334 -9.33301 53.001 -18c2 -1.33301 6 -4.66602 12 -9.99902c24.667 -23.333 35 -44.666 31 -63.999l-2 -10c-2.66699 -2.66699 -5 -5.33398 -7 -8.00098s-6.33301 -4 -13 -4c-2.66699 0 -15.834 5.66699 -39.501 17s-37.5 18.333 -41.5 21
c-16.667 4 -46.334 14.333 -89.001 31s-70 29 -82 37c-2 1.33301 -8 3.66602 -18 6.99902c-14.667 4.66699 -28.334 11 -41.001 19c-0.666992 1.33301 -2.16699 3 -4.5 5s-4.16602 3.33301 -5.49902 4c-16 9.33301 -24 18.333 -24 27c0 13.333 9.33301 26.666 28 39.999
c51.333 36.667 102.666 61.167 153.999 73.5s96.666 18.5 135.999 18.5c20.667 0 41 -2 61 -6z" />
    <glyph glyph-name="guilsinglright" unicode="&#x203a;" horiz-adv-x="398" 
d="M388 206c0 -8 -7.66504 -17.0029 -22.998 -27.0029c-2 -2 -5.66699 -5 -11 -9c-12 -7.33301 -25.667 -13.666 -41 -18.999c-4 -0.666992 -10 -3 -18 -7c-12 -8 -39.333 -20.5 -82 -37.5s-72.334 -27.167 -89.001 -30.5c-4 -2.66699 -17.833 -9.66699 -41.5 -21
s-36.834 -17 -39.501 -17c-6.66699 0 -11 1.33301 -13 4s-4.33301 5.33398 -7 8.00098l-1 10c-4 20 6 41.333 30 64c2.66699 2.66699 6.66699 6 12 10c12 3.33301 29.667 9.33301 53 18c9.33301 4 15.333 6 18 6c4 0 7 -0.333008 9 -1c13.333 10 37.333 21 72 33l77 26
c-16 12.667 -52.333 25.667 -109 39c-51.333 11.333 -90.666 17 -117.999 17c-8 0 -27 20 -57 60c21.333 4 41.666 6 60.999 6c38.667 0 84 -6.33301 136 -19s103.333 -37 154 -73c18.667 -13.333 28 -26.666 28 -39.999z" />
    <glyph glyph-name="newsheqel" unicode="&#x20aa;" horiz-adv-x="662" 
d="M504 505c0 -2.66699 -10.833 -24.5 -32.5 -65.5s-34.167 -62.833 -37.5 -65.5c-18 -28.667 -29.667 -43 -35 -43c-6 0 -12.333 4 -19 12l28 64l36 96c1.33301 2.66699 3.33301 9 6 19c2 8 9 14.667 21 20c22 -16 33 -28.333 33 -37zM392 517
c0 -8 -2.83398 -28.167 -8.50098 -60.5s-9.83398 -50.5 -12.501 -54.5c-3.33301 -20 -10.666 -30 -21.999 -30c-4.66699 0 -10.334 2 -17.001 6v3c0.666992 8 0.333984 12.5 -0.999023 13.5s-2.66602 4.83301 -3.99902 11.5l-1 22c0 24.667 3.33301 44.667 10 60
c-1.33301 2 -2 9 -2 21v5c-0.666992 2.66699 -1 4.66699 -1 6c0 13.333 2.66699 22.333 8 27c34 -9.33301 51 -19.333 51 -30zM641.999 314c0 -10.667 -2.33105 -18.665 -6.99805 -23.998c0 -1.33301 -0.333008 -3.16602 -1 -5.49902s-1.33398 -4.16602 -2.00098 -5.49902
c-1.33301 -9.33301 -7 -23.333 -17 -42c-0.666992 -3.33301 -0.666992 -7 0 -11c-8 -6 -12 -12 -12 -18c-5.33301 -6.66699 -8.33301 -12 -9 -16c-8.66699 -12.667 -17.334 -21.667 -26.001 -27c-16.667 -20 -47 -47 -91 -81c-16.667 -12.667 -25 -29.334 -25 -50.001
c0 -27.333 3.33301 -48 10 -62c14.667 -31.333 35 -55.666 61 -72.999l-17 -4c-19.333 6.66699 -33.666 12 -42.999 16c-17.333 8.66699 -32.333 19.334 -45 32.001c-8 4.66699 -15.167 14.667 -21.5 30s-10.833 23.666 -13.5 24.999l-3 42c-2.66699 6.66699 -4 12 -4 16
c0 6 1.33301 14.333 4 25s4 18.667 4 24v9c8.66699 42 19.334 70.667 32.001 86c10 16 20 38.333 30 67c4.66699 4 14.667 19 30 45c4 3.33301 8.33301 9.16602 13 17.499s8.66699 14.166 12 17.499l12 12c0.666992 2.66699 6.66699 11.667 18 27c8 11.333 18.333 17 31 17
c7.33301 0 13.166 -0.333008 17.499 -1s15.166 -4.33398 32.499 -11.001s26.333 -11 27 -13c1.33301 -4.66699 2 -19.334 2 -44.001c0 -2.66699 0.333008 -6 1 -10v-10zM351.001 208.002c0 -12 -0.665039 -18.998 -1.99805 -20.998c-4 -28.667 -11 -71.667 -21 -129
c-5.33301 -24.667 -17.333 -45.334 -36 -62.001c-5.33301 28 -8 54.667 -8 80c0 12 0.333008 29.833 1 53.5s1 41.5 1 53.5c0 68.667 -6.33301 110 -19 124c-7.33301 8 -18.333 14.667 -33 20c-12.667 -16 -27 -38.667 -43 -68c-18 -32.667 -29 -57.334 -33 -74.001
c-2.66699 -11.333 -7 -20 -13 -26c-1.33301 -7.33301 -6.33301 -19 -15 -35l-12 -12c-2.66699 -14 -8 -23.667 -16 -29c-3.33301 -5.33301 -7.33301 -14 -12 -26l-14 -17c-4.66699 -7.33301 -10.667 -19.333 -18 -36l-5 -4c-2.66699 -6.66699 -8.33398 -10 -17.001 -10
c-6.66699 0 -11.667 0.333008 -15 1c-4 18.667 -6 32.334 -6 41.001c0 34.667 9 71 27 109c4 5.33301 9 13.666 15 24.999c2 6.66699 5.33301 16 10 28c6.66699 14.667 17 33 31 55l35 60c14.667 24.667 28.667 42.667 42 54c4.66699 4 8.66699 8.66699 12 14h6
c4 0 9.5 0.5 16.5 1.5s12.167 1.5 15.5 1.5c17.333 -8.66699 39.666 -23 66.999 -43c35.333 -18 54.333 -58.667 57 -122c1.33301 -2.66699 2 -5 2 -7zM590.003 351.004c-4 -0.666992 -10.833 -5.66699 -20.5 -15s-15 -16 -16 -20s-2.5 -9 -4.5 -15
c-4.66699 -8.66699 -12 -19.334 -22 -32.001c-8 -4 -13.167 -9.16699 -15.5 -15.5l-10.5 -29.5l-20 -52c48.667 40.667 80.667 83.334 96 128.001c5.33301 16.667 9 33.667 11 51h2z" />
    <glyph glyph-name="trademark" unicode="&#x2122;" horiz-adv-x="510" 
d="M467 464h-96v16h28v116l-48 -132h-12l-53 125v-109h29v-16h-77v16h28v148h-28v17h63l52 -123l46 123h68v-17h-27v-148h27v-16zM216 600h-17c-1.33301 6.66699 -3 12 -5 16c-4 8 -12.333 12 -25 12h-22v-148h28v-16h-97v16h27v148h-23c-16.667 0 -26.667 -9.33301 -30 -28
h-17l5 45h172z" />
    <glyph glyph-name="onethird" unicode="&#x2153;" horiz-adv-x="387" 
d="M286 380h-149v18h46v251l-48 -4v17l97 11l7 -5v-270h47v-18zM363 323h-309v29h309v-29zM318 79c0 -24.667 -10.501 -45.833 -31.501 -63.5s-46.833 -26.5 -77.5 -26.5c-22.667 0 -43 5 -61 15c-20.667 12 -31 27.667 -31 47c0 22.667 11.333 34 34 34s34 -11 34 -33
c0 -12.667 -8.33301 -22.667 -25 -30c-0.666992 0 -1 -0.333008 -1 -1s0.333008 -1.33398 1 -2.00098c10.667 -7.33301 25.334 -11 44.001 -11c40 0 60 23.333 60 70c0 43.333 -21.667 65 -65 65c-3.33301 0 -9 -0.333008 -17 -1h-15c-10 0 -15 3.33301 -15 10
c0 7.33301 5 11 15 11c2.66699 0 7.83398 -0.333008 15.501 -1s13.167 -1 16.5 -1c40 0 60 20.333 60 61c0 34.667 -16.333 52 -49 52c-28.667 0 -43 -3.33301 -43 -10c-0.666992 0 -0.333984 0 0.999023 0c14.667 -4 22 -13.333 22 -28c0 -18 -10.667 -27 -32 -27
s-32 10.333 -32 31c0 12 6.66699 23 20 33c16.667 12.667 39 19 67 19c27.333 0 50.333 -5.66699 69 -17c22 -14 33 -33 33 -57c0 -31.333 -19.333 -53.666 -58 -66.999c40.667 -12.667 61 -36.667 61 -72z" />
    <glyph glyph-name="twothird" unicode="&#x2154;" horiz-adv-x="387" 
d="M320 459v-3.99902l-6 -83h-213v28l114 100c28.667 24.667 43 54.667 43 90c0 38 -19 57 -57 57c-14.667 0 -28.334 -2.66699 -41.001 -8s-19 -11 -19 -17h2c1.33301 0.666992 3.33301 1 6 1c8.66699 0 16 -3 22 -9s9 -12.333 9 -19c0 -20.667 -12.333 -31 -37 -31
c-23.333 0 -35 11 -35 33s10.333 39 31 51s45.334 18 74.001 18c27.333 0 50 -5 68 -15c22.667 -12.667 34 -31.334 34 -56.001c0 -28.667 -28 -65 -84 -109l-87 -70h117c18.667 0 31 9.66699 37 29s10.667 29 14 29c5.33301 0 8 -5 8 -15zM356 317.001h-310v30h310v-30z
M310 79.001c0 -24.667 -10.333 -45.833 -31 -63.5s-46.334 -26.5 -77.001 -26.5c-23.333 0 -43.666 5 -60.999 15c-20.667 12 -31 27.667 -31 47c0 22.667 11.333 34 34 34s34 -11 34 -33c0 -12.667 -8.33301 -22.667 -25 -30c-0.666992 0 -1 -0.333008 -1 -1
s0.333008 -1.33398 1 -2.00098c10 -7.33301 24.667 -11 44 -11c40 0 60 23.333 60 70c0 43.333 -21.667 65 -65 65c-3.33301 0 -9 -0.333008 -17 -1h-15c-10 0 -15 3.33301 -15 10c0 7.33301 5 11 15 11c2.66699 0 7.83398 -0.333008 15.501 -1s13.167 -1 16.5 -1
c40 0 60 20.333 60 61c0 34.667 -16.333 52 -49 52c-28.667 0 -43 -3.33301 -43 -10c-0.666992 0 -0.333984 0 0.999023 0c14.667 -4 22 -13.333 22 -28c0 -18 -11 -27 -33 -27c-20.667 0 -31 10.333 -31 31c0 12 6.66699 23 20 33c16.667 12.667 39 19 67 19
c27.333 0 50.333 -5.66699 69 -17c21.333 -14 32 -33 32 -57c0 -31.333 -19.333 -53.666 -58 -66.999c40.667 -12.667 61 -36.667 61 -72z" />
    <glyph glyph-name="delete" unicode="&#x2421;" horiz-adv-x="781" 
d="M742 0h-179v286h39v-252h140v-34zM527 0h-214v286h208v-34h-169v-87h158v-34h-158v-97h175v-34zM279 145c0 -79.333 -29.001 -126 -87.001 -140c-13.333 -3.33301 -28.666 -5 -45.999 -5h-104v286h99c22.667 0 39.667 -1.33301 51 -4c58 -13.333 87 -59 87 -137z
M239.999 146c0 54 -17 87.667 -51 101c-10 3.33301 -26 5 -48 5h-61v-218h62c32.667 0 55.667 6.66699 69 20c19.333 19.333 29 50 29 92z" />
    <glyph glyph-name="finalkafwithsheva" unicode="&#xe802;" horiz-adv-x="411" 
d="M126 205c-0.666992 -8 -1.6709 -15.9971 -3.00391 -23.9971c-1.33301 -10.667 -4.66602 -16.667 -9.99902 -18c-4.66699 -2 -20 0.666992 -46 8c-2.66699 -9.33301 -7.66699 -21.333 -15 -36c1.33301 -4.66699 0.333008 -10 -3 -16s-7.66602 -9.33301 -12.999 -10
c-4 -1.33301 -9 0 -15 4c0 1.33301 -0.666992 7.66602 -2 18.999c2 2 2.33301 6.16699 1 12.5s-0.666016 11.166 2.00098 14.499l-1 1c-1.33301 7.33301 -1.66602 15 -0.999023 23c-6 0.666992 -14 2.33398 -24 5.00098c-5.33301 -1.33301 -11.666 -0.833008 -18.999 1.5
s-12 6.16602 -14 11.499c-1.33301 4.66699 0 9.33398 4 14.001c1.33301 0 9 1 23 3c0.666992 -0.666992 5 -0.333984 13 0.999023c11.333 2 23 2.16699 35 0.5s29 -3.83398 51 -6.50098l-3 -1c1.33301 0.666992 7.66602 1 18.999 1c7.33301 0 14.333 -2.66699 21 -8z
M420.996 319.003c-3.33301 -9.33301 -4.99902 -19.6729 -4.99902 -31.0059c0 -26 -20 -53.333 -60 -82c-8.66699 -5.33301 -21 -13.666 -37 -24.999c-4.66699 -3.33301 -24.667 -20.666 -60 -51.999c-24.667 -21.333 -46.334 -36.666 -65.001 -45.999
c-26.667 -13.333 -48 -35 -64 -65c-4 -8 -10 -15.167 -18 -21.5s-13.5 -11.166 -16.5 -14.499s-5.83301 -9 -8.5 -17c-6.66699 -5.33301 -14.667 -14.833 -24 -28.5s-17.666 -22.834 -24.999 -27.501c-2 -9.33301 -12 -24.333 -30 -45c-2 -2 -5.33301 -9 -10 -21
c-3.33301 -8.66699 -10.666 -20 -21.999 -34c-12 -16 -21.667 -25.667 -29 -29l-9 -8c-4 -3.33301 -6 -6.66602 -6 -9.99902c0 -7.33301 -0.666992 -13.333 -2 -18c-1.33301 -10.667 -7.66602 -24 -18.999 -40c-14 -20.667 -22.333 -33.667 -25 -39
c-4.66699 -0.666992 -15 -6.66699 -31 -18c-3.33301 26.667 -5 42.334 -5 47.001c0 29.333 4.66699 52.333 14 69v5c0 10.667 4.33301 25 13 43l19 43l10.5 22.5c3.66699 7.66699 9.16699 12.834 16.5 15.501c0.666992 5.33301 11.667 22.333 33 51c4.66699 10 13 24 25 42
l37 41l21 26c7.33301 8.66699 15.666 15.667 24.999 21c11.333 16 48.666 50 111.999 102c61.333 50 101.666 80.333 120.999 91c22 12 33 28.667 33 50c0 6 -1 11.333 -3 16c-8 4 -16.667 6 -26 6c-37.333 0 -75.666 -19.667 -114.999 -59
c-14.667 -14.667 -31.334 -22 -50.001 -22c-11.333 0 -23 3.83301 -35 11.5s-18 16.5 -18 26.5c0 10.667 7.66699 22 23 34c56.667 45.333 116.667 68 180 68c29.333 0 50 -3.33301 62 -10l33 -22c10 -6.66699 23.333 -22 40 -46z" />
    <glyph glyph-name="finalkafwithqamats" unicode="&#xe803;" horiz-adv-x="411" 
d="M90 204c0 -4 -0.167969 -6.66504 -0.500977 -7.99805s-1 -3 -2 -5l-2.5 -5c-5.33301 -2.66699 -16.333 -6 -33 -10l-3 8c-2.66699 3.33301 -8 7.66602 -16 12.999c3.33301 13.333 6.33301 21.833 9 25.5s10.667 5.5 24 5.5h6c0.666992 -2 4.33398 -5.33301 11.001 -10
c4.66699 -4.66699 7 -9.33398 7 -14.001zM79.999 127.002c0 -4 -0.331055 -6.83008 -0.998047 -8.49707s-2 -4.5 -4 -8.5c-5.33301 -2.66699 -16.333 -6.33398 -33 -11.001l-3 8c-2.66699 3.33301 -8 8 -16 14c3.33301 13.333 6 21 8 23c3.33301 5.33301 11.666 8 24.999 8
h6c1.33301 -2.66699 4.66602 -6.33398 9.99902 -11.001s8 -9.33398 8 -14.001zM421.001 319.005c-3.33301 -9.33301 -4.99902 -19.6729 -4.99902 -31.0059c0 -26 -20 -53.333 -60 -82c-8.66699 -5.33301 -21 -13.666 -37 -24.999
c-4.66699 -3.33301 -24.667 -20.666 -60 -51.999c-24.667 -21.333 -46.334 -36.666 -65.001 -45.999c-26.667 -13.333 -48 -35 -64 -65c-4 -8 -10 -15.167 -18 -21.5s-13.5 -11.166 -16.5 -14.499s-5.83301 -9 -8.5 -17c-6.66699 -5.33301 -14.667 -14.833 -24 -28.5
s-17.666 -22.834 -24.999 -27.501c-2 -9.33301 -12 -24.333 -30 -45c-2 -2 -5.33301 -9 -10 -21c-3.33301 -8.66699 -10.666 -20 -21.999 -34c-12 -16 -21.667 -25.667 -29 -29l-9 -8c-4 -3.33301 -6 -6.66602 -6 -9.99902c0 -7.33301 -0.666992 -13.333 -2 -18
c-1.33301 -10.667 -7.66602 -24 -18.999 -40c-14 -20.667 -22.333 -33.667 -25 -39c-4.66699 -0.666992 -15 -6.66699 -31 -18c-3.33301 26.667 -5 42.334 -5 47.001c0 29.333 4.66699 52.333 14 69v5c0 10.667 4.33301 25 13 43l19 43l10.5 22.5
c3.66699 7.66699 9.16699 12.834 16.5 15.501c0.666992 5.33301 11.667 22.333 33 51c4.66699 10 13 24 25 42l37 41l21 26c7.33301 8.66699 15.666 15.667 24.999 21c11.333 16 48.666 50 111.999 102c61.333 50 101.666 80.333 120.999 91c22 12 33 28.667 33 50
c0 6 -1 11.333 -3 16c-8 4 -16.667 6 -26 6c-37.333 0 -75.666 -19.667 -114.999 -59c-14.667 -14.667 -31.334 -22 -50.001 -22c-11.333 0 -23 3.83301 -35 11.5s-18 16.5 -18 26.5c0 10.667 7.66699 22 23 34c56.667 45.333 116.667 68 180 68
c29.333 0 50 -3.33301 62 -10l33 -22c10 -6.66699 23.333 -22 40 -46z" />
    <glyph glyph-name="lamedwithholam" unicode="&#xe804;" horiz-adv-x="342" 
d="M296 496c-4 -1.33301 -10.6689 -6.66797 -20.002 -16.001c-6.66699 -6.66699 -14.667 -10 -24 -10c-4.66699 0 -14.667 2.33301 -30 7c-5.33301 8 -11.666 23 -18.999 45l14 4c6 4.66699 14 12.334 24 23.001c24.667 -4 39.334 -7.66699 44.001 -11
c7.33301 -6 11 -20 11 -42zM701.998 689.998c0 -8 -16.001 -18.3369 -48.001 -31.0039c-16.667 -6 -33.334 -12.333 -50.001 -19l-9 -12c-9.33301 -0.666992 -17.833 -3.66699 -25.5 -9s-14.5 -8.66602 -20.5 -9.99902c-36.667 -22 -61.667 -43 -75 -63l-9 -3
c-10.667 -20 -26 -37 -46 -51l-3 -18c-7.33301 -6.66699 -20.333 -26 -39 -58c-16 -27.333 -27.667 -49 -35 -65c-8.66699 -7.33301 -14.167 -16.666 -16.5 -27.999s-6.83301 -20.666 -13.5 -27.999c-14 -44 -26.667 -71.667 -38 -83l-10 -5l4 -13l-20 -19
c-1.33301 -12.667 -6 -25 -14 -37c-9.33301 -16 -15 -27.333 -17 -34l-11 -3c-5.33301 -21.333 -15.333 -39.833 -30 -55.5s-29.667 -30.834 -45 -45.501l-32 -1c-16.667 14 -36 31.333 -58 52c-9.33301 8.66699 -14 19.334 -14 32.001c0 6 1.33301 14.667 4 26
s4 19.666 4 24.999c0 3.33301 -0.333008 6 -1 8l27 56c9.33301 22 15 42 17 60l21 16c9.33301 6.66699 16.666 10 21.999 10c10 0 21.333 -2.66699 34 -8s19 -12.333 19 -21c0 -8 -9.5 -23.5 -28.5 -46.5s-28.5 -41.5 -28.5 -55.5c0 -6 1.33301 -12 4 -18
c14 5.33301 25.333 16 34 32l17 43c2 11.333 7.66699 24 17 38c12 16.667 19.333 28 22 34c4.66699 11.333 12.667 24 24 38c0.666992 0.666992 11.334 17.667 32.001 51c6.66699 9.33301 15.667 24.333 27 45c6 12.667 12 22.334 18 29.001l-2 12
c6.66699 10.667 19 23.667 37 39c6.66699 24.667 33.334 57.334 80.001 98.001c40 34 75.667 59.333 107 76c11.333 4 28.333 10.667 51 20c42.667 12 74.334 18 95.001 18c14.667 0 22 -6 22 -18z" />
    <glyph glyph-name="lamedwithdageshandholam" unicode="&#xe805;" horiz-adv-x="342" 
d="M296 496c-4 -1.33301 -10.6689 -6.66797 -20.002 -16.001c-6.66699 -6.66699 -14.667 -10 -24 -10c-4.66699 0 -14.667 2.33301 -30 7c-5.33301 8 -11.666 23 -18.999 45l14 4c6 4.66699 14 12.334 24 23.001c24.667 -4 39.334 -7.66699 44.001 -11
c7.33301 -6 11 -20 11 -42zM701.998 689.998c0 -8 -16.001 -18.3369 -48.001 -31.0039c-16.667 -6 -33.334 -12.333 -50.001 -19l-9 -12c-9.33301 -0.666992 -17.833 -3.66699 -25.5 -9s-14.5 -8.66602 -20.5 -9.99902c-36.667 -22 -61.667 -43 -75 -63l-9 -3
c-10.667 -20 -26 -37 -46 -51l-3 -18c-7.33301 -6.66699 -20.333 -26 -39 -58c-16 -27.333 -27.667 -49 -35 -65c-8.66699 -7.33301 -14.167 -16.666 -16.5 -27.999s-6.83301 -20.666 -13.5 -27.999c-14 -44 -26.667 -71.667 -38 -83l-10 -5l4 -13l-20 -19
c-1.33301 -12.667 -6 -25 -14 -37c-9.33301 -16 -15 -27.333 -17 -34l-11 -3c-5.33301 -21.333 -15.333 -39.833 -30 -55.5s-29.667 -30.834 -45 -45.501l-32 -1c-16.667 14 -36 31.333 -58 52c-9.33301 8.66699 -14 19.334 -14 32.001c0 6 1.33301 14.667 4 26
s4 19.666 4 24.999c0 3.33301 -0.333008 6 -1 8l27 56c9.33301 22 15 42 17 60l21 16c9.33301 6.66699 16.666 10 21.999 10c10 0 21.333 -2.66699 34 -8s19 -12.333 19 -21c0 -8 -9.5 -23.5 -28.5 -46.5s-28.5 -41.5 -28.5 -55.5c0 -6 1.33301 -12 4 -18
c14 5.33301 25.333 16 34 32l17 43c2 11.333 7.66699 24 17 38c12 16.667 19.333 28 22 34c4.66699 11.333 12.667 24 24 38c0.666992 0.666992 11.334 17.667 32.001 51c6.66699 9.33301 15.667 24.333 27 45c6 12.667 12 22.334 18 29.001l-2 12
c6.66699 10.667 19 23.667 37 39c6.66699 24.667 33.334 57.334 80.001 98.001c40 34 75.667 59.333 107 76c11.333 4 28.333 10.667 51 20c42.667 12 74.334 18 95.001 18c14.667 0 22 -6 22 -18zM202.997 310.994c-2.66699 -0.666992 -6.33301 -3.33398 -11 -8.00098
s-9.66699 -7 -15 -7c-4.66699 0 -11 1.33301 -19 4c-2.66699 4.66699 -6.33398 13.667 -11.001 27l9 2c3.33301 2.66699 8 7.33398 14 14.001c14.667 -2 23.334 -4 26.001 -6c4.66699 -4 7 -12.667 7 -26z" />
    <glyph glyph-name="alternativeayin" unicode="&#xfb20;" horiz-adv-x="430" 
d="M480 409c0 -6.66699 -3.33008 -13.6641 -9.99707 -20.9971c-5.33301 -0.666992 -9 -1 -11 -1c-3.33301 0 -8.33301 0.833008 -15 2.5s-11.334 2.5 -14.001 2.5c-15.333 0 -42.333 -14 -81 -42c1.33301 -2.66699 2 -7.33398 2 -14.001v-10c-0.666992 -2 0 -6.66699 2 -14
c0 -1.33301 0.333008 -3.66602 1 -6.99902v-7c0 -2 -1.66699 -6.33301 -5 -13c2.66699 -10.667 4 -14 4 -10c0 -42 -6.66699 -83 -20 -123c-4 -1.33301 -6 -7.33301 -6 -18c-2.66699 -7.33301 -7.33398 -19 -14.001 -35c-6.66699 -4.66699 -11.334 -11 -14.001 -19
c-1.33301 -10.667 -10 -27.334 -26 -50.001l-36 -48h-4c-9.33301 -12.667 -21 -21.334 -35 -26.001c-9.33301 -8.66699 -26 -13 -50 -13c-19.333 0 -33.333 1.66699 -42 5c-13.333 2 -27.833 9.33301 -43.5 22s-25.5 24 -29.5 34
c-1.33301 2.66699 -3.83301 11.834 -7.5 27.501s-5.5 24.834 -5.5 27.501c0 5.33301 1.5 13.166 4.5 23.499s4.5 18.166 4.5 23.499s2.33301 12.5 7 21.5s6.66699 16.167 6 21.5c8.66699 11.333 19 29 31 53c6 4.66699 13 13.5 21 26.5s16 21.833 24 26.5
c4.66699 4.66699 10.334 13.334 17.001 26.001c4 0.666992 9.66699 5.66699 17 15s19 17.666 35 24.999c2 3.33301 5.66699 8.33301 11 15c17.333 14.667 36.333 31.667 57 51c7.33301 3.33301 11 6.33301 11 9c0 11.333 -21.667 27.333 -65 48l-3 19l15 14
c39.333 -8.66699 59.666 -13.334 60.999 -14.001c14.667 -5.33301 32 -17.333 52 -36l41 17c10 2 24.667 5.33301 44 10c46 -13.333 69 -28.333 69 -45zM292.003 318.003l-0.000976562 10.002l-14 -11c-2.66699 -7.33301 -12 -19 -28 -35s-24.333 -26 -25 -30
c-4.66699 -2.66699 -16.667 -16.667 -36 -42s-29.333 -39.5 -30 -42.5s-3.16699 -6.83301 -7.5 -11.5s-6.16602 -9.33398 -5.49902 -14.001c-3.33301 -3.33301 -8.5 -11.666 -15.5 -24.999s-10.5 -22 -10.5 -26c-8.66699 -10 -13 -34.333 -13 -73
c0 -10 0.333008 -17.667 1 -23c6 -8 14.333 -12 25 -12s24.667 11.333 42 34l34 48c0.666992 5.33301 4.5 13 11.5 23s10.5 17.333 10.5 22c18.667 27.333 32 60.666 40 99.999c2.66699 12 6 29 10 51c0.666992 3.33301 3 12.666 7 27.999c2.66699 12 4 21.667 4 29z" />
    <glyph glyph-name="shinwithshindot" unicode="&#xfb2a;" horiz-adv-x="329" 
d="M461 496c-4 -1.33301 -10.6689 -6.66797 -20.002 -16.001c-6.66699 -6.66699 -14.667 -10 -24 -10c-4.66699 0 -14.667 2.33301 -30 7c-5.33301 8 -11.666 23 -18.999 45l14 4c6 4.66699 14 12.334 24 23.001c24.667 -4 39.334 -7.66699 44.001 -11
c7.33301 -6 11 -20 11 -42zM357.998 391.998c0 -12.667 -3.00391 -22.3369 -9.00391 -29.0039c-2 -4.66699 -3.33301 -9.66699 -4 -15c-1.33301 -8.66699 -8.33301 -26 -21 -52c-2 -4 -2.33301 -8.33301 -1 -13c-4.66699 -4 -9.66699 -11.667 -15 -23
c-3.33301 -4 -7 -10.333 -11 -19c-10 -16 -20.667 -27.333 -32 -34c-18.667 -22.667 -56.334 -56.667 -113.001 -102c-21.333 -17.333 -32 -38.333 -32 -63c0 -33.333 4.33301 -59 13 -77c19.333 -40.667 44.333 -71.334 75 -92.001l-21 -4
c-24.667 8 -42.334 14.667 -53.001 20c-21.333 10.667 -40 24 -56 40c-10 6 -19 18.5 -27 37.5s-14 29.5 -18 31.5c0 4.66699 -0.666992 13.334 -2 26.001c-1.33301 10.667 -1.66602 19.334 -0.999023 26.001c-3.33301 6.66699 -5 13.334 -5 20.001
c0 7.33301 1.66699 17.833 5 31.5s5 23.834 5 30.501c0 4.66699 -0.333008 8.33398 -1 11.001c6.66699 24.667 12.334 43.334 17.001 56.001c8 24 16.333 41 25 51c2 8 8.66699 22.333 20 43c10.667 18 16.334 31.333 17.001 40c4 3.33301 16.333 22.333 37 57
c4.66699 4 10 11.333 16 22s11 18 15 22l15 15c2 5.33301 9.66699 16.666 23 33.999c10.667 14 23.334 21 38.001 21c4.66699 0 12.334 -0.666992 23.001 -2c5.33301 -0.666992 18.833 -5.33398 40.5 -14.001s32.834 -14 33.501 -16c1.33301 -4 2 -22.333 2 -55
c0 -2.66699 0.333008 -6.66699 1 -12s1 -9.66602 1 -12.999zM291.994 438.995c-4.66699 -0.666992 -12.8311 -6.83203 -24.498 -18.499s-18.334 -20 -20.001 -25l-6.5 -19.5c-1.33301 -2.66699 -10.333 -16 -27 -40c-8.66699 -3.33301 -14.834 -9.33301 -18.501 -18
s-8.5 -21.334 -14.5 -38.001l-25 -66c62.667 54.667 102.667 108 120 160c9.33301 28 14.333 47.667 15 59z" />
    <glyph glyph-name="shinwithsindot" unicode="&#xfb2b;" horiz-adv-x="332" 
d="M171 496c-4 -1.33301 -10.6689 -6.66797 -20.002 -16.001c-6.66699 -6.66699 -14.667 -10 -24 -10c-4.66699 0 -14.667 2.33301 -30 7c-5.33301 8 -11.666 23 -18.999 45l14 4c6 4.66699 14 12.334 24 23.001c24.667 -4 39.334 -7.66699 44.001 -11
c7.33301 -6 11 -20 11 -42zM357.998 391.998c0 -12.667 -3.00391 -22.3369 -9.00391 -29.0039c-2 -4.66699 -3.33301 -9.66699 -4 -15c-1.33301 -8.66699 -8.33301 -26 -21 -52c-2 -4 -2.33301 -8.33301 -1 -13c-4.66699 -4 -9.66699 -11.667 -15 -23
c-3.33301 -4 -7 -10.333 -11 -19c-10 -16 -20.667 -27.333 -32 -34c-18.667 -22.667 -56.334 -56.667 -113.001 -102c-21.333 -17.333 -32 -38.333 -32 -63c0 -33.333 4.33301 -59 13 -77c19.333 -40.667 44.333 -71.334 75 -92.001l-21 -4
c-24.667 8 -42.334 14.667 -53.001 20c-21.333 10.667 -40 24 -56 40c-10 6 -19 18.5 -27 37.5s-14 29.5 -18 31.5c0 4.66699 -0.666992 13.334 -2 26.001c-1.33301 10.667 -1.66602 19.334 -0.999023 26.001c-3.33301 6.66699 -5 13.334 -5 20.001
c0 7.33301 1.66699 17.833 5 31.5s5 23.834 5 30.501c0 4.66699 -0.333008 8.33398 -1 11.001c6.66699 24.667 12.334 43.334 17.001 56.001c8 24 16.333 41 25 51c2 8 8.66699 22.333 20 43c10.667 18 16.334 31.333 17.001 40c4 3.33301 16.333 22.333 37 57
c4.66699 4 10 11.333 16 22s11 18 15 22l15 15c2 5.33301 9.66699 16.666 23 33.999c10.667 14 23.334 21 38.001 21c4.66699 0 12.334 -0.666992 23.001 -2c5.33301 -0.666992 18.833 -5.33398 40.5 -14.001s32.834 -14 33.501 -16c1.33301 -4 2 -22.333 2 -55
c0 -2.66699 0.333008 -6.66699 1 -12s1 -9.66602 1 -12.999zM289.994 438.995l-9.99707 -6.99902c-4.66699 -0.666992 -10.834 -5.5 -18.501 -14.5s-12.334 -16.167 -14.001 -21.5l-6.5 -20c-1.33301 -2.66699 -10.333 -16 -27 -40
c-8.66699 -3.33301 -14.834 -9.33301 -18.501 -18s-8.5 -21.334 -14.5 -38.001l-25 -66c62.667 54.667 102.667 108 120 160c8 24 12.667 45.667 14 65z" />
    <glyph glyph-name="shinwithdageshandshindot" unicode="&#xfb2c;" horiz-adv-x="329" 
d="M461 496c-4 -1.33301 -10.6689 -6.66797 -20.002 -16.001c-6.66699 -6.66699 -14.667 -10 -24 -10c-4.66699 0 -14.667 2.33301 -30 7c-5.33301 8 -11.666 23 -18.999 45l14 4c6 4.66699 14 12.334 24 23.001c24.667 -4 39.334 -7.66699 44.001 -11
c7.33301 -6 11 -20 11 -42zM357.998 391.998c0 -12.667 -3.00391 -22.3369 -9.00391 -29.0039c-2 -4.66699 -3.33301 -9.66699 -4 -15c-1.33301 -8.66699 -8.33301 -26 -21 -52c-2 -4 -2.33301 -8.33301 -1 -13c-4.66699 -4 -9.66699 -11.667 -15 -23
c-3.33301 -4 -7 -10.333 -11 -19c-10 -16 -20.667 -27.333 -32 -34c-18.667 -22.667 -56.334 -56.667 -113.001 -102c-21.333 -17.333 -32 -38.333 -32 -63c0 -33.333 4.33301 -59 13 -77c19.333 -40.667 44.333 -71.334 75 -92.001l-21 -4
c-24.667 8 -42.334 14.667 -53.001 20c-21.333 10.667 -40 24 -56 40c-10 6 -19 18.5 -27 37.5s-14 29.5 -18 31.5c0 4.66699 -0.666992 13.334 -2 26.001c-1.33301 10.667 -1.66602 19.334 -0.999023 26.001c-3.33301 6.66699 -5 13.334 -5 20.001
c0 7.33301 1.66699 17.833 5 31.5s5 23.834 5 30.501c0 4.66699 -0.333008 8.33398 -1 11.001c6.66699 24.667 12.334 43.334 17.001 56.001c8 24 16.333 41 25 51c2 8 8.66699 22.333 20 43c10.667 18 16.334 31.333 17.001 40c4 3.33301 16.333 22.333 37 57
c4.66699 4 10 11.333 16 22s11 18 15 22l15 15c2 5.33301 9.66699 16.666 23 33.999c10.667 14 23.334 21 38.001 21c4.66699 0 12.334 -0.666992 23.001 -2c5.33301 -0.666992 18.833 -5.33398 40.5 -14.001s32.834 -14 33.501 -16c1.33301 -4 2 -22.333 2 -55
c0 -2.66699 0.333008 -6.66699 1 -12s1 -9.66602 1 -12.999zM238.994 31.9951c-4.66699 -1.33301 -11.002 -5.83301 -19.002 -13.5s-16.333 -11.5 -25 -11.5c-5.33301 0 -15.666 2.33301 -30.999 7c-5.33301 8 -11.666 23 -18.999 45l14 4c6 4.66699 14.333 12 25 22
c24 -3.33301 38.333 -7 43 -11c8 -6 12 -20 12 -42zM289.992 438.995l-11.998 -8.99902c-11.333 -1.33301 -22 -13 -32 -35c-0.666992 -4.66699 -2.33398 -11 -5.00098 -19c-1.33301 -2.66699 -10.333 -16 -27 -40c-8.66699 -3.33301 -14.834 -9.33301 -18.501 -18
s-8.5 -21.334 -14.5 -38.001l-25 -66c62.667 54.667 102.667 108 120 160c8 24 12.667 45.667 14 65z" />
    <glyph glyph-name="shinwithdageshandsindot" unicode="&#xfb2d;" horiz-adv-x="332" 
d="M171 496c-4 -1.33301 -10.6689 -6.66797 -20.002 -16.001c-6.66699 -6.66699 -14.667 -10 -24 -10c-4.66699 0 -14.667 2.33301 -30 7c-5.33301 8 -11.666 23 -18.999 45l14 4c6 4.66699 14 12.334 24 23.001c24.667 -4 39.334 -7.66699 44.001 -11
c7.33301 -6 11 -20 11 -42zM357.998 391.998c0 -12.667 -3.00391 -22.3369 -9.00391 -29.0039c-2 -4.66699 -3.33301 -9.66699 -4 -15c-1.33301 -8.66699 -8.33301 -26 -21 -52c-2 -4 -2.33301 -8.33301 -1 -13c-4.66699 -4 -9.66699 -11.667 -15 -23
c-3.33301 -4 -7 -10.333 -11 -19c-10 -16 -20.667 -27.333 -32 -34c-18.667 -22.667 -56.334 -56.667 -113.001 -102c-21.333 -17.333 -32 -38.333 -32 -63c0 -33.333 4.33301 -59 13 -77c19.333 -40.667 44.333 -71.334 75 -92.001l-21 -4
c-24.667 8 -42.334 14.667 -53.001 20c-21.333 10.667 -40 24 -56 40c-10 6 -19 18.5 -27 37.5s-14 29.5 -18 31.5c0 4.66699 -0.666992 13.334 -2 26.001c-1.33301 10.667 -1.66602 19.334 -0.999023 26.001c-3.33301 6.66699 -5 13.334 -5 20.001
c0 7.33301 1.66699 17.833 5 31.5s5 23.834 5 30.501c0 4.66699 -0.333008 8.33398 -1 11.001c6.66699 24.667 12.334 43.334 17.001 56.001c8 24 16.333 41 25 51c2 8 8.66699 22.333 20 43c10.667 18 16.334 31.333 17.001 40c4 3.33301 16.333 22.333 37 57
c4.66699 4 10 11.333 16 22s11 18 15 22l15 15c2 5.33301 9.66699 16.666 23 33.999c10.667 14 23.334 21 38.001 21c4.66699 0 12.334 -0.666992 23.001 -2c5.33301 -0.666992 18.833 -5.33398 40.5 -14.001s32.834 -14 33.501 -16c1.33301 -4 2 -22.333 2 -55
c0 -2.66699 0.333008 -6.66699 1 -12s1 -9.66602 1 -12.999zM238.994 31.9951c-4.66699 -1.33301 -11.002 -5.83301 -19.002 -13.5s-16.333 -11.5 -25 -11.5c-5.33301 0 -15.666 2.33301 -30.999 7c-5.33301 8 -11.666 23 -18.999 45l14 4c6 4.66699 14.333 12 25 22
c24 -3.33301 38.333 -7 43 -11c8 -6 12 -20 12 -42zM291.992 438.995c-4.66699 -0.666992 -12.8311 -6.83203 -24.498 -18.499s-18.334 -20 -20.001 -25l-6.5 -19.5c-1.33301 -2.66699 -10.333 -16 -27 -40c-8.66699 -3.33301 -14.834 -9.33301 -18.501 -18
s-8.5 -21.334 -14.5 -38.001l-25 -66c62.667 54.667 102.667 108 120 160c8 23.333 12.333 41.333 13 54z" />
    <glyph glyph-name="alefwithpatah" unicode="&#xfb2e;" horiz-adv-x="466" 
d="M521 182c-2.66699 -12 -10.001 -23.6689 -22.001 -35.002c-4 0 -8.66699 -2.33301 -14 -7s-9.33301 -7.66699 -12 -9c-16 -6 -39.667 -15.667 -71 -29c-17.333 -8 -28.666 -12 -33.999 -12h-3c-0.666992 0 -8.66699 -2 -24 -6c-8 -1.33301 -20.333 -3.66602 -37 -6.99902
c-11.333 -3.33301 -26.666 -5 -45.999 -5c-35.333 0 -60.333 2.66699 -75 8c-22 7.33301 -40.667 23 -56 47c-8.66699 -20.667 -20.334 -41 -35.001 -61l-36.5 -61.5c-12.333 -20.333 -32.166 -35.166 -59.499 -44.499l-16 20c6.66699 13.333 15 34.666 25 63.999
c10.667 32.667 15.667 54 15 64c6 4 10 9.16699 12 15.5l6 19.5l36 77c16.667 36 26 60.667 28 74c6 12.667 17.667 30.334 35 53.001c2.66699 11.333 7.33398 23.666 14.001 36.999c5.33301 4 12.333 12.833 21 26.5s13.334 23.167 14.001 28.5
c11.333 8.66699 21.333 24.334 30 47.001c16.667 16 37.667 43.333 63 82c5.33301 3.33301 14.333 17 27 41c11.333 20 19 35.333 23 46c11.333 -5.33301 21.166 -14.5 29.499 -27.5s12.5 -25.833 12.5 -38.5c0 -22 -13.333 -56.333 -40 -103
c-36.667 -62.667 -56 -96.334 -58 -101.001c-17.333 -12.667 -34 -33.667 -50 -63c5.33301 4.66699 17.5 13.5 36.5 26.5s31.167 20.5 36.5 22.5l24 10c7.33301 -3.33301 21.333 -11 42 -23s32.167 -19.833 34.5 -23.5s5.16602 -16.834 8.49902 -39.501l-49 -4
c-10.667 -2 -27.334 -6.33301 -50.001 -13c-11.333 -3.33301 -31.833 -19.166 -61.5 -47.499s-47.5 -48.166 -53.5 -59.499c14 -14 29.333 -21 46 -21c36 0 68.333 2.66699 97 8c2.66699 0 33.667 6.66699 93 20c12 0.666992 29.667 5 53 13c6.66699 4 12.667 6 18 6
c2.66699 0 6.66699 -0.666992 12 -2zM264.999 -120.002c-0.666992 -6 -1.66797 -12.334 -3.00098 -19.001s-5 -10.667 -11 -12c-6 -2 -22.667 -0.333008 -50 5c-2 0 -15.333 1.66699 -40 5c-6 0 -14.667 1 -26 3c-18.667 2 -29.334 6.33301 -32.001 13
c-1.33301 4 0.333984 9 5.00098 15c4 0 11.333 0.666992 22 2l13.5 1c9 0.666992 19.167 0.333984 30.5 -0.999023c2.66699 -0.666992 20.334 -2 53.001 -4h14c8.66699 0 16.667 -2.66699 24 -8z" />
    <glyph glyph-name="alefwithqamats" unicode="&#xfb2f;" horiz-adv-x="466" 
d="M521 182c-2.66699 -12 -10.001 -23.6689 -22.001 -35.002c-4 0 -8.66699 -2.33301 -14 -7s-9.33301 -7.66699 -12 -9c-16 -6 -39.667 -15.667 -71 -29c-17.333 -8 -28.666 -12 -33.999 -12h-3c-0.666992 0 -8.66699 -2 -24 -6c-8 -1.33301 -20.333 -3.66602 -37 -6.99902
c-11.333 -3.33301 -26.666 -5 -45.999 -5c-35.333 0 -60.333 2.66699 -75 8c-22 7.33301 -40.667 23 -56 47c-8.66699 -20.667 -20.334 -41 -35.001 -61l-36.5 -61.5c-12.333 -20.333 -32.166 -35.166 -59.499 -44.499l-16 20c6.66699 13.333 15 34.666 25 63.999
c10.667 32.667 15.667 54 15 64c6 4 10 9.16699 12 15.5l6 19.5l36 77c16.667 36 26 60.667 28 74c6 12.667 17.667 30.334 35 53.001c2.66699 11.333 7.33398 23.666 14.001 36.999c5.33301 4 12.333 12.833 21 26.5s13.334 23.167 14.001 28.5
c11.333 8.66699 21.333 24.334 30 47.001c16.667 16 37.667 43.333 63 82c5.33301 3.33301 14.333 17 27 41c11.333 20 19 35.333 23 46c11.333 -5.33301 21.166 -14.5 29.499 -27.5s12.5 -25.833 12.5 -38.5c0 -22 -13.333 -56.333 -40 -103
c-36.667 -62.667 -56 -96.334 -58 -101.001c-17.333 -12.667 -34 -33.667 -50 -63c5.33301 4.66699 17.5 13.5 36.5 26.5s31.167 20.5 36.5 22.5l24 10c7.33301 -3.33301 21.333 -11 42 -23s32.167 -19.833 34.5 -23.5s5.16602 -16.834 8.49902 -39.501l-49 -4
c-10.667 -2 -27.334 -6.33301 -50.001 -13c-11.333 -3.33301 -31.833 -19.166 -61.5 -47.499s-47.5 -48.166 -53.5 -59.499c14 -14 29.333 -21 46 -21c36 0 68.333 2.66699 97 8c2.66699 0 33.667 6.66699 93 20c12 0.666992 29.667 5 53 13c6.66699 4 12.667 6 18 6
c2.66699 0 6.66699 -0.666992 12 -2zM256.999 -122.002l-3.00195 -23.002c-1.33301 -11.333 -4.66602 -17.666 -9.99902 -18.999c-9.33301 0 -24.666 3 -45.999 9c-2.66699 -10 -7.66699 -22 -15 -36c3.33301 -14.667 -2 -23.667 -16 -27c-4 -0.666992 -9 1 -15 5
c0.666992 2 0 8 -2 18c2 2 2.16699 6 0.5 12s-1.16699 11.333 1.5 16v1c-2.66699 6.66699 -3 14.334 -1 23.001c-6 0.666992 -14 2.33398 -24 5.00098c-5.33301 -1.33301 -11.833 -0.833008 -19.5 1.5s-12.167 6.16602 -13.5 11.499c-2 4 -0.666992 8.66699 4 14
c1.33301 0 9 1 23 3h13c11.333 2.66699 23 2.66699 35 0c12 -1.33301 29 -3 51 -5l-3 -1c0.666992 0.666992 7 1 19 1c4 -0.666992 11 -3.66699 21 -9z" />
    <glyph glyph-name="alefwithmapiq" unicode="&#xfb30;" horiz-adv-x="466" 
d="M521 182c-2.66699 -12 -10.001 -23.6689 -22.001 -35.002c-4 0 -8.66699 -2.33301 -14 -7s-9.33301 -7.66699 -12 -9c-16 -6 -39.667 -15.667 -71 -29c-17.333 -8 -28.666 -12 -33.999 -12h-3c-0.666992 0 -8.66699 -2 -24 -6c-8 -1.33301 -20.333 -3.66602 -37 -6.99902
c-11.333 -3.33301 -26.666 -5 -45.999 -5c-35.333 0 -60.333 2.66699 -75 8c-22 7.33301 -40.667 23 -56 47c-8.66699 -20.667 -20.334 -41 -35.001 -61l-36.5 -61.5c-12.333 -20.333 -32.166 -35.166 -59.499 -44.499l-16 20c6.66699 13.333 15 34.666 25 63.999
c10.667 32.667 15.667 54 15 64c6 4 10 9.16699 12 15.5l6 19.5l36 77c16.667 36 26 60.667 28 74c6 12.667 17.667 30.334 35 53.001c2.66699 11.333 7.33398 23.666 14.001 36.999c5.33301 4 12.333 12.833 21 26.5s13.334 23.167 14.001 28.5
c11.333 8.66699 21.333 24.334 30 47.001c16.667 16 37.667 43.333 63 82c5.33301 3.33301 14.333 17 27 41c11.333 20 19 35.333 23 46c11.333 -5.33301 21.166 -14.5 29.499 -27.5s12.5 -25.833 12.5 -38.5c0 -22 -13.333 -56.333 -40 -103
c-36.667 -62.667 -56 -96.334 -58 -101.001c-17.333 -12.667 -34 -33.667 -50 -63c5.33301 4.66699 17.5 13.5 36.5 26.5s31.167 20.5 36.5 22.5l24 10c7.33301 -3.33301 21.333 -11 42 -23s32.167 -19.833 34.5 -23.5s5.16602 -16.834 8.49902 -39.501l-49 -4
c-10.667 -2 -27.334 -6.33301 -50.001 -13c-11.333 -3.33301 -31.833 -19.166 -61.5 -47.499s-47.5 -48.166 -53.5 -59.499c14 -14 29.333 -21 46 -21c36 0 68.333 2.66699 97 8c2.66699 0 33.667 6.66699 93 20c12 0.666992 29.667 5 53 13c6.66699 4 12.667 6 18 6
c2.66699 0 6.66699 -0.666992 12 -2zM210.999 -140.002c-2 -0.666992 -5.5 -3.33203 -10.5 -7.99902s-10.5 -7 -16.5 -7c-4 0 -10 1.33301 -18 4c-3.33301 4.66699 -7.33301 14 -12 28l9 2c3.33301 2 8 6.33301 14 13c14 -2 23.167 -4.33301 27.5 -7
s6.5 -9.33398 6.5 -20.001v-5z" />
    <glyph glyph-name="betwithdagesh" unicode="&#xfb31;" horiz-adv-x="480" 
d="M278 311c-2.66699 -0.666992 -6.33203 -3.33203 -10.999 -7.99902s-9.66699 -7 -15 -7c-3.33301 0 -9.66602 1.33301 -18.999 4c-2.66699 5.33301 -6.33398 14.666 -11.001 27.999l9 2c1.33301 2 3.66602 4.33301 6.99902 7s5.66602 4.66699 6.99902 6
c14.667 -2 23.334 -4 26.001 -6c4.66699 -4 7 -12.667 7 -26zM515.002 351.002c0 -10 -3.33496 -18.3281 -10.002 -24.9951c-11.333 -11.333 -30 -25.333 -56 -42c-8 -5.33301 -21.833 -11 -41.5 -17s-33.834 -12 -42.501 -18l-74 -48c-8 -6.66699 -21 -15.334 -39 -26.001
c-4 -6.66699 -11 -14 -21 -22c-12 -8.66699 -19.667 -15.334 -23 -20.001c-10.667 -14.667 -28 -34.667 -52 -60c-1.33301 -6 -6.66602 -15 -15.999 -27c-2 -4 -5.66699 -9.33301 -11 -16c-0.666992 -4 -1.83398 -9.33301 -3.50098 -16s-2.5 -11.334 -2.5 -14.001
c0 -4.66699 0.666992 -11.167 2 -19.5s2 -14.5 2 -18.5c0 -11.333 -13.667 -21.666 -41 -30.999c0.666992 3.33301 1 8.33301 1 15c0 7.33301 -4.5 19.833 -13.5 37.5s-13.5 33.167 -13.5 46.5c0 23.333 8.16699 48.666 24.5 75.999s34.5 47.333 54.5 60c4 2 6 3.33301 6 4
l4 7c5.33301 4.66699 13.333 11 24 19c3.33301 1.33301 11 8.66602 23 21.999c1.33301 2 8 8.33301 20 19c29.333 27.333 53.833 45.833 73.5 55.5l57.5 29c18.667 9.66699 36.667 23.5 54 41.5c-10.667 4.66699 -41.667 7 -93 7c-30.667 0 -61 -4.33301 -91 -13
c-5.33301 -1.33301 -17.166 -7 -35.499 -17s-30.5 -15 -36.5 -15c-19.333 0 -38.666 15.667 -57.999 47c21.333 25.333 57 45.333 107 60c42 12 83.333 18 124 18c52 0 94 -8 126 -24l29 -18h3c0.666992 -0.666992 1.33398 -1 2.00098 -1
c24.667 -10.667 37 -29.334 37 -56.001z" />
    <glyph glyph-name="gimelwithdagesh" unicode="&#xfb32;" horiz-adv-x="479" 
d="M442 341c0 -14 -6.33691 -21.002 -19.0039 -21.002c-3.33301 0 -8.66602 1.16699 -15.999 3.5s-13 3.5 -17 3.5c-5.33301 0 -17.666 -1 -36.999 -3c-24 -2 -37.333 -3 -40 -3l-60 -34c-3.33301 -3.33301 -16 -12 -38 -26c-77.333 -50.667 -116 -96 -116 -136
c0 -6.66699 1.33301 -16.334 4 -29.001s5.83398 -20.167 9.50098 -22.5s14.167 -5.16602 31.5 -8.49902s30 -5 38 -5c54 0 133.667 14.333 239 43l8 -19l-16 -11c-8 -9.33301 -17.667 -14.666 -29 -15.999l-1 -4c-11.333 -2.66699 -17.666 -4 -18.999 -4
c-6.66699 -2.66699 -12 -6.33398 -16 -11.001h-12c-9.33301 -6.66699 -21.333 -11.334 -36 -14.001c-19.333 -4 -31.666 -7 -36.999 -9l-1 -5c-20 -8 -43 -12 -69 -12c-70 0 -112.333 14.333 -127 43c-1.33301 4.66699 -5.66602 11.667 -12.999 21
c-20 16.667 -30 39.334 -30 68.001c0 24.667 12.667 55 38 91c1.33301 2 3 5.33301 5 10l9 4c2 8 5.66699 13.333 11 16c8 4 12.333 6.33301 13 7c10 10 28.333 25.667 55 47c31.333 25.333 52.333 40 63 44c7.33301 6.66699 23.333 19.334 48 38.001
c-14.667 7.33301 -24.334 15.333 -29.001 24l-15 33c-3.33301 6 -5 11 -5 15c0 9.33301 5.33301 14 16 14c6.66699 0 22.667 -6.33301 48 -19c22 -12 39 -22 51 -30c0.666992 0 1.66699 0.333008 3 1h3c17.333 0 39.166 -9.66699 65.499 -29s39.5 -37.666 39.5 -54.999z
M296.996 141.998c-4 -1.33301 -10.6699 -6.66797 -20.0029 -16.001c-6.66699 -6.66699 -14.667 -10 -24 -10c-5.33301 0 -15.666 2.33301 -30.999 7c-5.33301 8 -11.666 23 -18.999 45l15 4c6 4.66699 14 12.334 24 23.001c24.667 -4 39.334 -7.66699 44.001 -11
c7.33301 -6 11 -20 11 -42z" />
    <glyph glyph-name="daletwithdagesh" unicode="&#xfb33;" horiz-adv-x="358" 
d="M344 360c0 -21.333 -8.33301 -39.998 -25 -55.998c-10 -7.33301 -25 -19 -45 -35c-10.667 -9.33301 -29.334 -23 -56.001 -41c35.333 -22 53 -46 53 -72c0 -9.33301 -2.66699 -18.666 -8 -27.999c-3.33301 -5.33301 -5.33301 -10.333 -6 -15
c-1.33301 -6.66699 -4 -11.5 -8 -14.5l-11 -8.5c-2 -5.33301 -6 -12.833 -12 -22.5s-12.333 -19.167 -19 -28.5c-8.66699 -12 -16.667 -20 -24 -24c-4.66699 -2.66699 -9 -7.33398 -13 -14.001c-5.33301 -8.66699 -9.66602 -14.334 -12.999 -17.001
c-5.33301 -4.66699 -12.333 -12 -21 -22c-13.333 -6.66699 -29 -10.667 -47 -12c5.33301 25.333 19.666 58.666 42.999 99.999l58 97c10 18 15 29.333 15 34c0 10 -13.333 15 -40 15c-3.33301 0 -8.33301 -1 -15 -3s-12 -3 -16 -3s-11.667 5.5 -23 16.5s-17 21.5 -17 31.5
c0 12.667 11.667 21.667 35 27c17.333 4 28 7 32 9c2 0.666992 12 7.33398 30 20.001c14 9.33301 27 19.666 39 30.999c18 16 27 28.333 27 37c0 4.66699 -2.66699 9 -8 13c-9.33301 6.66699 -24 10 -44 10c-33.333 0 -53.666 -8.33301 -60.999 -25c-6 -14 -14 -21 -24 -21
c-22 0 -43 14.667 -63 44c7.33301 8.66699 19.333 20.667 36 36c33.333 26 73 39 119 39c6.66699 0 12.667 -0.666992 18 -2c19.333 -4 42.333 -15.667 69 -35c30 -22 45 -42.333 45 -61zM152 115.002c-4 -1.33301 -10.6699 -6.66699 -20.0029 -16
c-6.66699 -6.66699 -14.667 -10 -24 -10c-5.33301 0 -15.666 2.33301 -30.999 7c-5.33301 8 -11.666 23.333 -18.999 46l15 4c6 4.66699 14 12 24 22c24.667 -4 39.334 -7.66699 44.001 -11c7.33301 -6 11 -20 11 -42z" />
    <glyph glyph-name="hewithmapiq" unicode="&#xfb34;" horiz-adv-x="495" 
d="M360 299c-2.66699 -0.666992 -6.50098 -3.33203 -11.501 -7.99902s-10.167 -7 -15.5 -7c-4 0 -10 1.33301 -18 4c-3.33301 5.33301 -7 14.666 -11 27.999l8 2c4 2.66699 9 7 15 13c14.667 -2 23.834 -4.5 27.501 -7.5s5.5 -11.167 5.5 -24.5zM494.999 306.002
c0 -4 -0.834961 -10 -2.50195 -18s-2.5 -14.333 -2.5 -19c0 -1.33301 0.333008 -3.33301 1 -6s1 -4.66699 1 -6c0 -4.66699 -1.66699 -9.66699 -5 -15c-5.33301 -8 -8.33301 -12.333 -9 -13c-3.33301 -10 -10 -24.333 -20 -43c-2 -5.33301 -5.5 -13.333 -10.5 -24
s-14.5 -26.334 -28.5 -47.001l-3 -3c-4.66699 -4 -9.66699 -12.833 -15 -26.5s-14 -24.834 -26 -33.501c-1.33301 -2.66699 -4 -7.33398 -8 -14.001c-6 -11.333 -15.333 -20.333 -28 -27c-9.33301 -6.66699 -29.333 -10 -60 -10c4 8.66699 11.667 21.334 23 38.001
c10 14.667 20 34 30 58c20.667 48.667 39.667 98.667 57 150c4.66699 12.667 9.66699 25.334 15 38.001c5.33301 15.333 8 28.666 8 39.999c0 13.333 -2.33301 22.333 -7 27s-14 8.33398 -28 11.001c-12 0.666992 -30.333 2.33398 -55 5.00098c-14.667 2 -26 3 -34 3
c-21.333 0 -49 -7 -83 -21c-36 -15.333 -58.667 -31.333 -68 -48c-8 -14 -18 -21 -30 -21c-7.33301 0 -18.666 3.66699 -33.999 11s-23 14 -23 20c0 3.33301 3 10 9 20c29.333 47.333 78.666 83.333 147.999 108c22.667 8 52.334 12 89.001 12
c40.667 0 78.334 -11.667 113.001 -35s61.667 -53.666 81 -90.999c3.33301 -6.66699 5 -13.334 5 -20.001zM297.997 249.002c0 -4.66699 -1.33496 -10.332 -4.00195 -16.999l-21 -17l-16 -32c-6.66699 -13.333 -13.667 -23 -21 -29c-8.66699 -16 -26.667 -42 -54 -78
c-4.66699 -7.33301 -6.66699 -12 -6 -14c-6.66699 -6 -20 -21.333 -40 -46c-9.33301 -12 -31 -24.333 -65 -37c10.667 39.333 17.334 62.666 20.001 69.999c9.33301 30 18.333 51.333 27 64c0 19.333 11 46.333 33 81c25.333 40.667 39.833 67.167 43.5 79.5
s10.834 18.5 21.501 18.5c2 0 5.16699 -0.5 9.5 -1.5s7.5 -1.5 9.5 -1.5s5 0.333008 9 1s7 1 9 1h17l27 -19c0 -2 0.333008 -5.66699 1 -11v-12z" />
    <glyph glyph-name="vavwithdagesh" unicode="&#xfb35;" horiz-adv-x="259" 
d="M325 408l-12.001 -19.998l-15 -11c-11.333 -18 -25 -49 -41 -93l-26 -48l-10 -1c-3.33301 -8.66699 -5 -16.667 -5 -24c-12.667 -16 -30 -41.667 -52 -77c-8.66699 -18 -21 -45 -37 -81l-9 -3c-1.33301 -12 -9.33301 -30.833 -24 -56.5s-26.667 -40.834 -36 -45.501
c-6 8.66699 -9 15.667 -9 21c0 21.333 4.33301 51.166 13 89.499s17.667 66.833 27 85.5l25 55c8.66699 15.333 17.334 35 26.001 59c6.66699 10 13.667 25.667 21 47h2c38.667 71.333 57 114.333 55 129l14 16c25.333 0 54.333 -7.33301 87 -22zM112.999 237.002
c-4 -1.33301 -10.335 -6.66699 -19.002 -16c-7.33301 -6.66699 -15.333 -10 -24 -10c-5.33301 0 -15.666 2.33301 -30.999 7c-5.33301 8 -11.666 23.333 -18.999 46l14 4c6 4.66699 14.333 12 25 22c24.667 -4 39 -7.66699 43 -11c8 -6 11.667 -20 11 -42z" />
    <glyph glyph-name="zayinwithdagesh" unicode="&#xfb36;" horiz-adv-x="396" 
d="M210 225c-4 -1.33301 -10.6689 -6.66797 -20.002 -16.001c-7.33301 -6.66699 -15.333 -10 -24 -10c-5.33301 0 -15.666 2.33301 -30.999 7c-5.33301 8 -11.666 23 -18.999 45l14 4c6 4.66699 14.333 12.334 25 23.001c24.667 -4 39 -7.66699 43 -11c8 -6 12 -20 12 -42z
M382.998 292.998c-0.666992 -13.333 -15.999 -47.332 -45.999 -101.999c-4 -8.66699 -11.333 -22 -22 -40c-3.33301 -0.666992 -7.33301 -2.66699 -12 -6c-6 -10.667 -15.333 -26.334 -28 -47.001c-3.33301 -6 -7 -12.167 -11 -18.5s-9 -10.833 -15 -13.5
c-16 -28.667 -32.333 -49.334 -49 -62.001c-34 -26.667 -52.333 -47.667 -55 -63c-28 -24 -48.667 -39.667 -62 -47c-16.667 -8 -42 -14.667 -76 -20c4.66699 8.66699 13.334 21.334 26.001 38.001c4 4 6 8 6 12c14 18 29 34 45 48c4.66699 4 11.834 14.333 21.501 31
s16.167 27.334 19.5 32.001c6 3.33301 13 11.833 21 25.5s14 22.167 18 25.5c1.33301 7.33301 11.666 19.666 30.999 36.999c0 3.33301 1 8.33301 3 15c0 12 16.167 41.333 48.5 88s48.833 79 49.5 97c0 8 -6.66699 12.333 -20 13c-26 1.33301 -51.667 -4.66699 -77 -18
c-38 -20 -61 -31.333 -69 -34c-6.66699 -6.66699 -14.667 -10 -24 -10c-10 0.666992 -18 5.16699 -24 13.5s-9 17.833 -9 28.5s4.66699 22.334 14 35.001c25.333 35.333 69.666 82 132.999 140h9c9.33301 0 18.333 -3.5 27 -10.5s13 -15.167 13 -24.5
c-0.666992 -4.66699 -4.5 -10.834 -11.5 -18.501s-21.5 -22.167 -43.5 -43.5c9.33301 4 16.666 6 21.999 6c32 2.66699 64 -6 96 -26c35.333 -22.667 52.333 -49.667 51 -81z" />
    <glyph glyph-name="tetwithdagesh" unicode="&#xfb38;" horiz-adv-x="505" 
d="M872 692c0 -8.66699 -13.6631 -16.333 -40.9961 -23c-13.333 -2.66699 -32.666 -7.66699 -57.999 -15c-94.667 -32 -186.334 -70.333 -275.001 -115c-28 -13.333 -72 -37.333 -132 -72c-68 -44.667 -111 -79.334 -129 -104.001l-52 -64c-20 -26 -33.333 -50.333 -40 -73
c-16.667 -24.667 -25 -53 -25 -85c0 -11.333 7.66699 -23.166 23 -35.499s28.666 -18.5 39.999 -18.5c37.333 0.666992 70.666 14.334 99.999 41.001c16.667 15.333 38.334 43.666 65.001 84.999c14 22 26 38.333 36 49c1.33301 2 11.833 23 31.5 63s33.5 60 41.5 60
c15.333 0 23 -10 23 -30c0 -21.333 -2.33301 -36.333 -7 -45c-4.66699 -16.667 -12.667 -36.667 -24 -60c-3.33301 -4 -10.333 -14.667 -21 -32l-36 -60c-16.667 -26.667 -30 -44.334 -40 -53.001l-4 -12c-8 -4 -13 -7.16699 -15 -9.5s-3.33301 -6.5 -4 -12.5
c-2 -2.66699 -23 -20.667 -63 -54c-13.333 -11.333 -39 -17 -77 -17c-27.333 0 -47.333 3 -60 9s-28 19.333 -46 40c-8.66699 10 -14 19 -16 27c-23.333 18.667 -35 37.667 -35 57c0 6 2.16699 14.5 6.5 25.5s5.83301 19.833 4.5 26.5l10 7
c5.33301 16.667 16.666 40.667 33.999 72c14 24.667 23.333 40.334 28 47.001c19.333 26 46 56 80 90c7.33301 15.333 49.333 52.333 126 111c31.333 24 87.333 55 168 93c31.333 14.667 50.333 22 57 22c1.33301 0 20.166 6.66699 56.499 20s55.166 20 56.499 20
c79.333 28 139.333 42 180 42c22 0 33 -5.66699 33 -17zM293.004 218.001c-4.66699 -1.33301 -10.835 -5.83398 -18.502 -13.501s-16.167 -11.5 -25.5 -11.5c-5.33301 0 -15.666 2.33301 -30.999 7c-5.33301 8 -11.666 23 -18.999 45l15 4c6 4.66699 14 12.334 24 23.001
c24 -4 38.333 -8 43 -12c8 -6 12 -20 12 -42z" />
    <glyph glyph-name="yodwithdagesh" unicode="&#xfb39;" horiz-adv-x="234" 
d="M314 406c0 -6 -7.16797 -16.333 -21.501 -31s-21.5 -23.667 -21.5 -27c-5.33301 0.666992 -11 -2.83301 -17 -10.5s-9.66699 -15.167 -11 -22.5c-8 -14.667 -22.667 -34.334 -44 -59.001c-1.33301 -10.667 -6.66602 -20.667 -15.999 -30s-19.333 -14 -30 -14
c-10 0 -20 5 -30 15l6 39c6 8.66699 12 19 18 31l-1 18c-0.666992 14.667 5.5 34.5 18.5 59.5s26.167 41.5 39.5 49.5c0.666992 10.667 10.667 20.334 30 29.001l47 -18c22 -9.33301 33 -19 33 -29zM137.999 344c-4 -1.33301 -10.335 -6.66797 -19.002 -16.001
c-7.33301 -6.66699 -15.333 -10 -24 -10c-5.33301 0 -15.666 2.33301 -30.999 7c-5.33301 8 -11.666 23 -18.999 45l14 4c6 4.66699 14.333 12.334 25 23.001c24.667 -4 39 -7.66699 43 -11c8 -6 11.667 -20 11 -42z" />
    <glyph glyph-name="finalkafwithdagesh" unicode="&#xfb3a;" horiz-adv-x="411" 
d="M261 268c-2.66699 -0.666992 -6.33301 -3.33301 -11 -8s-9.66699 -7 -15 -7c-4.66699 0 -11 1.33301 -19 4c-2.66699 5.33301 -6.33398 14.333 -11.001 27l8 3c4 2.66699 9 7 15 13c14.667 -2 23.334 -4 26.001 -6c4.66699 -4 7 -12.667 7 -26zM421.001 319.001
c-3.33301 -9.33301 -4.99902 -19.6729 -4.99902 -31.0059c0 -26 -20 -53.333 -60 -82c-8.66699 -5.33301 -21 -13.666 -37 -24.999c-4.66699 -3.33301 -24.667 -20.666 -60 -51.999c-24.667 -21.333 -46.334 -36.666 -65.001 -45.999c-26.667 -13.333 -48 -35 -64 -65
c-4 -8 -10 -15.167 -18 -21.5s-13.5 -11.166 -16.5 -14.499s-5.83301 -9 -8.5 -17c-6.66699 -5.33301 -14.667 -14.833 -24 -28.5s-17.666 -22.834 -24.999 -27.501c-2 -9.33301 -12 -24.333 -30 -45c-2 -2 -5.33301 -9 -10 -21c-3.33301 -8.66699 -10.666 -20 -21.999 -34
c-12 -16 -21.667 -25.667 -29 -29l-9 -8c-4 -3.33301 -6 -6.66602 -6 -9.99902c0 -7.33301 -0.666992 -13.333 -2 -18c-1.33301 -10.667 -7.66602 -24 -18.999 -40c-14 -20.667 -22.333 -33.667 -25 -39c-4.66699 -0.666992 -15 -6.66699 -31 -18
c-3.33301 26.667 -5 42.334 -5 47.001c0 29.333 4.66699 52.333 14 69v5c0 10.667 4.33301 25 13 43l19 43l10.5 22.5c3.66699 7.66699 9.16699 12.834 16.5 15.501c0.666992 5.33301 11.667 22.333 33 51c4.66699 10 13 24 25 42l37 41l21 26
c7.33301 8.66699 15.666 15.667 24.999 21c11.333 16 48.666 50 111.999 102c61.333 50 101.666 80.333 120.999 91c22 12 33 28.667 33 50c0 6 -1 11.333 -3 16c-8 4 -16.667 6 -26 6c-37.333 0 -75.666 -19.667 -114.999 -59c-14.667 -14.667 -31.334 -22 -50.001 -22
c-11.333 0 -23 3.83301 -35 11.5s-18 16.5 -18 26.5c0 10.667 7.66699 22 23 34c56.667 45.333 116.667 68 180 68c29.333 0 50 -3.33301 62 -10l33 -22c10 -6.66699 23.333 -22 40 -46z" />
    <glyph glyph-name="kafwithdagesh" unicode="&#xfb3b;" horiz-adv-x="451" 
d="M275 265c-2 -0.666992 -5.50098 -3.50098 -10.501 -8.50098s-10.167 -7.5 -15.5 -7.5c-2 0 -8 1.66699 -18 5c-3.33301 4.66699 -7.33301 13.667 -12 27l9 2c3.33301 2.66699 8 7.33398 14 14.001c14.667 -2 23.334 -4 26.001 -6c4.66699 -4 7 -12.667 7 -26z
M435.999 277.999c0 -2.66699 -0.333008 -4.66797 -1 -6.00098c-1.33301 -5.33301 -1.66602 -10 -0.999023 -14c-25.333 -40 -40.333 -62.667 -45 -68c-14.667 -18 -37.667 -35.667 -69 -53l-72 -37c-12 -6 -33.833 -16 -65.5 -30l-114.5 -50c-42 -14 -73 -20.667 -93 -20
c-26.667 1.33301 -42.667 3.33301 -48 6c-10 4.66699 -21 18.667 -33 42c36 0 61 1.33301 75 4c19.333 3.33301 40.666 11 63.999 23l60 32l110.5 50.5c37.667 17.667 71.667 38.834 102 63.501s45.5 56 45.5 94c0 15.333 -16.333 23 -49 23c-25.333 0 -52.333 -4 -81 -12
c-37.333 -10.667 -59.333 -24.667 -66 -42c-14 -5.33301 -22.667 -8 -26 -8c-12.667 0 -22.667 6 -30 18c-6 9.33301 -9 19.333 -9 30c0 13.333 6.66699 24.666 20 33.999l37 19l-5 -7c0.666992 1.33301 8.16699 5.5 22.5 12.5s22.833 10.833 25.5 11.5
c28.667 4.66699 54 7 76 7c32.667 0 60.667 -6 84 -18c18.667 -9.33301 36.667 -23.666 54 -42.999c21.333 -23.333 32 -44 32 -62z" />
    <glyph glyph-name="lamedwithdagesh" unicode="&#xfb3c;" horiz-adv-x="355" 
d="M693 692c0 -7.33301 -24.001 -20.334 -72.001 -39.001c-11.333 -4 -21 -8.33301 -29 -13c-44 -23.333 -74 -40.666 -90 -51.999c-29.333 -20.667 -53.333 -45.334 -72 -74.001l-24 -38c-32.667 -50 -56.667 -91 -72 -123c-9.33301 -8.66699 -14.666 -18 -15.999 -28
c-2 -12 -6.66699 -21.667 -14 -29c-15.333 -45.333 -28 -72.666 -38 -81.999c-1.33301 -0.666992 -3 -1.33398 -5 -2.00098s-3.33301 -1 -4 -1c2 -10 -4.33301 -22.333 -19 -37c-22.667 -55.333 -41.334 -93.333 -56.001 -114l-58 -60l-31 -1l-57 52
c-8.66699 7.33301 -13 17.333 -13 30c0 4 1.33301 12.5 4 25.5s4 21.833 4 26.5c0 3.33301 -0.333008 5.66602 -1 6.99902l27 58.5c9.33301 20.333 15 39.5 17 57.5c2 0.666992 8.66699 5.66699 20 15c8.66699 6.66699 15.667 10 21 10c10 0 20 -2 30 -6
c13.333 -5.33301 20 -12.333 20 -21s-8.83301 -26.667 -26.5 -54s-26.5 -48.666 -26.5 -63.999v-12l6 10c10 17.333 25.667 42 47 74c2 11.333 8.33301 24 19 38c12.667 16.667 20.334 28.334 23.001 35.001l29 45c9.33301 16 23 38 41 66c6 9.33301 10.333 17 13 23
c24 52.667 56 101.334 96 146.001c52 57.333 109.667 97.666 173 120.999c47.333 17.333 85.333 26 114 26c13.333 0 20 -5.33301 20 -16zM202.999 310.999c-2.66699 -0.666992 -6.33301 -3.33398 -11 -8.00098s-9.66699 -7 -15 -7c-4.66699 0 -11 1.33301 -19 4
c-2.66699 4.66699 -6.33398 13.667 -11.001 27l9 2c3.33301 2.66699 8 7.33398 14 14.001c14.667 -2 23.334 -4 26.001 -6c4.66699 -4 7 -12.667 7 -26z" />
    <glyph glyph-name="memwithdagesh" unicode="&#xfb3e;" horiz-adv-x="450" 
d="M341 316c-2.66699 -0.666992 -6.33398 -3.33203 -11.001 -7.99902s-9.66699 -7 -15 -7c-4.66699 0 -11 1.33301 -19 4c-3.33301 5.33301 -7 14.666 -11 27.999l8 2c4 2.66699 9 7 15 13c14.667 -2 23.834 -4.5 27.501 -7.5s5.5 -11.167 5.5 -24.5zM485 423.002
c0 -37.333 -9.33301 -66.333 -28 -87l2 7c0.666992 -4.66699 -14.333 -36.334 -45 -95.001l-59 -112c-8 -14.667 -17 -33 -27 -55c-3.33301 -14.667 -11 -36.667 -23 -66l-43 -23c-28 30.667 -42 69.667 -42 117c0 10.667 1.16699 26 3.5 46s3.5 35 3.5 45l1 9
c0.666992 4.66699 0.666992 8.33398 0 11.001c-0.666992 3.33301 -2.33398 5 -5.00098 5c-6 0 -15.333 -10.333 -28 -31l-39 -67c-6.66699 -12 -17.667 -30.833 -33 -56.5s-36.666 -64.834 -63.999 -117.501l-37 -23c-5.33301 14.667 -8 26 -8 34c0 26 5.66699 52.333 17 79
c8 22.667 22.333 55.667 43 99c4 6.66699 11 17.667 21 33c14.667 26 39 63.333 73 112c28.667 35.333 55 53 79 53c38 0 55.667 -45.333 53 -136l161 247c16 -1.33301 24 -10.666 24 -27.999z" />
    <glyph glyph-name="nunwithdagesh" unicode="&#xfb40;" horiz-adv-x="260" 
d="M118 207c-4.66699 -1.33301 -10.835 -6 -18.502 -14s-16.167 -12 -25.5 -12c-6.66699 0 -16.667 2.66699 -30 8c-5.33301 8 -11.666 23 -18.999 45l14 4c6 4.66699 14 12 24 22c24.667 -4 39.334 -7.66699 44.001 -11c7.33301 -6 11 -20 11 -42zM314.999 365
c0 -8.66699 -3.99707 -22.002 -11.9971 -40.002c-5.33301 -14 -11 -27.667 -17 -41c-2.66699 -11.333 -7.33398 -28.666 -14.001 -51.999c-2.66699 -2.66699 -6.33398 -12 -11.001 -28c-3.33301 -12.667 -10.333 -30 -21 -52c-10 -5.33301 -14.333 -15 -13 -29l-8 -8
c-2.66699 -12 -12.334 -27 -29.001 -45v-17c-11.333 -9.33301 -20.333 -19.666 -27 -30.999l1 -1c-0.666992 -1.33301 -1.16699 -2.83301 -1.5 -4.5s-0.833008 -3.16699 -1.5 -4.5c-12.667 -20.667 -33.667 -52 -63 -94c-5.33301 -7.33301 -13.666 -17.666 -24.999 -30.999
c-4 -2.66699 -9.66699 -6.66699 -17 -12c-10 -8 -19 -17 -27 -27l-12 -1c-8 -6.66699 -19 -17.667 -33 -33l-22 -16c-9.33301 -4 -26 -13 -50 -27c-16.667 -10 -38.667 -18 -66 -24c-4 -0.666992 -19.333 0.666016 -46 3.99902l79 57c6 7.33301 15 17 27 29
c8.66699 10 23.667 23.667 45 41c22 12 38.333 28 49 48c11.333 14 27.666 36 48.999 66c14 21.333 25.333 37 34 47c2 6 6.33301 15 13 27l9 14c0.666992 1.33301 7.33398 10.333 20.001 27c4 4.66699 17 35 39 91c21.333 54 33.666 86.667 36.999 98l12 14l-1 7
c19.333 29.333 30.333 60 33 92l23 -5c31.333 -15.333 47 -28.333 47 -39z" />
    <glyph glyph-name="samekhwithdagesh" unicode="&#xfb41;" horiz-adv-x="459" 
d="M459 385c-3.33301 -25.333 -5.33496 -37.333 -6.00195 -36c-4.66699 -22 -13 -50.667 -25 -86c-9.33301 -16.667 -13 -28.667 -11 -36l-15 -24c-1.33301 -8 -3 -14.667 -5 -20c-11.333 -12.667 -23.666 -27.667 -36.999 -45v-9c-11.333 -20.667 -34.333 -45 -69 -73
c-6.66699 -5.33301 -12.5 -10.5 -17.5 -15.5s-14.167 -10.833 -27.5 -17.5c-20 -20 -43.333 -30 -70 -30c-42 0 -84.333 23.333 -127 70c0 5.33301 -2.33301 13.5 -7 24.5s-7 20.167 -7 27.5c0 32.667 11.333 76.667 34 132c24.667 60 49.334 96.667 74.001 110
c6 14 18 28 36 42c24 18.667 38.333 30.667 43 36c15.333 8 31.333 12 48 12c7.33301 0 15 -1 23 -3c18.667 8.66699 37 13 55 13c48.667 0 85.667 -24 111 -72zM383.998 377c0 6.66699 -2.00098 13.834 -6.00098 21.501s-9 11.5 -15 11.5c-12 0 -30 -7 -54 -21
c-40.667 -24 -70.667 -45.667 -90 -65c-1.33301 -1.33301 -9.83301 -13.333 -25.5 -36s-23.834 -35 -24.501 -37c-2 -8 -7.33301 -20 -16 -36c-4 -10 -9 -25.333 -15 -46c-3.33301 -10.667 -6.66602 -27.334 -9.99902 -50.001c0 -2.66699 -0.333008 -7.16699 -1 -13.5
s-1 -10.833 -1 -13.5c0 -23.333 2.33301 -35 7 -35c6 0 18.333 6.66699 37 20c48 34 88.667 75.333 122 124c6.66699 8.66699 16.334 22 29.001 40c42 70.667 63 116 63 136zM274.997 227c-4 -1.33301 -10.6689 -6.66699 -20.002 -16c-6.66699 -6.66699 -14.667 -10 -24 -10
c-5.33301 0 -15.666 2.33301 -30.999 7c-5.33301 8 -11.666 23.333 -18.999 46l15 4c6 4.66699 14 12 24 22c24.667 -4 39 -7.66699 43 -11c8 -6 12 -20 12 -42z" />
    <glyph glyph-name="finalpewithdagesh" unicode="&#xfb43;" horiz-adv-x="398" 
d="M678 656c0 -9.33301 -3.6709 -19.9971 -11.0039 -31.9971s-11.666 -21.333 -12.999 -28c-18.667 -24.667 -34 -41 -46 -49c-58 -40 -100 -63 -126 -69c-6.66699 -0.666992 -15.334 -4.33398 -26.001 -11.001l-27 -30c-10.667 -13.333 -17.667 -24.666 -21 -33.999
c-6 -2.66699 -9 -4.33398 -9 -5.00098c0 -6.66699 -1.33301 -12.667 -4 -18c-4 -8 -6.33301 -13.333 -7 -16c-3.33301 -8 -9.33301 -19.333 -18 -34l-11 -15c-3.33301 -4.66699 -6 -11.667 -8 -21c-2 -6.66699 -6.33301 -15.667 -13 -27
c-7.33301 -7.33301 -11 -17.333 -11 -30c0 -8.66699 -1.33301 -16.667 -4 -24v-2c0 -13.333 -4.16699 -25 -12.5 -35s-13.166 -18 -14.499 -24c-3.33301 -16.667 -8.66602 -31 -15.999 -43l-35 -68c-18.667 -31.333 -35.667 -47 -51 -47c-10 0 -16.333 3.66699 -19 11l-8 23
l-22 26c-0.666992 18 11.833 52.333 37.5 103s46.167 82.334 61.5 95.001c6.66699 5.33301 12.667 13.666 18 24.999c7.33301 16.667 11.666 26 12.999 28c10 12 20.333 27.667 31 47c0.666992 1.33301 1.16699 3.16602 1.5 5.49902s0.5 4.16602 0.5 5.49902
c14.667 20.667 24 39.334 28 56.001c-15.333 -2 -24.666 -3.66699 -27.999 -5c-9.33301 -2 -17.666 -6 -24.999 -12c-7.33301 -2 -18.666 -6 -33.999 -12c-2 -0.666992 -5 -1 -9 -1c-3.33301 0 -8.33301 0.5 -15 1.5s-11.334 1.5 -14.001 1.5s-7.5 -2.66699 -14.5 -8
s-13.167 -8 -18.5 -8s-12.333 -2.33301 -21 -7c-12 -6.66699 -19 -10.334 -21 -11.001c-23.333 -8.66699 -40.666 -16 -51.999 -22c-4 -2 -11.667 -10.833 -23 -26.5s-19.333 -25.5 -24 -29.5c-8 -6.66699 -13.333 -11.667 -16 -15c-4 -5.33301 -6.66699 -12 -8 -20v-3
c-0.666992 -1.33301 -1 -2.33301 -1 -3v0c-0.666992 -9.33301 -3.66699 -23.333 -9 -42c-18 10.667 -28.667 18.667 -32 24c-3.33301 12 -7 24 -11 36c6 30 10.667 50.333 14 61c7.33301 22 18 39.333 32 52l22.5 20c7.66699 6.66699 16.5 11 26.5 13
c6 10.667 16 16.834 30 18.501s22 5.16699 24 10.5c10 1.33301 25 4.33301 45 9c6 2 15 4.66699 27 8c4.66699 0 12 0.333008 22 1c11.333 4 28 9.33301 50 16c14 4 26.333 7.33301 37 10c26.667 5.33301 58 14 94 26c4.66699 3.33301 10.834 13.333 18.501 30
s14.167 27.667 19.5 33c7.33301 11.333 18.666 27.666 33.999 48.999c44 62.667 89.667 94 137 94c10 0 23.667 -3 41 -9s29 -12 35 -18s9 -14.333 9 -25zM611.996 647.003l-0.000976562 2c-3.33301 -22 -18.666 -43.667 -45.999 -65c-22 -17.333 -46 -30.666 -72 -39.999
c6 13.333 16.667 31.666 32 54.999c10 10.667 23.5 21.167 40.5 31.5s32.167 15.833 45.5 16.5z" />
    <glyph glyph-name="pewithdagesh" unicode="&#xfb44;" horiz-adv-x="466" 
d="M461 312c0 -20 -4.66504 -37.335 -13.998 -52.002c0.666992 -8.66699 -2.66602 -18 -9.99902 -28s-11.333 -18 -12 -24c-0.666992 -10 -5.66699 -16.333 -15 -19c-0.666992 -8.66699 -7 -19.667 -19 -33l-28 -29c-2.66699 -5.33301 -7.33398 -12.666 -14.001 -21.999
c-10.667 -11.333 -25.334 -21.666 -44.001 -30.999c-12 -24 -35 -40.333 -69 -49c-3.33301 -6 -9.66602 -9 -18.999 -9c-16 -12.667 -26 -19 -30 -19s-7 0.666992 -9 2c-7.33301 -5.33301 -14.666 -8 -21.999 -8c-4.66699 0 -11.5 1.16699 -20.5 3.5s-15.833 3.5 -20.5 3.5
c-8.66699 0 -16.334 3.66699 -23.001 11c-0.666992 0.666992 -3 1 -7 1c-13.333 0.666992 -28.333 7.66699 -45 21s-25 26.666 -25 39.999c0 4.66699 1 11.167 3 19.5s3 14.666 3 18.999s7.33301 17.5 22 39.5c28.667 43.333 64 74.333 106 93
c6 2.66699 23.667 7.33398 53 14.001c61.333 14 99.666 21 114.999 21c9.33301 0 24 -0.666992 44 -2c13.333 28 20 49.667 20 65c0 9.33301 -3.33301 21.333 -10 36s-31 22 -73 22c-44.667 0 -75.334 -8 -92.001 -24c-10.667 -8 -26 -21.667 -46 -41
c6 -6.66699 12.333 -14.667 19 -24c-40 -3.33301 -56 -5 -48 -5c-8.66699 0 -16.167 5 -22.5 15s-9.5 19.333 -9.5 28c0 10.667 7 24.334 21 41.001s26.333 27 37 31c8 10 26 19.667 54 29c25.333 8 46 12 62 12c38.667 0 76 -11.333 112 -34c40.667 -24.667 63 -55 67 -91
c6 -6 9 -13.667 9 -23zM339.002 236.998c-12 -2 -27.667 -5.33594 -47 -10.0029c-9.33301 -4 -23.333 -9.33301 -42 -16c-8.66699 -1.33301 -21.667 -4.33301 -39 -9c-26 -9.33301 -51 -24.666 -75 -45.999c-28 -25.333 -42 -49.666 -42 -72.999
c0 -2.66699 0.666992 -6 2 -10c10.667 -2.66699 18.667 -4 24 -4c9.33301 0 23.833 4.83301 43.5 14.5s31.834 14.834 36.501 15.501c3.33301 3.33301 8.66602 7.16602 15.999 11.499s12.333 8 15 11s7 5.83301 13 8.5c11.333 9.33301 27.333 24.333 48 45
c7.33301 8.66699 13 16.334 17 23.001l11.5 14c5 6 8.5 10.333 10.5 13s4.66699 6.66699 8 12zM226.002 142.995c-2 -0.666992 -5.50098 -3.33301 -10.501 -8s-10.167 -7 -15.5 -7c-4 0 -10 1.33301 -18 4c-3.33301 5.33301 -7.33301 14.333 -12 27l9 3
c3.33301 2.66699 8 7 14 13c14.667 -2 23.334 -4 26.001 -6c4.66699 -4 7 -12.667 7 -26z" />
    <glyph glyph-name="tsadiwithdagesh" unicode="&#xfb46;" horiz-adv-x="446" 
d="M456 436c0 -8.66699 -3.66113 -17.335 -10.9941 -26.002c-3.33301 -0.666992 -7 -5 -11 -13c-20 -8 -45.667 -20.667 -77 -38c-5.33301 -2.66699 -14 -8.66699 -26 -18c24.667 -3.33301 49.667 -13 75 -29c29.333 -20 44 -41 44 -63
c0 -11.333 -1.83301 -20.166 -5.5 -26.499s-50.834 -40.166 -141.501 -101.499s-144.667 -96.333 -162 -105c-14 -6.66699 -34.333 -18.667 -61 -36l-10 3c-7.33301 -5.33301 -18 -15 -32 -29c-15.333 -6 -32 -13.667 -50 -23l-12 6c-2.66699 0 -5.5 -1.33301 -8.5 -4
s-5.16699 -4.33398 -6.5 -5.00098c-4 -0.666992 -16.667 -1 -38 -1c11.333 14 21.666 24 30.999 30v2c9.33301 10 21.666 20.333 36.999 31c8 5.33301 43 31.666 105 78.999c0.666992 1.33301 5 3.33301 13 6l101 74l39 22c17.333 14.667 44.666 33.334 81.999 56.001
c12 8 29 20.667 51 38c-24.667 13.333 -56.334 20 -95.001 20c-33.333 0 -64.333 -5 -93 -15c-19.333 -6.66699 -37.333 -10 -54 -10c-12 0 -21 9 -27 27c1.33301 4.66699 0.833008 10.834 -1.5 18.501s-3.5 12.834 -3.5 15.501c0 18 8.66699 28 26 30
c23.333 3.33301 60.666 17.333 111.999 42c44 21.333 79 40.666 105 57.999c-1.33301 0.666992 -4 3.16699 -8 7.5s-11.333 6.83301 -22 7.5c-8 -1.33301 -19.667 -2.66602 -35 -3.99902c-22 -7.33301 -34.667 -11 -38 -11c-6.66699 -3.33301 -17.667 -7 -33 -11
s-26.5 -8.5 -33.5 -13.5s-12.5 -7.5 -16.5 -7.5c-24 0 -36 11.333 -36 34c0 25.333 11.333 40.666 34 45.999c2 2.66699 9.66699 8 23 16c7.33301 0 20.333 2.66699 39 8c44 12.667 77.333 19 100 19c24.667 0 44 -4.66699 58 -14c4 -3.33301 18 -17.333 42 -42
c20.667 -21.333 31 -38 31 -50zM222.006 185.999c-4.66699 -1.33301 -10.835 -6 -18.502 -14s-16.167 -12 -25.5 -12c-5.33301 0 -15.666 2.33301 -30.999 7c-5.33301 8.66699 -11.666 24 -18.999 46l15 4c6 4.66699 14 12 24 22c24.667 -4 39 -7.66699 43 -11
c8 -6 12 -20 12 -42z" />
    <glyph glyph-name="qofwithdagesh" unicode="&#xfb47;" horiz-adv-x="502" 
d="M390 306c-2.66699 -0.666992 -6.33398 -3.33398 -11.001 -8.00098s-10 -7 -16 -7c-4 0 -10 1.33301 -18 4c-3.33301 4.66699 -7 13.667 -11 27l8 2c4 2.66699 9 7.33398 15 14.001c14.667 -2 23.834 -4.5 27.501 -7.5s5.5 -11.167 5.5 -24.5zM495 278
c-3.33301 -2 -4.99512 -3.99805 -4.99512 -5.99805l-6 -9c-4.66699 -8 -11.334 -20.333 -20.001 -37c-3.33301 -2 -6 -4.33301 -8 -7c-12.667 -24.667 -40 -50.667 -82 -78c-6.66699 -4.66699 -21.334 -11.334 -44.001 -20.001l-6 14c10 10.667 21.667 27.167 35 49.5
s24 38.166 32 47.499c1.33301 11.333 9.33301 28.333 24 51s22 40 22 52c0 10 -5.66699 18 -17 24l-32 12c-12.667 -2.66699 -28.334 -1.66699 -47.001 3c-11.333 0 -28 -1.66699 -50 -5c-42.667 -10.667 -76 -24.334 -100 -41.001c-2.66699 -5.33301 -6 -8 -10 -8l-2 -5
c-8.66699 -6 -29.667 -31 -63 -75c-16.667 0 -30.5 5.33301 -41.5 16s-16.5 23 -16.5 37c0 17.333 10.333 36 31 56l49 46c15.333 10 38.666 21.667 69.999 35c60 12.667 98.333 19 115 19c38.667 0 80 -18 124 -54c21.333 -18 34.666 -30 39.999 -36
c9.33301 -12 14 -25.667 14 -41c0 -11.333 -2 -24.666 -6 -39.999zM337.005 256.002l-21.0029 -3.00195l6 3c-5.33301 -8 -14.333 -19.667 -27 -35c-7.33301 -13.333 -18.666 -32.666 -33.999 -57.999c-13.333 -18 -31.666 -46.333 -54.999 -85c-2 -4.66699 -5 -11 -9 -19
c-14.667 -21.333 -35.667 -54 -63 -98c-3.33301 -6 -9.5 -14 -18.5 -24s-15.167 -18 -18.5 -24c-4.66699 -9.33301 -13 -24.666 -25 -45.999c-16.667 -24 -35.667 -55 -57 -93c-5.33301 -16 -11.666 -26.333 -18.999 -31c-6.66699 -27.333 -22.667 -43 -48 -47
c-0.666992 4.66699 -1 9.66699 -1 15c0 17.333 5.66699 39 17 65c18 38.667 27.333 59 28 61c2 6.66699 9.66699 22.334 23 47.001c5.33301 14 15.666 34 30.999 60c10 11.333 21.667 31.666 35 60.999l30 68c9.33301 19.333 17 33.333 23 42l110 157v16l10 8
c3.33301 0 23.333 -4.66699 60 -14c4 -3.33301 6.66699 -6.33301 8 -9l1 -2c0.666992 -0.666992 5.33398 -5.66699 14.001 -15z" />
    <glyph glyph-name="reshwithdagesh" unicode="&#xfb48;" horiz-adv-x="423" 
d="M428 330c0 -14 -5.66699 -30.667 -17 -50s-23 -34 -35 -44c-9.33301 -23.333 -23.666 -41.333 -42.999 -54c-5.33301 -8.66699 -15.333 -17 -30 -25c-4.66699 -15.333 -13.667 -29.666 -27 -42.999c-4 -4 -12 -8.66699 -24 -14c1.33301 -0.666992 1.5 -3.66699 0.5 -9
s-1.16699 -8 -0.5 -8c-6 -2.66699 -15 -8 -27 -16c-8 -8 -15 -13 -21 -15c-30.667 -34 -59.334 -51 -86.001 -51c-18.667 0 -28 7.66699 -28 23c0 9.33301 21.667 38.666 65 87.999c64.667 74.667 105.334 122.334 122.001 143.001c43.333 55.333 65 94.666 65 117.999
c0 2 -7.66699 5.33301 -23 10c-6 2 -13 3 -21 3c-21.333 0 -44.5 -6 -69.5 -18s-42.5 -24 -52.5 -36c-4 -6.66699 -11.667 -16 -23 -28c-18.667 -12 -36 -18 -52 -18c-27.333 0 -41 11 -41 33c0 22.667 18.667 47 56 73c29.333 20.667 58.333 35.667 87 45
c26.667 8.66699 53 13 79 13c25.333 0 45.666 -3.66699 60.999 -11c7.33301 -3.33301 24.333 -15 51 -35c10 -7.33301 16 -14.666 18 -21.999c8.66699 -6 13 -14.667 13 -26c0 -2.66699 0.5 -6.83398 1.5 -12.501s1.5 -10.167 1.5 -13.5z" />
    </font>
</defs>
</svg>
